<svg width="70" height="70" viewBox="0 0 70 70" fill="none" xmlns="http://www.w3.org/2000/svg">
<path d="M68.0997 58.924C69.3164 60.1408 70 61.7911 70 63.5118C70 65.2326 69.3164 66.8829 68.0997 68.0997C66.8829 69.3164 65.2326 70 63.5118 70C61.7911 70 60.1408 69.3164 58.924 68.0997L36.0485 45.2241C35.7704 44.946 35.3932 44.7898 35 44.7898C34.6068 44.7898 34.2296 44.946 33.9515 45.2241L11.076 68.0997C9.85923 69.3164 8.20894 70 6.48817 70C4.7674 70 3.11711 69.3164 1.90034 68.0997C0.683573 66.8829 0 65.2326 0 63.5118C0 61.7911 0.683573 60.1408 1.90034 58.924L24.7759 36.0492C25.054 35.771 25.2102 35.3937 25.2102 35.0004C25.2102 34.607 25.054 34.2297 24.7759 33.9515L1.90034 11.076C0.683573 9.85923 0 8.20894 0 6.48817C0 4.7674 0.683573 3.11711 1.90034 1.90034C3.11711 0.683573 4.7674 0 6.48817 0C8.20894 0 9.85923 0.683573 11.076 1.90034L33.9515 24.7766C34.2296 25.0547 34.6068 25.2109 35 25.2109C35.3932 25.2109 35.7704 25.0547 36.0485 24.7766L58.924 1.90034C60.1408 0.683573 61.7911 0 63.5118 0C65.2326 0 66.8829 0.683573 68.0997 1.90034C69.3164 3.11711 70 4.7674 70 6.48817C70 8.20894 69.3164 9.85923 68.0997 11.076L45.2241 33.9515C44.946 34.2297 44.7898 34.607 44.7898 35.0004C44.7898 35.3937 44.946 35.771 45.2241 36.0492L68.0997 58.924Z" fill="black"/>
</svg>
