<svg width="71" height="71" viewBox="0 0 71 71" fill="none" xmlns="http://www.w3.org/2000/svg">
<path d="M68.3521 0.852124H3.01879C2.40052 0.85397 1.8081 1.1004 1.37091 1.53758C0.933729 1.97477 0.687304 2.56719 0.685457 3.18546V68.5188C0.687304 69.1371 0.933729 69.7295 1.37091 70.1667C1.8081 70.6038 2.40052 70.8503 3.01879 70.8521H68.3521C68.9704 70.8503 69.5628 70.6038 70 70.1667C70.4372 69.7295 70.6836 69.1371 70.6855 68.5188V3.18546C70.6836 2.56719 70.4372 1.97477 70 1.53758C69.5628 1.1004 68.9704 0.85397 68.3521 0.852124ZM58.8921 55.7455C59.3293 56.186 59.5747 56.7815 59.5747 57.4021C59.5747 58.0228 59.3293 58.6183 58.8921 59.0588C58.4498 59.4926 57.855 59.7356 57.2355 59.7356C56.6159 59.7356 56.0211 59.4926 55.5788 59.0588L35.6855 39.1421L15.7921 59.0588C15.3498 59.4926 14.755 59.7356 14.1355 59.7356C13.5159 59.7356 12.9211 59.4926 12.4788 59.0588C12.0416 58.6183 11.7962 58.0228 11.7962 57.4021C11.7962 56.7815 12.0416 56.186 12.4788 55.7455L32.3955 35.8521L12.4788 16.9588C12.0424 16.5188 11.7981 15.9238 11.7993 15.3041C11.8006 14.6844 12.0473 14.0904 12.4855 13.6522C12.9237 13.214 13.5177 12.9673 14.1374 12.966C14.7572 12.9647 15.3521 13.209 15.7921 13.6455L35.6855 32.5621L55.5788 13.6455C56.0188 13.209 56.6138 12.9647 57.2335 12.966C57.8532 12.9673 58.4472 13.214 58.8854 13.6522C59.3236 14.0904 59.5703 14.6844 59.5716 15.3041C59.5729 15.9238 59.3285 16.5188 58.8921 16.9588L38.9755 35.8521L58.8921 55.7455Z" fill="black"/>
</svg>
