<svg width="75" height="75" viewBox="0 0 75 75" fill="none" xmlns="http://www.w3.org/2000/svg">
<path d="M66.35 1.35L40.25 27.45C38.45 29.25 35.65 29.25 33.85 27.45L7.75 1.35C5.95 -0.45 3.15 -0.45 1.35 1.35C-0.45 3.15 -0.45 5.95 1.35 7.75L27.45 33.85C29.25 35.65 29.25 38.45 27.45 40.25L1.35 66.35C-0.45 68.15 -0.45 70.95 1.35 72.75C3.15 74.55 5.95 74.55 7.75 72.75L33.85 46.65C35.65 44.85 38.45 44.85 40.25 46.65L66.35 72.75C68.15 74.55 70.95 74.55 72.75 72.75C74.55 70.95 74.55 68.15 72.75 66.35L46.55 40.25C44.75 38.45 44.75 35.65 46.55 33.85L72.75 7.75C74.55 5.95 74.55 3.15 72.75 1.35C70.95 -0.35 68.15 -0.35 66.35 1.35Z" fill="black"/>
</svg>
