<svg width="64" height="64" viewBox="0 0 64 64" fill="none" xmlns="http://www.w3.org/2000/svg">
<path d="M62.239 54.6849L61.239 54.6953L61.2286 53.6954C61.2202 52.8998 60.8962 52.1401 60.3277 51.5834C59.7593 51.0267 58.9929 50.7186 58.1973 50.7269L56.1975 50.7479L56.1765 48.748C56.1583 47.1573 55.5097 45.6388 54.3731 44.5257C53.2366 43.4127 51.7048 42.796 50.1141 42.8111L47.1142 42.8425C46.849 42.8452 46.5958 42.9532 46.4102 43.1427C46.2247 43.3322 46.122 43.5877 46.1248 43.8529L46.1666 47.8527C46.1694 48.1179 46.2774 48.3711 46.4669 48.5567C46.6564 48.7422 46.9118 48.8449 47.177 48.8421L49.1769 48.8212C49.4421 48.8184 49.6976 48.9211 49.887 49.1067C50.0765 49.2923 50.1845 49.5455 50.1873 49.8107L50.1978 50.8106L44.4211 50.8711C44.919 50.0698 45.1788 49.1434 45.1702 48.2001C45.1574 47.1164 44.7957 46.0657 44.1388 45.2037L41.9082 42.2969C41.8097 42.18 41.6866 42.0863 41.5476 42.0225C41.4086 41.9587 41.2572 41.9265 41.1043 41.9281C40.9514 41.9297 40.8008 41.9651 40.6632 42.0318C40.5256 42.0984 40.4044 42.1947 40.3083 42.3136L38.1391 45.2665C37.5005 46.1425 37.1609 47.2008 37.1706 48.2848C37.1817 49.2277 37.4604 50.148 37.9745 50.9385L35.4216 50.9652C35.9195 50.164 36.1793 49.2376 36.1707 48.2943C36.1578 47.2106 35.7962 46.1599 35.1393 45.2979L32.9087 42.3911C32.8102 42.2741 32.6871 42.1804 32.5481 42.1167C32.4091 42.0529 32.2577 42.0207 32.1048 42.0223C31.9519 42.0239 31.8013 42.0593 31.6637 42.1259C31.5261 42.1926 31.4049 42.2888 31.3088 42.4078L29.1396 45.3607C28.501 46.2366 28.1614 47.295 28.1711 48.379C28.1822 49.3218 28.4609 50.2422 28.9749 51.0327L26.4221 51.0594C26.92 50.2581 27.1798 49.3318 27.1712 48.3884C27.1583 47.3047 26.7967 46.254 26.1398 45.3921L23.9092 42.4852C23.8107 42.3683 23.6876 42.2746 23.5486 42.2108C23.4096 42.1471 23.2582 42.1148 23.1053 42.1164C22.9524 42.118 22.8018 42.1534 22.6642 42.2201C22.5265 42.2867 22.4054 42.383 22.3093 42.502L20.1401 45.4548C19.5015 46.3308 19.1619 47.3891 19.1716 48.4731C19.1827 49.416 19.4614 50.3363 19.9754 51.1269L13.1998 51.1978L13.1893 50.1978C13.1866 49.9326 13.2893 49.6772 13.4748 49.4877C13.6604 49.2982 13.9136 49.1902 14.1788 49.1874L17.1787 49.156C17.4439 49.1532 17.6971 49.0452 17.8827 48.8557C18.0682 48.6662 18.1709 48.4108 18.1681 48.1456L18.1263 44.1458C18.1235 43.8806 18.0155 43.6274 17.826 43.4418C17.6365 43.2563 17.3811 43.1536 17.1159 43.1563L13.1161 43.1982C11.5254 43.2164 10.0069 43.865 8.89385 45.0016C7.78081 46.1382 7.16415 47.6699 7.17921 49.2606L7.20013 51.2605L6.20019 51.271C5.40458 51.2793 4.64487 51.6034 4.08818 52.1718C3.53149 52.7403 3.22342 53.5066 3.23174 54.3022L3.2422 55.3022L2.24226 55.3126C1.97706 55.3154 1.72382 55.4234 1.53825 55.6129C1.35269 55.8024 1.25 56.0578 1.25277 56.323L1.31555 62.3227C1.31833 62.5879 1.42634 62.8411 1.61583 63.0267C1.80531 63.2123 2.06076 63.315 2.32596 63.3122L62.3227 62.6844C62.5879 62.6817 62.8411 62.5736 63.0267 62.3842C63.2122 62.1947 63.3149 61.9392 63.3122 61.674L63.2494 55.6743C63.2466 55.4091 63.1386 55.1559 62.9491 54.9703C62.7596 54.7848 62.5042 54.6821 62.239 54.6849ZM49.156 46.8213L48.156 46.8318L48.1351 44.8319L50.135 44.811C51.1958 44.7999 52.2176 45.2106 52.9755 45.9529C53.7335 46.6951 54.1655 47.7081 54.1766 48.7689L54.1976 50.7688L52.1977 50.7897L52.1872 49.7898C52.1789 48.9942 51.8548 48.2344 51.2864 47.6778C50.7179 47.1211 49.9516 46.813 49.156 46.8213ZM40.0748 50.3855C39.7915 50.109 39.5658 49.7792 39.4106 49.4151C39.2554 49.0509 39.1738 48.6597 39.1705 48.2639C39.1641 47.6124 39.3678 46.9762 39.7516 46.4497L41.132 44.5711L42.5514 46.4204C42.9457 46.9386 43.1627 47.5699 43.1703 48.221C43.1758 48.617 43.1025 49.0101 42.9547 49.3775C42.807 49.7448 42.5877 50.0792 42.3096 50.3611L41.7832 50.8987L40.6113 50.9109L40.0748 50.3855ZM31.0753 50.4797C30.792 50.2032 30.5663 49.8734 30.4111 49.5092C30.2559 49.1451 30.1743 48.7538 30.171 48.358C30.1646 47.7066 30.3683 47.0704 30.7521 46.5439L32.1325 44.6653L33.5519 46.5146C33.9462 47.0327 34.1632 47.6641 34.1708 48.3152C34.1763 48.7111 34.103 49.1042 33.9552 49.4716C33.8075 49.839 33.5882 50.1734 33.3101 50.4553L32.7837 50.9928L31.6118 51.0051L31.0753 50.4797ZM22.0758 50.5739C21.7925 50.2973 21.5668 49.9675 21.4116 49.6034C21.2564 49.2393 21.1748 48.848 21.1715 48.4522C21.1651 47.8007 21.3688 47.1645 21.7526 46.638L23.133 44.7595L24.5524 46.6087C24.9467 47.1269 25.1637 47.7583 25.1713 48.4093C25.1767 48.8053 25.1035 49.1984 24.9557 49.5658C24.808 49.9332 24.5887 50.2675 24.3106 50.5495L23.7842 51.087L22.6123 51.0993L22.0758 50.5739ZM9.1791 49.2397C9.168 48.1789 9.57876 47.1571 10.321 46.3992C11.0633 45.6412 12.0762 45.2092 13.137 45.1981L16.1369 45.1667L16.1578 47.1666L14.1579 47.1875C13.3623 47.1958 12.6026 47.5199 12.0459 48.0883C11.4892 48.6568 11.1811 49.4231 11.1895 50.2187L11.1999 51.2187L9.20002 51.2396L9.1791 49.2397ZM5.23163 54.2813C5.22886 54.0161 5.33155 53.7606 5.51711 53.5712C5.70267 53.3817 5.95591 53.2737 6.22111 53.2709L58.2183 52.7268C58.4835 52.7241 58.7389 52.8267 58.9284 53.0123C59.1179 53.1979 59.2259 53.4511 59.2287 53.7163L59.2391 54.7163L5.24209 55.2812L5.23163 54.2813ZM61.3018 60.695L3.30498 61.3018L3.26313 57.3021L61.26 56.6952L61.3018 60.695Z" fill="black"/>
<path d="M2.53273 36.5276C2.82896 37.8741 3.57912 39.078 4.65744 39.9372C5.73577 40.7964 7.0767 41.2588 8.45543 41.2469C8.86636 41.2426 9.27575 41.1957 9.67703 41.1071L37.0329 35.1215C38.2431 34.8546 39.3411 34.2198 40.1763 33.3042C41.0114 32.3886 41.5429 31.237 41.6977 30.0074L60.5974 25.8715C61.3516 25.6796 62.0018 25.2022 62.4106 24.54C62.8194 23.8779 62.9549 23.0827 62.7885 22.3225C62.6221 21.5623 62.1668 20.8965 61.5187 20.4657C60.8706 20.0349 60.0804 19.8727 59.3151 20.0136L40.5769 24.1098C40.2542 23.5805 39.7739 23.1655 39.2033 22.923C38.6328 22.6806 38.0006 22.6229 37.3956 22.7581L4.17778 30.025C3.40062 30.195 2.7228 30.6667 2.2934 31.3364C1.864 32.0061 1.71819 32.8189 1.88802 33.5961L2.53273 36.5276ZM59.7425 21.9632C60.0017 21.9065 60.2728 21.9551 60.4961 22.0983C60.7195 22.2415 60.8768 22.4676 60.9335 22.7268C60.9902 22.986 60.9416 23.2571 60.7984 23.4805C60.6552 23.7038 60.4292 23.8611 60.17 23.9178L41.6114 27.9782L41.184 26.0246L59.7425 21.9632ZM4.60925 31.9786L37.824 24.7117C37.8897 24.6975 37.9566 24.6898 38.0238 24.6886C38.254 24.6866 38.4778 24.7641 38.6575 24.9079C38.8372 25.0518 38.9617 25.2533 39.0101 25.4783L39.6508 28.4088C39.8775 29.4447 39.6836 30.5284 39.1116 31.4214C38.5395 32.3144 37.6363 32.9437 36.6005 33.1709L9.24761 39.1574C8.21162 39.3828 7.12855 39.1883 6.23572 38.6165C5.34289 38.0448 4.71313 37.1424 4.48443 36.1071L3.84374 33.1767C3.8146 33.0477 3.81133 32.9142 3.83412 32.784C3.85691 32.6537 3.90529 32.5293 3.97648 32.4179C4.04768 32.3065 4.14026 32.2103 4.24887 32.1349C4.35748 32.0595 4.47997 32.0063 4.60925 31.9786Z" fill="black"/>
<path d="M26.4157 8.01611C23.7081 8.72349 21.2436 10.1534 19.2856 12.1529C18.1874 13.2928 17.5841 14.8204 17.6071 16.4031C17.6301 17.9858 18.2776 19.4952 19.4085 20.6027C20.5393 21.7102 22.062 22.3259 23.6448 22.3158C25.2276 22.3057 26.7423 21.6705 27.8589 20.5487C29.8173 18.5491 31.1953 16.0548 31.8457 13.3326L32.2069 11.8217L34.5213 9.45738L36.3502 9.43825C36.8276 9.43327 37.2928 9.28682 37.687 9.01743C38.0812 8.74804 38.3867 8.3678 38.5648 7.9248C38.7429 7.4818 38.7856 6.99594 38.6876 6.52866C38.5895 6.06138 38.3551 5.63367 38.014 5.29961L37.8907 5.17989C37.2799 4.57846 36.5062 4.16932 35.6653 4.00311C35.4815 3.16585 35.0563 2.40085 34.4422 1.80279L34.3199 1.68206C33.9788 1.34799 33.5463 1.12258 33.077 1.03433C32.6078 0.946084 32.1229 0.998966 31.6838 1.18629C31.2446 1.37361 30.8708 1.68696 30.6097 2.08671C30.3487 2.48646 30.212 2.95466 30.217 3.43209L30.2361 5.25999L27.9207 7.62334L26.4157 8.01611ZM29.8997 12.8679C29.3336 15.2376 28.134 17.4089 26.4292 19.1496C25.6744 19.8841 24.6659 20.3 23.6127 20.311C22.5596 20.322 21.5425 19.9273 20.7725 19.2088C20.3972 18.8412 20.098 18.4034 19.8919 17.9202C19.6858 17.437 19.5769 16.918 19.5714 16.3927C19.5659 15.8674 19.6639 15.3462 19.8598 14.8588C20.0558 14.3714 20.3458 13.9274 20.7133 13.5521C22.4181 11.8117 24.5638 10.5673 26.921 9.95193L28.1458 9.6331L30.1938 11.6388L29.8997 12.8679ZM31.9527 6.36309C32.1383 6.17364 32.2411 5.91824 32.2383 5.65306L32.2149 3.41018C32.2144 3.32844 32.2381 3.24837 32.2829 3.18003C32.3278 3.11169 32.3918 3.05811 32.467 3.02603C32.5422 2.99394 32.6251 2.98478 32.7055 2.99968C32.7859 3.01459 32.8601 3.05289 32.9188 3.1098L33.041 3.23053C33.4973 3.6794 33.7581 4.29007 33.7669 4.93003C33.7696 5.19523 33.8776 5.44847 34.0671 5.63403C34.2566 5.81959 34.5121 5.92228 34.7773 5.91951C35.4171 5.91464 36.0331 6.16225 36.4916 6.60861L36.6148 6.72833C36.6734 6.78562 36.7137 6.85902 36.7306 6.93922C36.7474 7.01942 36.7401 7.10283 36.7095 7.17886C36.6789 7.2549 36.6265 7.32015 36.5588 7.36634C36.4911 7.41254 36.4112 7.4376 36.3292 7.43836L34.0864 7.46182C33.8212 7.46465 33.568 7.5727 33.3825 7.7622L31.2838 9.90628L29.8541 8.50616L31.9527 6.36309Z" fill="black"/>
<path d="M4.9823 11.3366C3.56785 13.7516 2.8362 16.5055 2.86554 19.3041C2.88219 20.8953 3.53027 22.4148 4.6672 23.5282C5.80412 24.6415 7.33678 25.2577 8.92799 25.241C10.5192 25.2244 12.0386 24.5763 13.152 23.4394C14.2654 22.3024 14.8815 20.7698 14.8649 19.1786C14.8357 16.38 14.0465 13.6419 12.5819 11.257L11.768 9.93348L11.7334 6.62466L13.0128 5.3182C13.3468 4.97708 13.5723 4.54456 13.6605 4.07533C13.7487 3.6061 13.6959 3.12124 13.5085 2.68206C13.3212 2.24289 13.0079 1.86912 12.6081 1.60804C12.2084 1.34695 11.7402 1.21027 11.2627 1.21529L11.0908 1.21709C10.2333 1.22348 9.39651 1.48157 8.68439 1.9593C7.96243 1.49657 7.12047 1.25605 6.26302 1.2676L6.09103 1.2694C5.6136 1.27438 5.14837 1.42082 4.75417 1.69021C4.35997 1.95961 4.05451 2.33984 3.87641 2.78284C3.69832 3.22584 3.6556 3.71171 3.75364 4.17899C3.85169 4.64627 4.0861 5.07398 4.42724 5.40803L5.7337 6.68744L5.76832 9.99625L4.9823 11.3366ZM12.865 19.1995C12.8761 20.2603 12.4653 21.2821 11.7231 22.04C10.9808 22.798 9.96787 23.23 8.90706 23.2411C7.84626 23.2522 6.82449 22.8415 6.06653 22.0992C5.30858 21.357 4.87653 20.344 4.86543 19.2832C4.84034 16.847 5.47755 14.4498 6.70897 12.3475L7.34759 11.2568L10.2154 11.2268L10.8767 12.3039C12.1519 14.3799 12.8391 16.7633 12.865 19.1995ZM6.11195 3.26929L6.28394 3.26749C6.92378 3.26273 7.53971 3.51032 7.99825 3.95659C8.18773 4.14209 8.44312 4.24474 8.70827 4.24197C8.97342 4.23919 9.22661 4.13122 9.41217 3.9418C9.86127 3.48603 10.4719 3.22561 11.1117 3.21698L11.2837 3.21518C11.3656 3.21422 11.446 3.2376 11.5147 3.28237C11.5833 3.32714 11.6371 3.39128 11.6693 3.46666C11.7015 3.54204 11.7105 3.62527 11.6954 3.70581C11.6802 3.78635 11.6414 3.86057 11.5841 3.91907L10.0147 5.52158C9.82916 5.71103 9.72643 5.96643 9.72915 6.23161L9.76053 9.23144L7.76064 9.25237L7.72926 6.25253C7.72642 5.98735 7.61837 5.73416 7.42887 5.54864L5.82637 3.97932C5.76776 3.92203 5.72748 3.84863 5.71062 3.76843C5.69376 3.68822 5.70109 3.60482 5.73168 3.52878C5.76226 3.45275 5.81472 3.3875 5.88242 3.3413C5.95012 3.29511 6.03 3.27005 6.11195 3.26929Z" fill="black"/>
<path d="M17.3357 8.15214C17.6026 8.41528 17.7551 8.77298 17.7601 9.14775L17.7706 10.1477L19.7705 10.1268L19.76 9.12683C19.7567 8.67831 19.6643 8.23491 19.4883 7.82235C19.3124 7.40978 19.0562 7.03626 18.7348 6.72342L18.1427 6.14358C17.8749 5.88105 17.7223 5.52296 17.7184 5.14797C17.7145 4.77298 17.8595 4.41177 18.1218 4.14369L19.4012 2.83724L17.9725 1.43811L16.6931 2.74457C16.0596 3.39147 15.709 4.26353 15.7185 5.16889C15.728 6.07426 16.0967 6.93879 16.7436 7.5723L17.3357 8.15214Z" fill="black"/>
<path d="M24.1214 4.08091L24.7013 3.48881C24.9699 3.23256 25.3259 3.08787 25.6971 3.08399C26.0683 3.0801 26.4272 3.21732 26.7012 3.46789L28.0076 4.74729L29.4068 3.31857L28.1003 2.03917C27.443 1.42609 26.5751 1.08936 25.6763 1.09876C24.7776 1.10817 23.9169 1.46298 23.2726 2.08968L22.6927 2.68178C22.4296 2.94869 22.0719 3.10118 21.6971 3.10622L20.6972 3.11668L20.7181 5.11657L21.718 5.10611C22.1666 5.10277 22.61 5.01044 23.0225 4.83445C23.4351 4.65847 23.8086 4.40234 24.1214 4.08091Z" fill="black"/>
<path d="M36.8846 20.9483L36.8742 19.9484C36.8708 19.4998 36.7785 19.0564 36.6025 18.6439C36.4265 18.2313 36.1704 17.8578 35.849 17.545L35.2569 16.9651C34.9891 16.7026 34.8365 16.3445 34.8325 15.9695C34.8286 15.5945 34.9737 15.2333 35.2359 14.9652L36.5153 13.6588L35.0866 12.2596L33.8072 13.5661C33.1737 14.213 32.8232 15.0851 32.8327 15.9904C32.8421 16.8958 33.2109 17.7603 33.8577 18.3938L34.4498 18.9737C34.7167 19.2368 34.8692 19.5945 34.8743 19.9693L34.8847 20.9692L36.8846 20.9483Z" fill="black"/>
</svg>
