<svg width="64" height="58" viewBox="0 0 64 58" fill="none" xmlns="http://www.w3.org/2000/svg">
<path d="M59.8 48.8H20.2C17.9 48.8 16 50.7 16 53C16 55.3 17.9 57.2 20.2 57.2H59.8C62.1 57.2 64 55.3 64 53C64 50.7 62.1 48.8 59.8 48.8Z" fill="black"/>
<path d="M4.2 32.8H59.8C62.1 32.8 64 30.9 64 28.6C64 26.3 62.1 24.4 59.8 24.4L4.2 24.4C1.9 24.4 0 26.3 0 28.6C0 30.9 1.9 32.8 4.2 32.8Z" fill="black"/>
<path d="M20.2 8.40002L59.8 8.40002C62.1 8.40002 64 6.50002 64 4.20002C64 1.90002 62.1 2.28882e-05 59.8 2.28882e-05L20.2 2.28882e-05C17.9 2.28882e-05 16 1.90002 16 4.20002C16 6.50002 17.9 8.40002 20.2 8.40002Z" fill="black"/>
</svg>
