<svg width="70" height="70" viewBox="0 0 70 70" fill="none" xmlns="http://www.w3.org/2000/svg">
<path d="M66 0H4C2.93913 0 1.92172 0.421428 1.17157 1.17157C0.421428 1.92172 0 2.93913 0 4V66C0 67.0609 0.421428 68.0783 1.17157 68.8284C1.92172 69.5786 2.93913 70 4 70H66C67.0609 70 68.0783 69.5786 68.8284 68.8284C69.5786 68.0783 70 67.0609 70 66V4C70 2.93913 69.5786 1.92172 68.8284 1.17157C68.0783 0.421428 67.0609 0 66 0ZM55.88 54.33L14.1 54.21C13.5603 54.21 13.0258 54.1037 12.5272 53.8971C12.0285 53.6906 11.5754 53.3879 11.1938 53.0062C10.8121 52.6246 10.5094 52.1715 10.3029 51.6728C10.0963 51.1742 9.99 50.6397 9.99 50.1C9.99 49.5603 10.0963 49.0258 10.3029 48.5272C10.5094 48.0285 10.8121 47.5754 11.1938 47.1938C11.5754 46.8121 12.0285 46.5094 12.5272 46.3029C13.0258 46.0963 13.5603 45.99 14.1 45.99L55.88 46.11C56.97 46.11 58.0154 46.543 58.7862 47.3138C59.557 48.0846 59.99 49.13 59.99 50.22C59.99 51.31 59.557 52.3554 58.7862 53.1262C58.0154 53.897 56.97 54.33 55.88 54.33ZM55.88 39.17L14.1 39.05C13.01 39.05 11.9646 38.617 11.1938 37.8462C10.423 37.0754 9.99 36.03 9.99 34.94C9.99 33.85 10.423 32.8046 11.1938 32.0338C11.9646 31.263 13.01 30.83 14.1 30.83L55.9 31C56.4397 31 56.9742 31.1063 57.4728 31.3129C57.9715 31.5194 58.4246 31.8221 58.8062 32.2038C59.1879 32.5854 59.4906 33.0385 59.6971 33.5372C59.9037 34.0358 60.01 34.5703 60.01 35.11C60.01 35.6497 59.9037 36.1842 59.6971 36.6828C59.4906 37.1815 59.1879 37.6346 58.8062 38.0162C58.4246 38.3979 57.9715 38.7006 57.4728 38.9071C56.9742 39.1137 56.4397 39.22 55.9 39.22L55.88 39.17ZM60 19.91C59.9947 20.9983 59.558 22.0401 58.7856 22.8068C58.0133 23.5736 56.9683 24.0027 55.88 24L14.1 23.89C13.5603 23.89 13.0258 23.7837 12.5272 23.5771C12.0285 23.3706 11.5754 23.0679 11.1938 22.6862C10.8121 22.3046 10.5094 21.8515 10.3029 21.3528C10.0963 20.8542 9.99 20.3197 9.99 19.78C9.99 19.2403 10.0963 18.7058 10.3029 18.2072C10.5094 17.7085 10.8121 17.2554 11.1938 16.8738C11.5754 16.4921 12.0285 16.1894 12.5272 15.9829C13.0258 15.7763 13.5603 15.67 14.1 15.67L55.88 15.79C56.4214 15.7887 56.9578 15.8943 57.4582 16.1009C57.9587 16.3075 58.4134 16.6109 58.7962 16.9938C59.1791 17.3766 59.4825 17.8313 59.6891 18.3318C59.8957 18.8322 60.0013 19.3686 60 19.91Z" fill="black"/>
</svg>
