<svg width="127" height="68" viewBox="0 0 127 68" fill="none" xmlns="http://www.w3.org/2000/svg">
<path d="M14.6982 22.8387L14.2776 22.3627C12.7755 23.6786 10.9269 24.4538 8.73169 24.6882C7.1092 24.5758 5.6426 24.0352 4.33188 23.0665C3.0423 22.0762 2.05967 20.8376 1.38399 19.3507C0.729449 17.8422 0.39489 16.3307 0.380316 14.8161C0.352399 11.9149 1.06342 9.31596 2.51339 7.01923C3.20648 5.88184 4.11515 4.97706 5.2394 4.30488C6.36365 3.6327 7.59775 3.29014 8.94168 3.27721C10.2856 3.26427 11.5579 3.56138 12.7584 4.16852C13.959 4.77566 14.9484 5.60885 15.7266 6.66808C17.3266 8.87145 18.1403 11.4024 18.1678 14.2609C18.1885 16.4155 17.5683 18.4696 16.307 20.4231C16.3072 20.4445 16.6412 20.7933 17.3091 21.4695C17.9343 22.1462 18.2486 22.6552 18.2519 22.9965C18.2549 23.3165 18.1408 23.6483 17.9094 23.9919C17.6994 24.3352 17.3384 24.5094 16.8264 24.5143C16.3144 24.5192 15.605 23.9607 14.6982 22.8387ZM4.42509 19.4494C5.42341 21.2106 6.97914 22.145 9.09227 22.2526C10.7974 22.0869 12.1265 21.6367 13.0795 20.9022L10.5236 18.0147C9.85508 17.2744 9.51898 16.7123 9.51529 16.3283C9.51139 15.923 9.64687 15.591 9.92172 15.3323C10.1964 15.0523 10.5364 14.9104 10.9417 14.9065C11.3683 14.9024 11.9265 15.2597 12.6161 15.9784C13.0259 16.4439 13.5763 17.1106 14.2674 17.9786C14.5701 18.4024 14.7646 18.6566 14.8508 18.7411C15.5215 17.4972 15.8498 16.1393 15.8356 14.6674C15.8036 11.3396 14.6699 8.81168 12.4345 7.08377C11.3166 6.19849 10.0003 5.76314 8.48572 5.77771C6.52315 5.79659 5.08117 6.70651 4.15979 8.50746C3.38568 10.0936 3.00858 11.9214 3.02849 13.9906C3.0482 16.0385 3.51373 17.8581 4.42509 19.4494ZM20.8949 10.7465C20.9767 10.3831 21.1551 10.0827 21.4302 9.84534C21.7051 9.58669 21.9812 9.45603 22.2585 9.45336C22.5571 9.45048 22.7816 9.50166 22.932 9.60688C23.1037 9.7119 23.2006 9.80697 23.2227 9.8921C23.2662 9.97702 23.3103 10.1259 23.355 10.3388C23.2431 12.004 23.1935 13.5085 23.2065 14.8525C23.2192 16.1751 23.3939 17.6988 23.7305 19.4237C24.0669 21.1272 24.4271 21.9771 24.8111 21.9734C25.387 21.9678 26.1093 21.6409 26.9777 20.9925C27.8675 20.3439 28.501 19.6658 28.8782 18.9581C28.5927 15.8887 28.4393 13.2554 28.4182 11.0582C28.4139 10.6102 28.5489 10.2249 28.8231 9.90221C29.1187 9.57935 29.4691 9.41597 29.8744 9.41207C30.5357 9.40571 30.8707 9.85051 30.8793 10.7465C30.8939 12.2611 31.0222 14.5106 31.2643 17.4951C31.5277 20.4793 31.7806 22.3757 32.023 23.184C32.0674 23.3543 32.0906 23.5567 32.0929 23.7914C32.0949 24.0047 31.9476 24.2088 31.6508 24.4037C31.3755 24.6197 31.0032 24.7299 30.5339 24.7344C30.0859 24.7387 29.7848 24.4856 29.6305 23.9751C29.5838 23.5489 29.471 22.9099 29.2921 22.0583C27.8138 23.6299 26.3174 24.423 24.8028 24.4376C24.0988 24.4443 23.4669 24.1837 22.9072 23.6558C22.3474 23.1278 21.9031 22.4067 21.5743 21.4925C21.0026 19.7272 20.7093 18.066 20.6943 16.5087C20.6793 14.9515 20.7462 13.0307 20.8949 10.7465ZM38.3678 9.45835C39.4984 9.44747 40.5789 9.76776 41.6092 10.4192C42.6395 11.0707 43.1594 11.887 43.1688 12.8683C43.178 13.8283 42.7711 14.7709 41.948 15.6962C41.1246 16.6002 40.0206 17.1548 38.6358 17.3601C38.0393 17.4512 37.1438 17.5025 35.9492 17.514C36.2013 19.325 36.6714 20.5152 37.3596 21.0846C37.5752 21.3172 37.8643 21.4318 38.2269 21.4283C39.5495 21.4155 40.6548 20.9889 41.5428 20.1483C42.4305 19.2864 43.0664 18.8536 43.4504 18.8499C43.621 18.8482 43.8786 19.0058 44.223 19.3225C44.5674 19.6392 44.7409 19.9362 44.7436 20.2135C44.7489 20.7681 44.0846 21.5746 42.7507 22.6328C42.1582 23.1292 41.4369 23.5521 40.5868 23.9017C39.758 24.2297 38.9809 24.3971 38.2556 24.4041C36.3997 24.422 35.0229 23.2405 34.1253 20.8597C33.5565 19.3931 33.2636 17.7745 33.2465 16.0039C33.2295 14.2333 33.6308 12.7041 34.4504 11.4161C35.2701 10.1282 36.5759 9.47559 38.3678 9.45835ZM38.549 11.6647C37.7384 11.6725 37.0495 12.1378 36.4823 13.0607C36.2721 13.3827 36.0764 14.1099 35.8953 15.2424C38.8818 15.2137 40.368 14.4633 40.3539 12.9914C40.3452 12.0954 39.7436 11.6532 38.549 11.6647ZM48.5693 3.95194C48.9532 3.94824 49.3176 4.12608 49.6624 4.48544C50.0073 4.84481 50.1816 5.22715 50.1855 5.63246C50.1892 6.01644 50.001 6.41294 49.6209 6.82195C49.2622 7.23075 48.8801 7.43711 48.4748 7.44101C48.0695 7.44491 47.6946 7.27784 47.35 6.93981C47.0267 6.60157 46.8625 6.1658 46.8574 5.63249C46.8475 4.60853 47.3968 4.04856 48.5053 3.95255C48.5266 3.95235 48.5479 3.95214 48.5693 3.95194ZM50.0745 20.7062L50.1281 22.9458C50.132 23.3511 49.9753 23.694 49.658 23.9744C49.3404 24.2335 49.0004 24.3647 48.6377 24.3682C48.1044 24.3734 47.8245 24.1094 47.7981 23.5763C47.4552 16.7739 47.2804 13.0101 47.2734 12.2848C47.2664 11.5595 47.2899 10.6739 47.3438 9.62799C47.3828 9.2436 47.6263 9.04925 48.0742 9.04494C49.2049 9.03406 49.8492 9.48654 50.0074 10.4024C50.0759 10.8711 50.1115 11.2441 50.1142 11.5214L50.0056 13.5386L50.0745 20.7062ZM55.6321 24.1409C55.0775 24.1462 54.7438 23.8401 54.6312 23.2225C54.5897 18.9134 54.2968 15.076 53.7524 11.7104C53.7483 11.2838 53.8939 10.8984 54.1893 10.5542C54.506 10.2098 54.8563 10.0357 55.2403 10.032C55.6456 10.0281 55.9464 10.2492 56.1427 10.6954C56.922 9.6425 57.9729 9.10969 59.2955 9.09697C60.9808 9.08075 62.2898 9.87886 63.2227 11.4913C64.2746 9.9451 65.6751 9.16358 67.4244 9.14675C69.195 9.12971 70.5243 9.82095 71.4125 11.2205C71.9969 12.0896 72.4133 13.2376 72.6617 14.6646C72.9101 16.0916 73.0469 18.1171 73.0722 20.7409C73.082 21.7649 72.9831 22.5659 72.7753 23.1439C72.5673 23.7006 72.122 23.9822 71.4394 23.9888C70.8847 23.9941 70.604 23.6448 70.5972 22.9409L70.6548 18.9401C70.6086 14.1403 69.3375 11.7525 66.8416 11.7765C66.0523 11.7841 65.5004 12.0667 65.1857 12.6245C64.8294 13.2892 64.6228 13.9846 64.5658 14.7105C64.4928 15.9913 64.4613 17.1543 64.4713 18.1996L64.516 22.8394C64.5193 23.1807 64.3514 23.4703 64.0123 23.7083C63.6733 23.9462 63.3224 24.0669 62.9598 24.0704C62.4904 24.0749 62.1888 23.7685 62.0549 23.1511L62.0871 16.5264C62.0645 14.1799 61.6558 12.7224 60.861 12.154C60.4743 11.8804 59.8864 11.7474 59.0971 11.755C58.3291 11.7624 57.7559 12.0559 57.3775 12.6356C57.0204 13.215 56.848 14.1447 56.8603 15.4247L57.1095 21.3746C57.1272 23.2091 56.6347 24.1313 55.6321 24.1409ZM84.3407 8.88797C85.2793 8.87894 85.7563 9.67438 85.7717 11.2743C85.7733 11.445 85.7751 11.6263 85.7769 11.8183L85.7345 14.0588C85.7199 14.763 85.7159 15.4564 85.7225 16.139L86.2721 23.3661C86.2772 23.8994 85.7358 24.1713 84.6478 24.1817C84.5838 24.1823 84.4238 24.1839 84.1679 24.1863C83.9332 24.1886 83.7616 24.0942 83.6531 23.9033C83.5659 23.7121 83.553 23.4776 83.6143 23.1996C83.697 22.9215 83.6727 22.6124 83.5414 22.2723C82.5702 23.327 81.2739 23.8622 79.6527 23.8778C76.6448 23.9067 75.1185 21.596 75.0738 16.9455C75.0489 14.3643 75.5101 12.4078 76.4573 11.0759C77.4259 9.74388 78.8168 9.06913 80.6301 9.05168C81.4834 9.04347 82.3381 9.18458 83.1943 9.47503C83.4679 9.08838 83.85 8.89269 84.3407 8.88797ZM81.0408 11.8319C79.8249 11.8436 78.9217 12.2043 78.3311 12.914C77.7406 13.6237 77.4544 14.9172 77.4724 16.7944C77.5028 19.9516 78.3713 21.522 80.0779 21.5056C80.5258 21.5013 81.0145 21.2939 81.544 20.8834C82.0947 20.4728 82.4743 20.0104 82.6827 19.4964C83.0769 18.3406 83.2674 17.08 83.2543 15.7147C83.2412 14.3495 83.061 13.3592 82.7137 12.7438C82.3877 12.1282 81.8301 11.8243 81.0408 11.8319ZM89.2939 22.793L88.8169 9.80494C88.813 9.39962 88.9485 9.06764 89.2234 8.80898C89.4982 8.55033 89.7743 8.41966 90.0516 8.41699C90.7343 8.41043 91.1317 8.69462 91.2439 9.26956C91.3348 9.84471 91.3832 10.4416 91.3891 11.0602C92.5265 9.53457 93.9592 8.76341 95.6871 8.74679C98.3323 8.72133 99.6839 11.7271 99.742 17.7642C99.7474 18.3188 99.7555 19.1615 99.7664 20.2921C99.777 21.4014 99.7208 22.2126 99.5978 22.7258C99.4546 23.3672 98.999 23.6916 98.2311 23.699C97.7191 23.7039 97.4598 23.3651 97.4532 22.6824L97.468 20.8902C97.4442 18.4157 97.3426 16.7312 97.1634 15.8369C97.0052 14.9211 96.8489 14.1972 96.6944 13.6653C96.3207 12.5169 95.7285 11.9465 94.9179 11.9543C93.8513 11.9646 93.1083 12.3558 92.6891 13.1278C92.2278 13.9643 91.9599 14.9483 91.8855 16.0797C91.7552 18.065 91.7008 20.167 91.7221 22.3856C91.7262 22.8122 91.5695 23.1551 91.252 23.4141C90.9345 23.6732 90.5517 23.8049 90.1038 23.8092C89.5704 23.8143 89.3005 23.4756 89.2939 22.793ZM110.059 8.60849L109.968 2.43308C109.957 1.28114 110.314 0.701673 111.039 0.694694C111.786 0.687509 112.205 1.00349 112.296 1.64264C112.342 1.91955 112.411 3.59363 112.505 6.66487C112.598 9.73611 112.722 12.6151 112.876 15.3017C113.051 17.9881 113.15 20.494 113.172 22.8192C113.178 23.4592 112.701 23.7838 111.741 23.793C111.101 23.7992 110.777 23.3543 110.768 22.4583C109.858 23.1924 108.774 23.5656 107.515 23.5777C105.915 23.5931 104.608 23.0083 103.594 21.8233C102.601 20.6381 102.096 19.1709 102.08 17.4217C102.063 15.6724 102.399 14.0371 103.088 12.5157C103.799 10.9728 104.908 9.86344 106.417 9.18756C107.351 8.77322 108.256 8.56184 109.131 8.55342C109.451 8.55034 109.76 8.5687 110.059 8.60849ZM110.261 12.9907C110.107 12.5229 109.923 12.1726 109.707 11.94C109.491 11.6861 109.255 11.539 108.999 11.4988C108.764 11.4371 108.475 11.4079 108.134 11.4111C107.793 11.4144 107.378 11.5464 106.89 11.8071C106.402 12.0678 105.99 12.4878 105.654 13.0671C104.982 14.2256 104.653 15.4448 104.665 16.7248C104.677 17.9834 104.932 19.0156 105.431 19.8215C105.95 20.6059 106.669 20.9937 107.586 20.9849C108.525 20.9758 109.256 20.5101 109.781 19.5877C110.305 18.6653 110.561 17.4894 110.547 16.0601C110.531 14.4602 110.436 13.4371 110.261 12.9907ZM120.544 8.5716C122.08 8.55682 123.346 9.28068 124.341 10.7432C125.358 12.2054 125.876 13.9712 125.896 16.0404C125.916 18.0884 125.421 19.8425 124.411 21.303C123.422 22.7632 122.085 23.5015 120.4 23.5177C118.736 23.5337 117.385 22.8107 116.347 21.3486C115.308 19.8652 114.781 18.2168 114.763 16.4036C114.741 14.0784 115.192 12.2179 116.117 10.8223C117.106 9.34072 118.581 8.59049 120.544 8.5716ZM120.185 11.1992C119.289 11.2078 118.558 11.6842 117.991 12.6284C117.424 13.5725 117.146 14.5672 117.156 15.6125C117.171 17.2338 117.503 18.468 118.151 19.3151C118.799 20.1623 119.529 20.5819 120.34 20.5741C121.79 20.5602 122.712 19.9219 123.105 18.6594C123.27 18.0605 123.348 17.313 123.34 16.4171C123.306 12.9186 122.255 11.1793 120.185 11.1992ZM52.7358 63.8746C52.5653 61.6788 52.4621 58.7143 52.4262 54.9812C52.3901 51.2267 52.42 48.7943 52.516 47.684C52.6161 47.0003 53.0811 46.5478 53.911 46.3265C54.7407 46.0838 55.8382 45.9559 57.2034 45.9428C59.2087 45.9235 60.8982 46.3446 62.2718 47.2061C63.6667 48.046 64.3722 49.3086 64.3884 50.9939C64.4017 52.3805 64.2209 53.545 63.846 54.4873C63.4708 55.4083 62.9974 56.0955 62.4257 56.549C61.4941 57.2834 60.111 57.6594 58.2764 57.677C57.4871 57.6846 56.4515 57.5879 55.1695 57.3869C55.3172 61.6523 55.3857 64.3398 55.3751 65.4493C55.3644 66.5588 54.9964 67.117 54.2711 67.124C53.8018 67.1285 53.5023 67.0461 53.3727 66.8766C53.2431 66.7072 53.1566 66.5907 53.1133 66.5271C53.0698 66.4422 53.026 66.3253 52.9819 66.1764C52.9378 66.0274 52.9047 65.9104 52.8826 65.8253C52.8602 65.7188 52.8374 65.5697 52.8143 65.3779C52.8124 65.1859 52.8003 65.0367 52.7779 64.9303C52.7535 64.6105 52.7395 64.2586 52.7358 63.8746ZM61.7334 51.1155C61.725 50.2408 61.2491 49.5627 60.3058 49.0811C59.3622 48.5782 58.3572 48.3318 57.2905 48.3421C56.2239 48.3523 55.4782 48.4555 55.0534 48.6516C54.9802 49.911 54.9487 51.0741 54.959 52.1407C54.969 53.186 55.0208 54.1348 55.1144 54.9873C55.691 55.0458 56.0861 55.0953 56.2999 55.1359C56.8551 55.1946 57.3247 55.2221 57.7087 55.2184C58.114 55.2145 58.3807 55.2119 58.5087 55.2107C58.6578 55.1879 58.9242 55.1533 59.3077 55.107C59.7124 55.0391 59.9995 54.9403 60.1689 54.8107C60.3383 54.681 60.55 54.5083 60.804 54.2925C61.0579 54.0768 61.2369 53.8297 61.3409 53.5513C61.6108 52.7807 61.7416 51.9687 61.7334 51.1155ZM76.3485 51.9669C77.2872 51.9578 77.7642 52.7533 77.7796 54.3532C77.7812 54.5239 77.783 54.7052 77.7848 54.8972L77.7424 57.1377C77.7278 57.8419 77.7238 58.5353 77.7304 59.2179L78.2799 66.4449C78.2851 66.9783 77.7437 67.2501 76.6557 67.2606C76.5917 67.2612 76.4317 67.2628 76.1757 67.2652C75.9411 67.2675 75.7695 67.1731 75.661 66.9822C75.5738 66.791 75.5609 66.5565 75.6222 66.2785C75.7049 66.0004 75.6806 65.6913 75.5493 65.3512C74.5781 66.4059 73.2818 66.9411 71.6606 66.9567C68.6527 66.9856 67.1264 64.6749 67.0817 60.0244C67.0568 57.4432 67.518 55.4867 68.4652 54.1548C69.4338 52.8228 70.8247 52.148 72.638 52.1306C73.4912 52.1224 74.346 52.2635 75.2021 52.5539C75.4758 52.1673 75.8579 51.9716 76.3485 51.9669ZM73.0487 54.9108C71.8328 54.9225 70.9295 55.2832 70.339 55.9929C69.7485 56.7026 69.4622 57.9961 69.4803 59.8733C69.5107 63.0305 70.3792 64.6009 72.0858 64.5845C72.5337 64.5802 73.0224 64.3728 73.5518 63.9623C74.1026 63.5517 74.4822 63.0893 74.6905 62.5753C75.0848 61.4195 75.2753 60.1589 75.2622 58.7936C75.2491 57.4284 75.0688 56.4381 74.7216 55.8227C74.3956 55.2071 73.838 54.9032 73.0487 54.9108ZM81.3018 65.8718L80.8248 52.8838C80.8209 52.4785 80.9564 52.1465 81.2313 51.8879C81.5061 51.6292 81.7822 51.4986 82.0595 51.4959C82.7422 51.4893 83.1396 51.7735 83.2518 52.3485C83.3427 52.9236 83.3911 53.5205 83.397 54.1391C84.5344 52.6135 85.967 51.8423 87.695 51.8257C90.3402 51.8002 91.6918 54.806 91.7499 60.8431C91.7553 61.3977 91.7634 62.2403 91.7742 63.371C91.7849 64.4802 91.7287 65.2915 91.6057 65.8047C91.4625 66.4461 91.0069 66.7705 90.239 66.7779C89.727 66.7828 89.4677 66.444 89.4611 65.7613L89.4759 63.9691C89.4521 61.4946 89.3505 59.8101 89.1713 58.9158C89.0131 57.9999 88.8568 57.2761 88.7023 56.7442C88.3286 55.5958 87.7364 55.0254 86.9258 55.0332C85.8592 55.0435 85.1162 55.4347 84.697 56.2067C84.2357 57.0432 83.9678 58.0272 83.8933 59.1586C83.7631 61.1439 83.7087 63.2459 83.73 65.4645C83.7341 65.8911 83.5774 66.234 83.2599 66.493C82.9424 66.7521 82.5596 66.8838 82.1116 66.8881C81.5783 66.8932 81.3084 66.5545 81.3018 65.8718ZM99.0287 51.8766C100.159 51.8657 101.24 52.186 102.27 52.8375C103.3 53.4889 103.82 54.3053 103.83 55.2866C103.839 56.2465 103.432 57.1892 102.609 58.1145C101.786 59.0184 100.682 59.5731 99.2968 59.7784C98.7003 59.8695 97.8047 59.9208 96.6101 59.9323C96.8622 61.7433 97.3324 62.9335 98.0206 63.5029C98.2361 63.7355 98.5253 63.85 98.8879 63.8465C100.211 63.8338 101.316 63.4072 102.204 62.5666C103.091 61.7047 103.727 61.2719 104.111 61.2682C104.282 61.2665 104.54 61.424 104.884 61.7407C105.228 62.0574 105.402 62.3545 105.405 62.6318C105.41 63.1864 104.746 63.9928 103.412 65.0511C102.819 65.5475 102.098 65.9704 101.248 66.3199C100.419 66.6479 99.6418 66.8154 98.9165 66.8224C97.0606 66.8403 95.6839 65.6588 94.7862 63.278C94.2174 61.8114 93.9245 60.1928 93.9075 58.4222C93.8904 56.6516 94.2917 55.1224 95.1114 53.8344C95.931 52.5465 97.2368 51.8939 99.0287 51.8766ZM99.21 54.083C98.3993 54.0908 97.7105 54.5561 97.1433 55.4789C96.9331 55.801 96.7374 56.5282 96.5563 57.6607C99.5428 57.6319 101.029 56.8816 101.015 55.4097C101.006 54.5137 100.405 54.0715 99.21 54.083ZM107.018 45.9115C107.074 45.1002 107.197 44.5764 107.387 44.3399C107.597 44.0818 107.927 43.9506 108.375 43.9463C109.292 43.9375 109.754 44.3064 109.762 45.053C109.767 45.629 109.728 47.1335 109.645 49.5664C109.583 51.9991 109.561 54.1754 109.58 56.0953C109.598 58.0152 109.688 59.5611 109.848 60.7329C110.124 62.7784 110.497 63.7988 110.966 63.7943C111.435 63.7898 111.784 63.4558 112.012 62.7922C112.117 62.5352 112.285 62.3096 112.518 62.1153C112.75 61.8997 113.048 61.7902 113.411 61.7867C114.157 61.7795 114.537 62.4052 114.549 63.6638C114.555 64.3465 114.189 65.0327 113.449 65.7225C112.73 66.3908 112.008 66.7284 111.282 66.7354C110.557 66.7424 109.969 66.6307 109.519 66.4004C109.09 66.1485 108.734 65.7786 108.452 65.2906C108.192 64.8024 107.974 64.3351 107.799 63.8888C107.645 63.4209 107.533 62.8566 107.462 62.196C107.324 61.1306 107.212 59.4249 107.125 57.079C107.06 54.7115 107.017 52.4611 106.996 50.3279C106.975 48.1733 106.983 46.7012 107.018 45.9115ZM124.596 51.5026C125.535 51.4936 126.012 52.289 126.027 53.8889C126.029 54.0596 126.031 54.2409 126.033 54.4329L125.99 56.6734C125.976 57.3776 125.972 58.071 125.978 58.7536L126.528 65.9807C126.533 66.514 125.991 66.7859 124.903 66.7963C124.839 66.797 124.679 66.7985 124.424 66.801C124.189 66.8032 124.017 66.7089 123.909 66.5179C123.822 66.3267 123.809 66.0922 123.87 65.8142C123.953 65.5361 123.928 65.227 123.797 64.8869C122.826 65.9416 121.53 66.4768 119.908 66.4924C116.9 66.5213 115.374 64.2106 115.329 59.5601C115.305 56.9789 115.766 55.0224 116.713 53.6906C117.682 52.3585 119.072 51.6838 120.886 51.6663C121.739 51.6581 122.594 51.7992 123.45 52.0897C123.724 51.703 124.106 51.5073 124.596 51.5026ZM121.296 54.4465C120.081 54.4582 119.177 54.8189 118.587 55.5286C117.996 56.2383 117.71 57.5318 117.728 59.409C117.758 62.5662 118.627 64.1366 120.334 64.1202C120.782 64.1159 121.27 63.9085 121.8 63.4981C122.35 63.0874 122.73 62.6251 122.938 62.111C123.333 60.9552 123.523 59.6946 123.51 58.3294C123.497 56.9641 123.317 55.9738 122.969 55.3584C122.643 54.7429 122.086 54.4389 121.296 54.4465Z" fill="black"/>
</svg>
