<svg width="95" height="95" viewBox="0 0 95 95" fill="none" xmlns="http://www.w3.org/2000/svg">
<path d="M89.3 0H5.60004C2.50004 0 0 2.49998 0 5.59998V89.3C0 92.4 2.50004 94.9 5.60004 94.9H89.3C92.4 94.9 94.9 92.4 94.9 89.3V5.59998C94.9 2.49998 92.4 0 89.3 0ZM22.6 10.7C23.5 10.2 24.7 10.4 25.3 11.3L37.7 30.3L45.8 42.5L41.7 48.6L39.3 43.7L38.2 44.4C34.8 46.4 30.4 44.8 28.9 41.1L20 18.2C18.9 15.5 20 12.3 22.6 10.7ZM66.2 83.5L65.7 83.8C63 85.4 59.5 84.3 58.1 81.5L48.9 63L53.4 53.8L68 75.8C69.7 78.4 68.9 81.9 66.2 83.5ZM75 19.2L66.2 35.3L65 37.4C63.8 39.5 61.8 41.1 59.8 41.6L55.6 42.7L36.8 81.4C35.4 84.2 31.9 85.3 29.2 83.7L28.7 83.4C26 81.8 25.2 78.3 26.9 75.7L51 40.1L49.8 35.9C49.2 33.9 49.6 31.5 50.9 29.3L52.1 27.2L61.7 11.5C62.1 10.9 62.9 10.5 63.6 10.8C64.6 11.1 65 12.2 64.5 13.1C64.5 13.1 58 25 56.1 28.4C55.8 28.9 56 29.5 56.5 29.8C57 30.1 57.6 29.9 57.9 29.4L66.9 14.6C67.3 14 68.1 13.6 68.8 13.9C69.8 14.2 70.2 15.3 69.7 16.2C69.7 16.2 63.2 28.1 61.3 31.5C61 32 61.2 32.6 61.7 32.9C62.2 33.2 62.8 33 63.1 32.5C65.1 29.2 72.1 17.6 72.1 17.6C72.6 16.8 73.8 16.5 74.6 17.2C75.3 17.7 75.4 18.5 75 19.2Z" fill="black"/>
</svg>
