<svg width="89" height="89" viewBox="0 0 89 89" fill="none" xmlns="http://www.w3.org/2000/svg">
<path d="M35.9 0C55.7 0 71.8 16.1 71.8 35.9C71.8 55.7 55.7 71.8 35.9 71.8C16.1 71.8 1.52588e-05 55.8 1.52588e-05 35.9C1.52588e-05 16 16.1 0 35.9 0ZM35.9 61.9C50.2 61.9 61.8 50.3 61.8 36C61.8 21.7 50.2 10.1 35.9 10.1C21.6 10.1 10 21.6 10 35.9C10 50.2 21.6 61.9 35.9 61.9Z" fill="black"/>
<path d="M71.1 64L86.7 79.6C88.7 81.6 88.7 84.7 86.7 86.7C85.7 87.7 84.4 88.2 83.2 88.2C82 88.2 80.6 87.7 79.7 86.7L64 71C62 69 62 65.9 64 63.9C66 62 69.1 62 71.1 64Z" fill="black"/>
</svg>
