<svg width="131" height="132" viewBox="0 0 131 132" fill="none" xmlns="http://www.w3.org/2000/svg">
<path d="M32.1852 96.3886C31.7014 95.6882 31.1206 95.012 30.5886 94.1184C29.791 92.5725 29.4056 91.0266 29.0931 89.3598C28.9011 88.1762 29.8239 87.3303 31.0117 87.5474C31.8843 87.7403 32.7816 87.6193 33.7519 87.3774C31.4568 82.305 31.7333 76.3863 35.5958 72.0367C36.4705 70.9976 38.2391 71.8909 38.2371 73.1229C38.2075 76.3117 39.2454 79.2344 41.8123 81.2628C42.8294 82.0355 43.8465 82.8083 45.1554 83.0977C47.7491 83.58 49.3986 83.1688 49.6435 81.6709C48.4323 80.9466 48.9209 78.7723 50.4968 78.8925C56.0489 79.2531 60.8929 82.561 60.8834 88.3105C68.9369 86.3028 77.1357 84.4641 85.2373 82.6496C87.3961 82.2141 88.5564 84.3879 88.0203 85.9583C88.7196 88.3497 87.8168 91.7562 85.2458 92.1919C83.16 92.5066 81.5414 88.9077 80.4679 92.8699C80.0778 94.1987 80.5361 95.6238 79.3463 96.6388C78.5205 97.4605 77.138 97.7025 76.0961 97.2438C74.5939 96.5921 74.6936 94.9252 73.6524 94.0558C72.9016 93.5246 70.5722 94.5159 69.3844 94.2988C67.8574 93.9611 67.3984 92.9467 66.7453 91.9806C61.8938 93.19 43.555 97.7619 39.2857 98.8262C37.9273 99.1649 35.0164 99.8906 34.9434 100.011C35.0157 100.301 35.6895 103.417 38.692 105.953C41.6945 108.488 45.6246 107.303 49.0206 106.457C56.0068 104.715 77.2564 99.4176 80.9436 98.4984C83.8545 97.7727 86.7165 97.2645 88.2971 94.51C90.2425 91.1515 89.7642 87.1656 89.3821 83.5663C89.0704 81.4888 91.7872 80.8115 92.4871 82.7922C92.7046 83.2511 92.8491 83.8309 92.9695 84.314C94.1339 84.0237 95.4194 83.8058 96.6808 83.4914C96.6821 82.67 97.0957 81.8485 97.9215 81.0269C99.4271 79.6253 102.12 78.8513 104.133 78.2467C106.996 77.3278 112.647 76.4321 114.95 76.987C117.713 77.7349 118.846 81.4548 116.393 84.0163C114.669 85.7804 112.413 86.2402 110.084 86.8207C107.561 87.4496 104.845 88.1269 102.298 88.2486C100.868 88.2974 99.3654 87.6456 98.2031 86.7038C96.7717 87.1633 95.2433 87.647 93.6908 88.034C94.0722 92.044 93.1439 96.1753 90.0597 99.0994C86.8295 102.265 81.5912 102.75 77.3219 103.814C68.5892 105.991 59.9046 108.362 51.0749 110.563C47.3877 111.482 43.4577 112.667 39.7498 111.436C35.3876 110.061 32.9692 106.148 31.1572 102.187C29.9976 99.6023 29.2736 97.525 32.1852 96.3886ZM74.7961 91.6155C75.4498 92.171 75.6666 93.0406 75.9564 93.7893C76.2461 94.5381 76.7278 96.4706 78.2576 95.1656C78.6705 94.7548 78.6243 93.3295 78.6739 92.7014C78.8465 90.9136 79.141 88.7877 81.4691 88.6178C82.5846 88.545 83.0925 89.342 83.9892 89.6316C85.2981 89.9211 85.6153 88.7131 85.6902 87.3602C80.1354 88.6424 74.5806 89.9246 69.0499 91.3034C70.1152 92.2693 73.6819 90.867 74.7961 91.6155ZM102.765 84.7456C104.996 84.5999 107.325 84.0193 109.459 83.4872C110.721 83.1727 112.734 82.9788 113.705 81.9155C114.677 80.8523 114.193 80.1519 113.369 79.7415C111.721 79.3313 101.534 81.4605 100.561 82.9345C99.4919 84.4326 101.334 84.7944 102.765 84.7456ZM35.509 95.2521C37.5225 94.6475 39.4391 94.0671 41.3797 93.5833C46.6441 91.963 52.0537 90.5118 57.3903 89.1814C57.1976 88.4084 57.2719 87.4662 56.9822 86.7174C56.3546 85.0266 54.9507 83.5293 53.2791 82.6119C53.3025 83.1192 53.1078 83.5782 52.9371 84.1339C51.7205 86.695 48.6162 87.0584 46.1678 86.7452C41.0526 86.0704 37.3 82.593 35.8527 78.0277C35.0228 81.3134 36.0352 84.9608 37.9945 87.8591C38.6476 88.8252 37.9663 90.2266 36.8749 90.396C35.3954 90.6622 34.0128 90.9043 32.5581 90.8564C33.0887 92.5715 34.2737 94.4312 35.509 95.2521Z" fill="white"/>
<path d="M125.797 51.1044C120.297 53.4044 112.097 57.7044 114.397 65.1044C114.497 65.4044 114.697 65.5044 114.997 65.6044C114.797 66.1044 114.697 66.7044 114.597 67.2044C114.297 69.9044 116.697 70.2044 118.697 69.7044C121.597 69.0044 124.197 67.1044 125.697 64.5044C127.797 61.0044 127.097 56.9044 127.797 53.1044C127.997 52.0044 126.997 50.6044 125.797 51.1044ZM123.297 61.3044C122.497 63.5044 120.597 65.4044 118.297 66.1044C118.697 65.4044 119.197 64.5044 119.297 64.3044C119.997 63.1044 120.897 62.1044 121.997 61.1044C123.497 59.8044 121.297 57.6044 119.797 58.9044C118.497 60.1044 116.897 61.9044 115.797 63.7044C116.097 58.8044 119.697 55.9044 124.197 54.6044C123.997 57.0044 124.097 59.2044 123.297 61.3044Z" fill="white"/>
<path d="M93.2752 125.638C91.1752 125.338 88.9752 125.238 86.8752 125.238C87.7752 123.738 88.0752 121.938 87.8752 120.238C87.6752 118.838 87.2753 117.638 86.4753 116.538C85.5753 115.238 83.6753 114.038 83.1753 112.638C82.8753 111.838 81.7753 111.738 81.4753 112.638C80.1753 116.638 76.0753 121.638 77.6753 125.538C76.2753 125.538 74.7752 125.538 73.3752 125.538C74.3752 124.038 74.7753 122.038 74.5753 120.238C74.3753 118.838 73.9752 117.638 73.1752 116.538C72.2752 115.238 70.3752 114.038 69.8752 112.638C69.5752 111.838 68.4753 111.738 68.1753 112.638C66.8753 116.638 62.6752 121.638 64.3752 125.638C62.8752 125.638 61.4753 125.638 59.9753 125.638C60.9753 124.138 61.3753 122.138 61.1753 120.338C60.9753 118.938 60.5753 117.738 59.7753 116.638C58.8753 115.338 56.9753 114.138 56.4753 112.738C56.1753 111.938 55.0753 111.838 54.7753 112.738C53.4753 116.738 49.2753 121.838 50.9753 125.738C48.2753 125.838 45.5752 125.938 42.8752 126.238C40.3752 126.538 40.3752 129.938 42.8752 130.238C51.2752 131.138 89.1752 131.438 93.3752 130.738C95.6752 130.038 95.6752 126.038 93.2752 125.638ZM56.0753 125.138C55.9753 125.238 55.9753 125.438 55.9753 125.538C55.7753 125.538 54.9753 125.338 54.7753 125.338C51.1753 124.738 54.4753 119.238 55.2753 117.638C55.7753 116.738 56.0753 115.838 56.2753 114.938C56.9753 116.238 57.3753 117.938 57.5753 119.138C57.9753 121.538 56.9753 123.038 56.0753 125.138ZM69.4753 125.138C69.3753 125.238 69.3752 125.438 69.3752 125.538C69.1752 125.538 68.3753 125.338 68.1753 125.338C64.5753 124.738 67.8753 119.238 68.6753 117.638C69.1753 116.738 69.4753 115.838 69.6753 114.938C70.3753 116.238 70.7753 117.938 70.9753 119.138C71.3753 121.538 70.3753 123.038 69.4753 125.138ZM82.8752 125.138C82.8752 125.238 82.7752 125.338 82.7752 125.438C82.4752 125.438 81.6753 125.338 81.5753 125.338C77.9753 124.738 81.2753 119.238 82.0753 117.638C82.5753 116.738 82.8753 115.838 83.0753 114.938C83.7753 116.238 84.1752 117.938 84.3752 119.138C84.7752 121.538 83.7752 123.038 82.8752 125.138Z" fill="white"/>
<path d="M74.4 47C73.2954 47 72.4 46.1046 72.4 45C72.4 43.8954 73.2954 43 74.4 43C75.5046 43 76.4 43.8954 76.4 45C76.4 46.1046 75.5046 47 74.4 47Z" fill="white"/>
<path d="M79.7 52.6C78.5954 52.6 77.7 51.7046 77.7 50.6C77.7 49.4954 78.5954 48.6 79.7 48.6C80.8046 48.6 81.7 49.4954 81.7 50.6C81.7 51.7046 80.8046 52.6 79.7 52.6Z" fill="white"/>
<path d="M77.5 58.6C76.3954 58.6 75.5 57.7046 75.5 56.6C75.5 55.4954 76.3954 54.6 77.5 54.6C78.6046 54.6 79.5 55.4954 79.5 56.6C79.5 57.7046 78.6046 58.6 77.5 58.6Z" fill="white"/>
<path d="M72 54.9C70.8954 54.9 70 54.0046 70 52.9C70 51.7954 70.8954 50.9 72 50.9C73.1046 50.9 74 51.7954 74 52.9C74 54.0046 73.1046 54.9 72 54.9Z" fill="white"/>
<path d="M82.0251 35.0082C82.1251 34.0082 82.7251 33.3082 83.4251 33.0082C90.6251 26.4082 93.9251 17.3082 98.5251 8.90816C100.225 5.70816 102.525 1.10816 106.425 0.408163C108.925 -0.0918368 111.825 0.00816327 114.325 0.00816327C116.825 0.00816327 117.825 1.30816 119.525 3.00816C121.325 4.90816 123.225 6.80816 125.325 8.40816C127.125 9.70816 128.325 10.7082 129.325 12.7082C131.125 16.4082 130.625 20.7082 128.625 24.3082C126.125 28.7082 121.925 30.2082 117.625 32.0082C114.625 33.2082 111.825 34.8082 109.025 36.2082C106.325 37.5082 102.925 38.7082 100.725 40.8082C98.9251 42.5082 97.8251 45.0082 95.3251 46.0082C93.2251 46.8082 90.8251 46.3082 88.8251 45.4082C84.1251 43.5082 81.7251 39.9082 82.0251 35.0082ZM92.7251 41.9082C94.2251 41.7082 94.7251 40.4082 95.6251 39.4082C95.9251 39.0082 96.2251 38.7082 96.6251 38.4082C94.7251 36.4082 92.7251 34.5082 91.1251 32.3082C90.1251 31.0082 92.1251 29.8082 93.2251 30.7082C95.3251 32.5082 97.4251 34.3082 99.4251 36.2082C102.325 34.3082 105.725 33.2082 108.825 31.8082C111.325 30.7082 113.825 29.5082 116.425 28.4082C119.025 27.3082 121.925 26.5082 123.825 24.3082C125.625 22.2082 127.025 18.9082 126.325 16.1082C125.825 13.9082 124.525 12.9082 122.825 11.7082C120.825 10.2082 119.125 8.40816 117.525 6.50816C116.825 5.60816 116.025 4.10816 115.025 3.40816C113.725 2.50816 111.925 3.00816 110.425 3.00816C108.925 3.00816 106.925 2.80816 105.625 3.60816C104.425 4.30816 103.425 5.80816 102.625 6.90816C101.325 8.70816 100.125 10.5082 99.0251 12.5082C94.9251 19.7082 92.5251 28.6082 86.4251 34.6082C86.4251 34.7082 86.4251 34.9082 86.4251 35.0082C86.3251 37.6082 86.8251 39.1082 89.1251 40.6082C90.0251 41.2082 91.6251 42.1082 92.7251 41.9082Z" fill="white"/>
<path d="M106.925 8.00817C107.125 6.90817 108.325 5.90817 109.525 6.70817C114.125 9.90817 118.425 14.1082 121.525 18.8082C122.025 19.6082 121.725 20.9082 120.825 21.3082C116.525 23.4082 112.225 25.7082 108.025 28.0082C107.325 28.4082 106.325 28.3082 105.725 27.7082C103.725 25.7082 101.025 23.6082 99.6251 21.1082C99.3251 20.5082 99.3251 19.8082 99.6251 19.2082C102.025 15.4082 104.325 11.5082 106.925 8.00817ZM107.525 24.0082C110.725 22.3082 114.025 20.6082 117.325 19.0082C115.025 15.9082 112.125 13.1082 109.125 10.8082C107.425 14.0082 105.525 17.0082 103.625 20.1082C104.525 21.2082 106.225 22.8082 107.525 24.0082Z" fill="white"/>
<path d="M30.9902 39.5623C31.3902 38.9623 32.1902 38.7623 32.7902 39.3623C37.8902 44.2623 42.5902 49.9623 46.9902 55.4623C48.1902 55.8623 48.3902 57.9623 46.8902 58.2623C41.6902 59.1623 34.9902 60.2623 30.6902 55.9623C26.4902 51.4623 27.6902 44.0623 30.9902 39.5623ZM44.6902 55.7623C43.0902 54.2623 41.6902 52.6623 40.1902 51.0623C40.0902 51.6623 39.9902 52.2623 39.9902 52.8623C39.8902 53.9623 39.8902 55.3623 39.5902 56.4623C41.2902 56.4623 43.0902 56.1623 44.6902 55.7623ZM32.1902 41.9623C31.5902 43.0623 31.0902 44.4623 30.6902 45.7623C32.6902 45.8623 34.6902 46.1623 36.5902 46.8623C35.1902 45.1623 33.6902 43.5623 32.1902 41.9623ZM33.2902 54.8623C34.4902 55.6623 35.6902 56.0623 36.8902 56.3623C36.8902 55.1623 37.2902 53.7623 37.4902 52.6623C37.6902 51.6623 37.7902 50.6623 37.9902 49.6623C36.1902 51.2623 33.8902 52.4623 31.7902 53.6623C32.2902 54.0623 32.7902 54.4623 33.2902 54.8623ZM31.0902 52.1623C32.8902 50.7623 34.8902 49.3623 36.9902 48.3623C34.7902 48.0623 32.5902 47.9623 30.3902 47.7623C30.2902 49.3623 30.4902 50.8623 31.0902 52.1623Z" fill="white"/>
<path d="M62.9104 68.896C62.4104 70.696 60.5104 71.896 58.6104 71.296C56.5104 70.696 55.9104 68.496 56.0104 66.496C56.2104 64.096 58.4104 63.796 60.5104 64.096C63.4104 64.596 63.2104 67.696 62.9104 68.896ZM58.2104 66.996C57.8104 67.596 57.9104 68.396 58.0104 68.696C58.1104 69.196 58.8104 69.696 59.4104 69.796C60.6104 69.996 61.8104 68.796 61.6104 67.696C61.3104 66.196 58.9104 65.796 58.2104 66.996Z" fill="white"/>
<path d="M92.5058 58.6761C94.0058 58.0761 95.5058 58.1761 97.1058 58.2761C100.006 58.5761 102.406 58.3761 104.806 56.3761C105.906 55.4761 107.806 56.2761 107.306 57.8761C105.906 62.3761 103.606 66.8761 99.3058 69.3761C95.9058 71.3761 90.4058 72.2761 87.6058 68.9761C87.5058 68.8761 87.5058 68.7761 87.4058 68.6761C86.5058 68.5761 85.7058 67.9761 86.1058 66.9761C87.5058 63.6761 89.0058 60.0761 92.5058 58.6761ZM94.1058 68.3761C96.0058 68.1761 97.8058 67.3761 99.2058 66.0761C100.906 64.6761 102.106 62.7761 103.006 60.7761C101.806 61.1761 100.506 61.4761 99.1058 61.3761C97.1058 61.3761 95.1058 60.4761 93.1058 61.4761C92.0058 61.9761 91.3058 62.8761 90.6058 63.8761C92.5058 63.1761 94.5058 62.8761 96.7058 62.8761C98.8058 62.8761 98.5058 66.1761 96.3058 65.7761C93.7058 65.1761 91.2058 66.1761 89.2058 67.6761C90.9058 67.9761 92.4058 68.4761 94.1058 68.3761Z" fill="white"/>
<path d="M2.12783 68.4993C0.0278292 64.9993 0.727823 60.9993 0.0278229 57.0993C-0.172177 56.0993 0.727823 54.5993 2.02782 55.0993C7.52782 57.3993 15.7278 61.6993 13.4278 69.0993C13.3278 69.3993 13.1278 69.4993 12.8278 69.5993C13.0278 70.0993 13.1278 70.6993 13.2278 71.1993C13.5278 73.8993 11.1278 74.1993 9.12783 73.6993C6.22783 72.9993 3.62783 70.9993 2.12783 68.4993ZM8.02782 62.9993C9.32782 64.1993 10.9278 65.9993 12.0278 67.7993C11.7278 62.8993 8.12783 59.9993 3.62783 58.6993C3.82783 60.8993 3.72782 63.1993 4.52782 65.1993C5.32782 67.3993 7.22782 69.2993 9.52782 69.9993C9.12782 69.2993 8.62782 68.3993 8.52782 68.1993C7.82782 66.9993 6.92784 65.9993 5.82784 64.9993C4.32784 63.8993 6.52782 61.6993 8.02782 62.9993Z" fill="white"/>
</svg>
