<svg width="91" height="68" viewBox="0 0 91 68" fill="none" xmlns="http://www.w3.org/2000/svg">
<path d="M89.203 2.547C89.187 1.656 88.622 0.871 87.781 0.574C86.709 0.194 85.67 0 84.692 0C77.923 0 76.117 8.566 76.117 13.627V21.321C76.117 22.143 76.235 29.445 80.3 32.868C82.083 34.369 81.368 39.264 80.94 42.186C80.874 42.636 80.812 43.063 80.758 43.461C80.65 44.303 79.214 58.783 78.973 61.247C78.764 62.029 78.405 64.038 79.593 65.673C80.182 66.482 81.345 67.445 83.549 67.445C83.701 67.445 83.864 67.441 83.903 67.436L85.101 67.432C87.489 67.578 88.779 66.555 89.432 65.71C90.764 63.985 90.473 61.723 90.293 60.852L89.203 2.547ZM80.389 21.322V13.627C80.389 13.535 80.577 4.273 84.693 4.273C84.782 4.273 84.871 4.276 84.964 4.284L85.527 34.403C85.217 32.527 84.497 30.816 83.052 29.6C80.883 27.776 80.395 23.003 80.389 21.322ZM86.059 63.093C86.057 63.095 85.931 63.174 85.541 63.174L85.226 63.166L83.549 63.176C83.282 63.176 83.126 63.143 83.069 63.143C83.061 63.143 83.057 63.145 83.053 63.145C83.006 62.969 83.035 62.566 83.111 62.309C83.16 62.163 83.19 62.015 83.206 61.861C83.882 55.02 84.918 44.62 84.995 44.019C85.047 43.642 85.105 43.237 85.169 42.805C85.325 41.726 85.505 40.497 85.615 39.22L86.024 61.154C86.028 61.322 86.051 61.49 86.091 61.652C86.205 62.092 86.205 62.915 86.059 63.093Z" fill="black"/>
<path d="M2.297 60.8791C2.212 61.5071 1.988 64.07 3.603 65.862C4.27 66.602 5.473 67.4501 7.382 67.4481C7.513 67.4481 7.647 67.446 7.786 67.437L8.984 67.433C11.279 67.578 12.566 66.6271 13.235 65.8101C14.692 64.0391 14.327 61.576 14.16 60.793C13.851 56.691 12.474 38.377 12.36 37.509C11.97 34.556 11.24 29.055 13.139 26.59C15.853 23.062 16.406 16.78 16.459 16.076C16.463 16.022 16.465 15.9661 16.465 15.9121V2.58605C16.465 1.40805 15.509 0.45105 14.329 0.45105C13.15 0.45105 12.194 1.40805 12.194 2.58605V15.828C12.057 17.457 11.379 21.87 9.752 23.985C9.053 24.894 8.564 25.942 8.232 27.062C7.899 25.942 7.413 24.894 6.713 23.985C5.094 21.881 4.41 17.461 4.271 15.827V2.58605C4.271 1.40805 3.315 0.45105 2.135 0.45105C0.956 0.45105 0 1.40805 0 2.58605V15.913C0 15.967 0.00200001 16.023 0.00600001 16.077C0.06 16.781 0.612 23.0621 3.325 26.5911C5.226 29.0571 4.495 34.5571 4.103 37.5161C3.99 38.3831 2.593 56.9571 2.297 60.8791ZM6.532 61.458C6.542 61.396 6.548 61.335 6.555 61.272C7.117 53.777 7.934 43.0011 8.232 39.3221C8.533 43.0191 9.348 53.785 9.911 61.272C9.92 61.388 9.944 61.522 9.971 61.635C10.108 62.199 10.066 62.939 9.94 63.092C9.901 63.118 9.691 63.191 9.109 63.165L7.66 63.167C7.227 63.19 6.897 63.13 6.779 63.003C6.526 62.73 6.466 61.908 6.532 61.458Z" fill="black"/>
<path d="M6.095 2.58605V16.633C6.095 17.813 7.051 18.769 8.232 18.769C9.41 18.769 10.366 17.813 10.366 16.633V2.58605C10.366 1.40805 9.41 0.45105 8.232 0.45105C7.051 0.45105 6.095 1.40805 6.095 2.58605Z" fill="black"/>
<path d="M45.756 4.94495C29.022 4.94495 15.406 18.5599 15.406 35.2939C15.406 52.0309 29.021 65.6469 45.756 65.6469C62.493 65.6469 76.11 52.0319 76.11 35.2939C76.109 18.5599 62.493 4.94495 45.756 4.94495ZM45.756 61.533C31.29 61.533 19.521 49.7629 19.521 35.2939C19.521 20.8289 31.29 9.05895 45.756 9.05895C60.225 9.05895 71.995 20.8289 71.995 35.2939C71.995 49.7639 60.225 61.533 45.756 61.533Z" fill="black"/>
<path d="M55.925 15.508C55.224 15.322 54.478 15.525 53.962 16.036C51.787 18.189 49.034 18.666 46.119 19.172C42.362 19.824 38.104 20.563 35.385 25.185C31.423 31.912 33.496 37.972 35.573 40.928C34.151 43.632 33.059 46.586 32.667 49.69C32.524 50.817 33.322 51.846 34.45 51.987C34.537 51.999 34.624 52.005 34.711 52.005C35.731 52.005 36.616 51.246 36.747 50.207C38.136 39.262 50.323 29.714 50.447 29.618C51.345 28.923 51.511 27.632 50.816 26.734C50.121 25.835 48.832 25.672 47.933 26.362C47.585 26.632 42.318 30.748 38.035 36.89C37.144 34.806 36.511 31.381 38.93 27.272C40.684 24.289 43.392 23.82 46.823 23.225C49.153 22.821 51.703 22.378 54.1 21.037C54.861 25.179 55.621 32.69 52.341 37.197C50.591 39.6 47.901 40.829 44.112 40.946C42.978 40.983 42.086 41.931 42.122 43.067C42.157 44.18 43.071 45.059 44.176 45.059C44.197 45.059 44.22 45.059 44.241 45.057C49.316 44.899 53.163 43.065 55.673 39.608C61.535 31.537 57.554 17.518 57.382 16.926C57.183 16.229 56.626 15.691 55.925 15.508Z" fill="black"/>
</svg>
