<svg width="72" height="28" viewBox="0 0 72 28" fill="none" xmlns="http://www.w3.org/2000/svg">
<path d="M66.4 9.26247C66.5 8.86247 66.6 8.56247 66.6 8.16247C66.9 5.76247 66.3 3.66247 64.8 1.86247C64.7 1.76247 64.6 1.66247 64.6 1.66247L64.5 1.56247C62.3 -0.737529 58.1 -0.437529 54.2 2.06247C52 1.66247 49.1 2.36247 46.4 4.16247C45.4 4.06247 44.3 3.96247 43.2 3.86247C43.3 4.06247 43.4 4.16247 43.6 4.36247C43.4 4.46247 43.1 4.46247 42.9 4.56247C42.7 4.66247 42.4 4.66247 42.2 4.76247C42.1 4.66247 42.1 4.56247 42 4.46247C41.8 4.16247 41.5 3.96247 41.2 3.66247C40.6 3.16247 39.8 2.76247 38.9 2.56247C37.8 2.36247 36.8 2.46247 35.8 2.66247C34.8 2.86247 33.7 3.06247 32.5 2.76247C31.1 2.46247 30.1 2.06247 29.1 1.56247C28 1.16247 26.8 0.662473 25 0.162473C22.3 -0.537527 20 2.26247 19.3 4.36247C19.6 4.46247 19.9 4.56247 20.2 4.66247C20.7 4.86247 21.2 4.96247 21.7 5.16247C21.8 5.16247 22 5.26247 22.1 5.26247C23 5.46247 23.8 5.36247 24.8 5.16247C24.9 5.16247 25.1 5.16247 25.2 5.06247C24.8 5.06247 24.3 5.06247 23.9 4.76247C23.7 4.66247 23.4 4.46247 23.3 4.16247C23.3 4.16247 23.3 4.06247 23.2 4.06247C23 3.76247 23.2 3.26247 23.5 3.06247C23.8 2.86247 24.3 3.06247 24.5 3.36247C24.6 3.56247 24.7 3.56247 25.4 3.56247C25.8 3.56247 26.3 3.56247 26.8 3.66247C26.9 3.66247 27.1 3.76247 27.2 3.76247C27.6 3.86247 27.9 4.06247 28.2 4.26247C28.6 4.46247 28.9 4.66247 29.2 4.86247C29.5 5.06247 29.8 5.26247 29.8 5.36247C30.5 5.66247 31.1 6.16247 31.7 6.66247C32.1 7.06247 32.5 7.56247 32.8 8.06247C33 8.16247 33.2 8.26247 33.3 8.46247C33.4 8.66247 33.5 8.86247 33.5 9.06247C33.8 9.36247 34.2 9.56247 34.7 9.76247C34.5 10.0625 34.2 10.3625 34 10.6625C34 10.7625 34 10.8625 34.1 10.9625V11.0625C34.1 11.2625 34.2 11.4625 34.2 11.5625C34.2 11.6625 34.2 11.7625 34.2 11.7625C34.3 12.0625 34.3 12.3625 34.3 12.6625C34.6 12.1625 34.9 11.7625 35.2 11.2625C35.4 10.9625 35.6 10.6625 35.9 10.4625C36 10.2625 36.1 10.1625 36.3 9.96247C36.6 9.66247 36.9 9.26247 37.2 8.96247C38.9 7.36247 40.9 6.16247 42.7 5.56247C42.8 5.56247 42.8 5.56247 42.9 5.46247C43.1 5.36247 43.2 5.36247 43.4 5.36247C43.5 5.36247 43.5 5.36247 43.6 5.36247C43.8 5.36247 43.9 5.26247 44.1 5.26247C44.1 5.26247 44.1 5.26247 44.2 5.26247H44.3C44.7 5.16247 45.1 5.16247 45.4 5.16247C45.8 5.16247 46.1 5.16247 46.4 5.26247C47.1 5.46247 47.8 5.76247 48.3 6.26247C48.4 6.36247 48.4 6.36247 48.4 6.46247C48.5 6.56247 48.6 6.66247 48.6 6.76247C48.6 6.86247 48.7 6.86247 48.7 6.96247C48.8 7.16247 48.9 7.36247 48.9 7.56247C48.9 7.66247 48.9 7.66247 49 7.76247C49.1 8.06247 49.1 8.36247 49.1 8.66247V8.76247C49.1 10.1625 48.7 11.6625 47.8 13.2625C47.6 13.5625 47.4 13.9625 47.2 14.2625C47.1 14.3625 47 14.5625 46.9 14.6625C46.8 14.7625 46.7 14.8625 46.7 14.9625C46.5 15.1625 46.4 15.3625 46.2 15.5625C46 15.7625 45.8 16.0625 45.6 16.2625C45.4 16.5625 45.1 16.7625 44.9 17.0625C44.3 17.6625 43.7 18.1625 43 18.5625C42.7 18.7625 42.5 18.9625 42.2 19.0625C41.9 19.2625 41.7 19.3625 41.4 19.4625C41 19.6625 40.6 19.8625 40.1 20.0625C39.9 20.1625 39.6 20.2625 39.4 20.3625C39.2 20.4625 38.9 20.5625 38.7 20.5625C36.6 21.1625 34.7 20.9625 33.6 19.7625C33.4 19.5625 33.3 19.3625 33.1 19.1625C33 19.3625 32.8 19.5625 32.6 19.7625C32.5 19.8625 32.5 19.9625 32.4 19.9625C32.3 20.0625 32.2 20.1625 32.1 20.2625C32 20.3625 31.9 20.4625 31.8 20.5625C31.6 20.7625 31.4 20.8625 31.2 20.9625C31 21.0625 30.8 21.1625 30.5 21.2625C30.8 22.2625 31.3 23.1625 32 23.8625C34.8 26.5625 39.7 25.5625 43.4 23.1625C45.7 23.2625 48.2 22.4625 50.4 21.1625C53.3 21.5625 56.8 20.2625 59.5 18.2625C60.8 17.2625 64.2 13.9625 65.6 9.96247C68.5 11.5625 70.1 13.3625 70.1 15.0625C70.1 20.2625 56.2 25.7625 35.6 25.7625C15.3 26.4625 1.4 20.8625 1.4 15.7625C1.4 13.8625 3.2 11.9625 6.5 10.3625C6.5 10.0625 6.6 9.76247 6.7 9.46247C6.8 9.16247 6.8 8.86247 6.9 8.56247C2.6 10.5625 0 13.0625 0 15.7625C0 22.5625 15.8 27.8625 35.9 27.8625C56 27.8625 71.8 22.5625 71.8 15.7625C71.8 13.3625 69.8 11.1625 66.4 9.26247ZM37.6 6.06247C37.5 6.26247 37.2 6.36247 37 6.36247C35.5 6.16247 34.4 6.86247 34.1 7.26247C33.9 7.56247 33.4 7.66247 33.1 7.36247C32.9 7.26247 32.8 7.06247 32.8 6.86247C32.8 6.66247 32.8 6.56247 32.9 6.46247C33.3 5.86247 34.1 5.36247 35.2 5.16247C35.8 5.06247 36.4 4.96247 37 5.06247C37.1 5.06247 37.2 5.16247 37.3 5.16247C37.5 5.26247 37.6 5.56247 37.6 5.86247C37.7 5.86247 37.7 5.96247 37.6 6.06247ZM50.3 17.1625C50.1 17.3625 49.8 17.4625 49.6 17.5625C49.7 17.3625 49.8 17.1625 49.9 16.9625C50.7 15.5625 51.3 13.9625 51.5 12.3625C51.7 10.6625 51.4 8.96247 50.7 7.56247C50.6 7.46247 50.6 7.36247 50.5 7.26247C50.4 7.16247 50.4 7.06247 50.3 6.96247C50.2 6.86247 50.2 6.76247 50.1 6.66247C50.1 6.56247 50 6.56247 50 6.46247C50 6.46247 50 6.36247 49.9 6.36247C49.8 6.26247 49.8 6.16247 49.7 6.06247C49.7 6.06247 49.7 6.06247 49.6 5.96247L49.5 5.86247L49.4 5.76247C49.2 5.56247 48.9 5.36247 48.7 5.16247C48.5 5.06247 48.3 4.86247 48.1 4.76247C48.3 4.66247 48.6 4.56247 48.8 4.36247C50 3.76247 51.2 3.46247 52.3 3.36247C52.7 3.36247 53.1 3.36247 53.4 3.36247C53.7 3.36247 54.1 3.46247 54.4 3.56247C54.9 3.76247 55.4 4.06247 55.8 4.46247C55.9 4.56247 56 4.76247 56.2 4.96247C56.4 5.16247 56.5 5.46247 56.6 5.76247C56.7 5.96247 56.7 6.26247 56.8 6.56247C56.8 6.76247 56.8 7.06247 56.8 7.26247C56.7 9.66247 55.2 12.8625 52.5 15.4625C51.7 16.0625 51 16.6625 50.3 17.1625ZM63.8 8.06247C63.7 8.26247 63.6 8.46247 63.5 8.66247C63.4 8.86247 63.3 9.06247 63.2 9.26247C62.5 10.6625 61.4 12.1625 60 13.3625C58.9 14.3625 57.7 15.2625 56.6 15.8625C57.7 14.1625 58.6 12.1625 58.9 10.0625C59 9.26247 59 8.56247 58.9 7.76247C58.9 7.46247 58.8 7.26247 58.8 6.96247C58.7 6.66247 58.7 6.46247 58.6 6.16247C58.4 5.56247 58.1 4.96247 57.7 4.36247C57.5 4.16247 57.4 3.86247 57.2 3.66247C57.1 3.56247 57.1 3.56247 57 3.46247L56.9 3.36247C56.6 3.06247 56.3 2.86247 55.9 2.56247C58.9 0.962471 62 0.76247 63.5 2.36247C64.6 3.76247 64.6 5.86247 63.8 8.06247Z" fill="black"/>
<path d="M43.3 12.7625L43.6 12.9625L43.8 12.5625L44.2 11.7625L43.9 11.5625L43.3 11.2625L43 11.1625L42.4 12.3625L42.6 12.4625L43.3 12.7625Z" fill="black"/>
<path d="M40.9 11.1625H40.8L40.3 10.8625L39.7 12.0625L40.2 12.2625L40.3 12.3625L40.9 12.5625V12.6625L41.2 12.0625L41.4 11.6625L41.5 11.4625L40.9 11.1625Z" fill="black"/>
<path d="M39.3 13.9625L39.1 13.8625L38.8 13.6625H38.7L38.4 14.1625L38.1 14.8625H38.2L38.4 14.9625L38.9 15.2625H39.1L39.3 15.3625L39.7 14.6625V14.5625L39.9 14.2625L39.7 14.1625L39.5 14.0625L39.3 13.9625Z" fill="black"/>
<path d="M41.4 13.8625L40.9 14.8625V15.0625L42 15.6625L42.6 14.4625L42 14.1625L41.4 13.8625Z" fill="black"/>
<path d="M32.2 17.0625C32.1 17.2625 32 17.3625 31.8 17.5625C31.8 17.6625 31.7 17.7625 31.6 17.7625L31.5 17.8625C31.3 18.0625 31 18.2625 30.7 18.4625C29.9 19.0625 28.9 19.3625 27.8 19.4625C25.9 19.6625 23.6 18.9625 21.7 18.4625L19.8 17.9625L18.3 17.8625C16.7 17.8625 14.6 17.8625 11.3 16.6625C10.4 16.3625 9.70001 15.9625 9.10001 15.5625C9.30001 16.1625 9.50001 16.6625 9.60001 17.0625C10.1 17.5625 12.5 19.5625 15.3 19.4625H15.9C18 19.3625 19.7 19.2625 22.7 20.3625C25.2 21.2625 28.4 21.5625 30.7 20.3625C30.9 20.2625 31.2 20.0625 31.4 19.8625C31.5 19.7625 31.7 19.6625 31.8 19.5625C31.9 19.4625 32 19.3625 32.1 19.2625C32.2 19.1625 32.3 18.9625 32.4 18.8625C32.6 18.5625 32.7 18.1625 32.8 17.7625C32.9 17.5625 32.9 17.2625 33 17.0625C33 16.8625 33.1 16.5625 33.1 16.3625C33.1 16.1625 33.1 15.8625 33.1 15.6625C33.1 15.7625 33 15.7625 33 15.8625C32.9 15.9625 32.8 16.1625 32.8 16.2625C32.7 16.4625 32.5 16.6625 32.4 16.8625C32.3 16.9625 32.3 16.9625 32.2 17.0625Z" fill="black"/>
<path d="M11.7 15.4625C14.8 16.5625 16.8 16.5625 18.3 16.5625L20 16.6625L22.1 17.1625C23.9 17.6625 26.1 18.2625 27.7 18.0625C28.7 17.9625 29.5 17.5625 30.2 17.0625C30.4 16.8625 30.7 16.6625 30.9 16.4625C31.1 16.2625 31.2 16.0625 31.4 15.8625C31.5 15.6625 31.6 15.5625 31.7 15.3625C31.8 15.0625 31.9 14.7625 32.1 14.4625C32.1 14.3625 32.1 14.3625 32.1 14.2625C32.2 14.0625 32.3 13.7625 32.3 13.5625C32.4 13.3625 32.4 13.0625 32.4 12.8625V12.7625C32.6 11.7625 32.3 10.3625 31.6 9.16247C31.2 8.36247 30.5 7.66247 29.7 7.16247C29.2 6.86247 28.6 6.66247 28 6.46247C26.9 6.26247 25.9 6.36247 24.9 6.56247C23.9 6.76247 22.8 6.96247 21.6 6.66247C20.9 6.46247 20.3 6.36247 19.8 6.16247C19.4 6.06247 19.1 5.86247 18.7 5.76247C18.6 5.76247 18.6 5.66247 18.5 5.66247C18.4 5.56247 18.2 5.56247 18.1 5.46247H18C17.8 5.36247 17.6 5.26247 17.3 5.16247H17.2C16.3 4.86247 15.3 4.46247 13.9 4.06247C11.7 3.66247 9.60001 5.76247 8.70001 7.76247C8.60001 8.06247 8.50001 8.26247 8.40001 8.56247V8.66247C8.30001 8.96247 8.20001 9.26247 8.20001 9.56247C7.90001 10.8625 7.90001 12.0625 8.40001 13.0625C8.80001 14.0625 9.80001 14.8625 11.7 15.4625ZM22.1 9.96247C22.7 9.16247 24.3 8.36247 26.2 8.56247C26.6 8.56247 26.9 8.96247 26.8 9.36247C26.8 9.76247 26.4 10.0625 26 9.96247C24.7 9.86247 23.7 10.2625 23.3 10.6625C23.2 10.6625 23.2 10.7625 23.2 10.7625C23 11.0625 22.5 11.1625 22.2 10.8625L22.1 10.7625C21.9 10.5625 21.9 10.1625 22.1 9.96247ZM21.2 12.5625C21.6 12.3625 22 12.4625 22.2 12.8625C22.2 12.8625 22.2 12.9625 22.3 12.9625C22.6 13.4625 23.2 14.0625 24.3 14.3625L25.7 14.5625C26.6 14.5625 27.5 14.6625 28 15.3625C28 15.4625 28.1 15.5625 28.1 15.6625C28.1 15.8625 28.1 16.0625 27.9 16.2625C27.6 16.4625 27.1 16.3625 26.9 16.2625C26.8 16.1625 26.1 16.0625 25.7 16.0625L24 15.8625C22.9 15.5625 22 14.9625 21.5 14.3625C21.3 14.1625 21.1 13.8625 21 13.6625C20.7 13.1625 20.9 12.7625 21.2 12.5625ZM13.3 7.76247C13.4 7.66247 13.4 7.56247 13.5 7.56247C13.7 7.46247 13.9 7.46247 14.1 7.56247C14.3 7.66247 14.4 7.76247 14.5 7.86247C14.7 8.26247 15.2 8.36247 16 8.66247L17.2 9.06247C17.3 9.16247 17.5 9.16247 17.6 9.26247C17.9 9.46247 18.2 9.56247 18.4 9.76247C18.6 9.86247 18.7 10.0625 18.9 10.1625C19.1 10.3625 19.3 10.5625 19.4 10.6625C19.5 10.7625 19.5 10.7625 19.5 10.8625C19.6 10.9625 19.6 11.0625 19.7 11.0625C19.8 11.1625 19.8 11.1625 19.8 11.2625C19.8 11.4625 19.8 11.6625 19.7 11.7625C19.7 11.8625 19.6 11.8625 19.5 11.9625C19.4 12.0625 19.2 12.0625 19.1 12.0625C18.9 12.0625 18.7 11.9625 18.5 11.7625C18.5 11.7625 18.4 11.5625 18.2 11.3625L18.1 11.2625C17.8 10.9625 17.3 10.4625 16.6 10.2625L15.6 10.0625C14.7 9.76247 13.7 9.56247 13.2 8.56247C13.1 8.26247 13.1 7.96247 13.3 7.76247Z" fill="black"/>
</svg>
