<svg width="90" height="90" viewBox="0 0 90 90" fill="none" xmlns="http://www.w3.org/2000/svg">
<path d="M0.762992 80.0255C4.66299 80.6255 8.56299 80.9255 12.463 80.9255C13.263 82.4255 14.363 83.7255 15.363 85.1255C16.263 86.4255 16.763 88.1255 18.263 88.8255C19.863 89.5255 22.563 89.0255 24.263 89.0255C31.263 89.0255 38.263 89.0255 45.263 89.1255C51.563 89.2255 57.963 89.3255 64.263 89.5255C67.063 89.6255 69.463 89.6255 71.563 87.5255C73.463 85.6255 74.963 83.3255 76.463 81.1255C79.763 81.1255 82.963 81.1255 86.263 81.1255C88.263 81.1255 88.263 78.1255 86.263 78.0255C61.463 76.6255 4.26299 77.0255 0.662992 78.1255C-0.137008 78.3255 -0.337008 79.8255 0.762992 80.0255ZM26.663 80.8255C40.363 80.8255 54.163 80.9255 67.863 81.0255C69.163 81.0255 70.363 81.0255 71.663 81.0255C70.763 82.3255 69.763 83.6255 68.663 84.5255C67.163 85.8255 64.763 85.2255 62.863 85.2255C57.063 85.0255 51.163 85.0255 45.363 84.9255C39.063 84.9255 32.763 84.8255 26.463 85.0255C24.563 85.1255 22.163 85.7255 20.363 85.4255C19.163 85.2255 18.763 84.1255 17.963 83.1255C17.363 82.4255 16.763 81.7255 16.063 80.9255C19.663 80.9255 23.163 80.8255 26.663 80.8255Z" fill="black"/>
<path d="M71.663 27.1254C58.263 18.2254 37.463 17.5254 26.663 30.7254C24.163 33.7254 28.563 38.1254 30.963 35.0254C38.763 25.3254 51.963 24.7254 62.963 29.0254C68.963 31.3254 75.763 35.3254 79.363 40.9254C82.263 45.5254 85.363 50.8254 84.863 56.4254C84.263 62.9254 78.063 67.3254 72.163 68.7254C65.263 70.3254 57.963 69.8254 51.063 68.7254C46.063 67.8254 39.563 67.0254 35.963 62.9254C33.363 59.9254 32.363 55.8254 32.263 51.9254C32.163 49.7254 32.363 48.2254 34.563 47.5254C35.963 47.0254 37.463 46.6254 38.863 46.2254C45.863 44.3254 55.863 42.9254 59.263 51.3254C59.763 52.6254 61.663 52.5254 61.763 51.0254C62.063 43.0254 52.963 40.2254 46.463 40.4254C42.563 40.5254 38.663 41.3254 34.963 42.3254C33.763 42.6254 32.563 43.0254 31.463 43.5254H31.363C29.963 43.2254 28.763 42.4254 27.563 41.6254C26.063 40.6254 23.763 39.3254 22.563 37.9254C21.463 36.6254 21.163 34.5254 20.163 33.1254C19.263 31.7254 17.963 30.5254 16.463 29.7254C13.863 28.4254 10.763 28.5254 8.36298 30.1254C6.86298 31.1254 5.76298 32.8254 5.66298 34.5254C3.96298 34.9254 2.46298 35.8254 1.56298 37.6254C-0.137016 41.1254 2.06298 45.2254 5.26298 46.7254C7.36298 47.7254 9.66298 47.7254 11.963 47.4254C15.163 47.0254 16.863 47.0254 19.363 49.2254C21.363 50.9254 24.563 54.6254 27.663 55.7254C28.563 60.4254 30.863 65.0254 34.163 67.8254C31.263 67.6254 28.463 67.2254 25.663 66.4254C22.563 65.5254 20.163 63.7254 18.463 60.9254C16.863 58.2254 16.463 55.0254 14.963 52.3254C14.563 51.6254 13.363 51.5254 12.963 52.3254C11.563 55.3254 12.563 59.6254 13.863 62.6254C15.463 66.3254 18.063 69.2254 21.863 70.8254C28.463 73.6254 37.563 74.5254 44.563 72.8254C44.663 72.8254 44.663 72.8254 44.763 72.7254C48.463 73.6254 52.363 74.0254 55.863 74.4254C64.063 75.3254 73.263 75.1254 80.263 70.3254C86.463 66.1254 89.963 59.6254 88.863 52.1254C87.163 41.8254 80.163 32.7254 71.663 27.1254ZM27.563 47.7254C27.363 48.5254 27.263 49.3254 27.163 50.1254C26.363 49.5254 25.463 49.0254 24.863 48.4254C22.763 46.5254 20.763 44.2254 18.063 43.1254C15.163 41.9254 12.763 43.1254 9.76298 43.0254C8.26298 43.0254 4.96298 42.3254 5.26298 40.1254C5.66298 37.6254 9.56298 39.0254 10.963 39.5254C13.863 40.4254 15.063 35.9254 12.163 35.0254C11.063 34.7254 9.76298 34.4254 8.56298 34.3254C8.86298 33.8254 9.26298 33.3254 9.76298 32.9254C11.063 32.0254 12.663 32.1254 14.063 32.8254C17.363 34.5254 16.663 37.7254 18.263 40.3254C19.563 42.4254 21.963 43.8254 23.863 45.3254C24.963 46.2254 26.163 47.0254 27.563 47.7254Z" fill="black"/>
<path d="M38.663 1.32548C38.863 0.625483 38.263 0.125483 37.663 0.0254834C34.263 -0.374517 32.163 4.02548 31.963 6.82548C31.863 8.62548 32.363 10.1255 33.163 11.7255C33.563 12.6255 34.063 13.3255 34.063 14.3255C34.063 15.6255 32.963 16.8255 32.563 18.0255C31.963 19.7255 33.963 20.7255 35.263 20.1255C38.363 18.6255 38.963 14.3255 37.663 11.4255C36.863 9.62548 35.763 8.42548 36.063 6.22548C36.563 4.22548 38.063 3.12548 38.663 1.32548Z" fill="black"/>
<path d="M47.663 14.9254C45.263 16.3254 47.463 20.0254 49.863 18.6254C52.163 17.2254 53.463 14.4254 52.663 11.7254C51.963 9.32544 47.463 5.52544 50.563 3.12544C51.263 2.62544 50.463 1.52544 49.763 1.72544C47.463 2.42544 45.763 3.82544 46.063 6.52544C46.263 9.02544 50.763 13.1254 47.663 14.9254Z" fill="black"/>
<path d="M59.963 15.5255C59.463 16.8255 60.963 18.2255 62.263 17.8255C64.763 17.0255 65.763 14.4255 65.563 11.9255C65.363 9.22553 61.263 4.32553 64.063 1.82553C64.563 1.32553 64.263 0.525526 63.663 0.325526C60.863 -0.574474 59.263 2.22553 59.163 4.72553C59.163 6.42553 59.663 8.02553 60.263 9.52553C60.663 10.5255 61.363 11.6255 61.163 12.8255C61.063 13.8255 60.263 14.6255 59.963 15.5255Z" fill="black"/>
</svg>
