<svg width="69" height="36" viewBox="0 0 69 36" fill="none" xmlns="http://www.w3.org/2000/svg">
<path d="M60.7 20.0134C60.1 21.3134 59.3 22.6134 58.1 23.8134C58.2 24.1134 58.3 24.3134 58.3 24.6134C58.3 28.3134 46.7 31.4134 32.3 31.4134C18 31.4134 6.3 28.4134 6.3 24.6134C6.3 24.1134 6.5 23.6134 6.9 23.2134C6.1 22.6134 5.7 21.1134 5.6 19.7134C2 21.4134 0 23.4134 0 25.4134C0 30.4134 13.1 35.8134 32.7 35.8134C52.3 35.8134 65.4 30.4134 65.4 25.4134C65.5 23.4134 63.8 21.6134 60.7 20.0134Z" fill="black"/>
<path d="M51.5 8.51341C51.5 8.51341 51.6 8.61342 51.7 8.61342C53 8.61342 54.1 8.61341 54.9 8.51341L56.4 8.21342C57.4 8.01342 58 7.91342 58.6 7.71342C60.7 6.91342 62.2 5.91342 63.4 4.61342C63.5 4.51342 63.6 4.11342 63.4 3.81342C63.2 3.41342 62.9 3.31342 62.5 3.31342C60.7 3.41342 59.4 3.61342 57.5 4.11342L55.8 4.91342C54.8 5.41342 53.7 5.91341 51.5 6.01341C50.9 6.01341 49.9 6.11342 48.8 6.11342C49.2 6.51342 49.6 6.81342 49.9 7.21342L51.5 8.51341Z" fill="black"/>
<path d="M68.4 7.71341C68.3 7.41341 68 7.11341 67.3 7.21341C65.4 7.41341 64 7.51341 61.9 8.11341C61.2 8.31341 60.6 8.61341 60.1 8.81341C59 9.31341 57.9 9.91341 55.5 10.0134C55.3 10.0134 55.1 10.0134 54.9 10.0134C54.5 10.0134 53.9 10.0134 53.3 10.0134C53 10.0134 52.6 10.0134 52.2 10.0134C52 10.0134 51.8 10.0134 51.6 10.0134C51.4 10.0134 51.2 10.0134 51 10.0134C50.7 10.0134 50.4 10.0134 50 10.0134C48.5 10.0134 47 10.0134 45.4 10.0134C41.5 10.0134 37.9 10.0134 36.7 10.1134C33.3 10.3134 31.4 11.7134 30.3 13.3134C30.1 13.5134 30 13.8134 29.9 14.0134C29.8 14.2134 29.7 14.5134 29.6 14.7134C29.3 15.4134 29.2 16.1134 29.1 16.7134C29.1 17.0134 29 17.3134 29 17.6134C29 17.7134 29 17.8134 29 17.9134C29 20.6134 30.1 22.6134 30.1 22.6134C30.2 22.7134 30.2 22.8134 30.2 22.9134C30.2 23.2134 30.1 23.4134 29.9 23.6134C29.6 23.8134 29.1 23.7134 28.9 23.3134C28.8 23.2134 27.8 21.3134 27.6 18.6134C27.6 18.4134 27.6 18.2134 27.6 18.0134C27.6 17.9134 27.6 17.7134 27.6 17.6134C27.6 17.5134 27.6 17.3134 27.6 17.2134C27.6 16.9134 27.6 16.7134 27.7 16.4134C27.8 15.8134 27.9 15.2134 28.1 14.7134C28.2 14.5134 28.3 14.2134 28.4 14.0134C28.5 13.8134 28.6 13.5134 28.7 13.3134C30.1 10.5134 32.9 8.91341 36.7 8.61341C38 8.51341 41.6 8.51341 45.5 8.51341C46.8 8.51341 48.2 8.51341 49.5 8.51341L48.9 8.01341C48.2 7.41341 47.5 6.71341 46.5 5.91341C46.2 5.71341 45.9 5.41341 45.5 5.21341C45.2 5.01341 44.8 4.71341 44.4 4.51341C43.3 3.91341 41.9 3.21341 40.2 2.51341C36.6 1.01341 26.5 -0.586589 22.1 0.213411H22C18.6 0.413411 16 2.01341 14.1 5.01341L12 8.91341C10.5 11.5134 8.80001 14.5134 7.50001 16.3134C7.30001 16.5134 7.2 16.9134 7.2 17.4134C7.2 17.6134 7.10001 17.9134 7.10001 18.2134C7.10001 18.5134 7.10001 18.7134 7.10001 19.0134C7.10001 20.3134 7.40001 21.7134 7.90001 22.1134C8.00001 22.2134 8.00001 22.2134 8.10001 22.3134C20.1 32.0134 44.5 28.8134 51.6 26.5134C53.9 25.8134 55.8 24.4134 57.3 22.8134C58.3 21.7134 59 20.6134 59.5 19.5134C59.6 19.3134 59.7 19.0134 59.8 18.8134C59.9 18.6134 59.9 18.3134 60 18.1134C60.1 17.7134 60.1 17.3134 60.1 16.9134C60.1 16.7134 60.1 16.6134 60.1 16.5134C59.9 15.7134 59.4 15.0134 58.7 14.5134C58.1 14.6134 57.5 14.8134 56.8 14.9134C56 15.1134 55.2 15.6134 54.4 16.1134C54.2 16.3134 53.9 16.4134 53.7 16.6134C53.5 16.8134 53.2 17.0134 53 17.1134C52.4 17.6134 51.9 18.1134 51.3 18.6134C50.9 18.9134 50.5 19.3134 50.1 19.6134C48.8 20.7134 47.5 21.7134 46.1 22.4134C45.7 22.6134 45.3 22.4134 45.2 22.1134C45.2 22.0134 45.2 21.9134 45.1 21.9134C45.1 21.6134 45.2 21.3134 45.5 21.2134C46.4 20.8134 47.4 20.1134 48.3 19.3134C49 18.8134 49.7 18.2134 50.3 17.6134C50.6 17.3134 50.9 17.1134 51.2 16.8134C51.4 16.6134 51.6 16.4134 51.9 16.2134C52.1 16.0134 52.4 15.8134 52.6 15.6134C53.9 14.6134 55.1 13.8134 56.4 13.4134C56.6 13.3134 56.8 13.3134 57 13.3134C57.4 13.2134 57.7 13.1134 58.1 13.0134C58.4 12.9134 58.8 12.9134 59.1 12.8134C59.8 12.7134 60.3 12.6134 60.9 12.5134C61.9 12.3134 62.7 12.2134 63.3 12.0134C65.5 11.1134 67.1 10.1134 68.5 8.61341C68.5 8.51341 68.6 8.01341 68.4 7.71341ZM34.2 2.41341C34.4 2.31341 34.6 2.51341 34.7 2.71341C34.8 2.91341 34.6 3.11341 34.4 3.21341C34.2 3.31341 34 3.11341 33.9 2.91341C33.9 2.71341 34 2.51341 34.2 2.41341ZM30.6 2.41341C30.8 2.41341 31 2.61341 31 2.81341C31 3.01341 30.8 3.21341 30.6 3.21341C30.4 3.21341 30.2 3.01341 30.2 2.81341C30.2 2.61341 30.4 2.41341 30.6 2.41341ZM29.8 4.91341C30 4.91341 30.2 5.11341 30.2 5.31341C30.2 5.51341 30 5.71341 29.8 5.71341C29.6 5.71341 29.4 5.51341 29.4 5.31341C29.4 5.01341 29.6 4.91341 29.8 4.91341ZM27.4 2.51341C27.6 2.51341 27.8 2.71341 27.8 2.91341C27.8 3.11341 27.6 3.31341 27.4 3.31341C27.2 3.31341 27 3.11341 27 2.91341C27 2.71341 27.2 2.51341 27.4 2.51341ZM24 5.31341C24.2 5.31341 24.4 5.51341 24.4 5.71341C24.4 5.91341 24.2 6.11341 24 6.11341C23.8 6.11341 23.6 5.91341 23.6 5.71341C23.6 5.51341 23.8 5.31341 24 5.31341ZM21.9 2.21341C22.1 2.21341 22.3 2.41341 22.3 2.61341C22.3 2.81341 22.1 3.01341 21.9 3.01341C21.7 3.01341 21.5 2.81341 21.5 2.61341C21.5 2.31341 21.7 2.21341 21.9 2.21341ZM21.6 8.31341C21.8 8.31341 22 8.51341 22 8.71341C22 8.91341 21.8 9.11341 21.6 9.11341C21.4 9.11341 21.2 8.91341 21.2 8.71341C21.2 8.41341 21.4 8.31341 21.6 8.31341ZM19 10.7134C19 10.9134 18.8 11.1134 18.6 11.1134C18.4 11.1134 18.2 10.9134 18.2 10.7134C18.2 10.5134 18.4 10.3134 18.6 10.3134C18.8 10.3134 19 10.5134 19 10.7134ZM18.4 4.61341C18.6 4.61341 18.8 4.81341 18.8 5.01341C18.8 5.21341 18.6 5.41341 18.4 5.41341C18.2 5.41341 18 5.21341 18 5.01341C18 4.81341 18.2 4.61341 18.4 4.61341ZM15.4 6.21341C15.6 6.21341 15.8 6.41341 15.8 6.61341C15.8 6.81341 15.6 7.01341 15.4 7.01341C15.2 7.01341 15 6.81341 15 6.61341C15 6.41341 15.2 6.21341 15.4 6.21341ZM15.2 11.5134C15.4 11.5134 15.6 11.7134 15.6 11.9134C15.6 12.1134 15.4 12.3134 15.2 12.3134C15 12.3134 14.8 12.1134 14.8 11.9134C14.8 11.7134 15 11.5134 15.2 11.5134ZM11.5 14.2134C11.7 14.2134 11.9 14.4134 11.9 14.6134C11.9 14.8134 11.7 15.0134 11.5 15.0134C11.3 15.0134 11.1 14.8134 11.1 14.6134C11.1 14.3134 11.3 14.2134 11.5 14.2134ZM14.7 15.7134C14.7 15.5134 14.9 15.3134 15.1 15.3134C15.3 15.3134 15.5 15.5134 15.5 15.7134V15.8134C15.5 16.0134 15.3 16.1134 15.1 16.1134C15 16.1134 14.9 16.0134 14.8 16.0134C14.7 15.9134 14.7 15.8134 14.7 15.7134ZM19.9 17.2134C19.9 17.4134 19.7 17.6134 19.5 17.6134C19.3 17.6134 19.1 17.4134 19.1 17.2134C19.1 17.0134 19.3 16.8134 19.5 16.8134C19.7 16.8134 19.9 17.0134 19.9 17.2134ZM11.7 19.8134C11.7 20.0134 11.5 20.2134 11.3 20.2134C11.1 20.2134 10.9 20.0134 10.9 19.8134C10.9 19.6134 11.1 19.4134 11.3 19.4134C11.5 19.5134 11.7 19.6134 11.7 19.8134ZM16.2 20.1134C16 20.1134 15.8 19.9134 15.8 19.7134C15.8 19.5134 16 19.3134 16.2 19.3134C16.4 19.3134 16.6 19.5134 16.6 19.7134C16.6 19.9134 16.4 20.1134 16.2 20.1134ZM33 14.9134C33 14.7134 33.2 14.6134 33.4 14.6134C33.6 14.6134 33.8 14.8134 33.8 14.9134C33.8 15.1134 33.6 15.3134 33.4 15.3134C33.2 15.3134 33 15.1134 33 14.9134ZM39.4 15.7134C39.4 15.9134 39.2 16.1134 39 16.1134C38.8 16.1134 38.6 15.9134 38.6 15.7134C38.6 15.5134 38.8 15.3134 39 15.3134C39.2 15.3134 39.4 15.5134 39.4 15.7134ZM36.6 17.0134C36.6 17.2134 36.4 17.4134 36.2 17.4134C36 17.4134 35.8 17.2134 35.8 17.0134C35.8 16.8134 36 16.6134 36.2 16.6134C36.4 16.7134 36.6 16.8134 36.6 17.0134ZM36.9 12.1134C37.1 12.1134 37.3 12.3134 37.3 12.5134C37.3 12.7134 37.1 12.9134 36.9 12.9134C36.7 12.9134 36.5 12.7134 36.5 12.5134C36.5 12.3134 36.6 12.1134 36.9 12.1134ZM33.2 20.7134C33.2 20.5134 33.4 20.3134 33.6 20.3134C33.8 20.3134 34 20.5134 34 20.7134C34 20.9134 33.8 21.1134 33.6 21.1134C33.4 21.0134 33.2 20.9134 33.2 20.7134Z" fill="black"/>
</svg>
