<svg width="79" height="90" viewBox="0 0 79 90" fill="none" xmlns="http://www.w3.org/2000/svg">
<path d="M67.2629 7.54129C66.9629 7.64129 66.6629 7.74129 66.3629 7.84129C66.3629 7.14129 66.2629 6.34129 65.9629 5.64129C64.7629 2.04129 61.3629 -0.658706 57.4629 0.141294C53.7629 0.941294 50.0629 3.24129 49.2629 7.14129C49.2629 7.34129 49.1629 7.54129 49.1629 7.74129C48.9629 7.74129 48.8629 7.64129 48.6629 7.64129C44.9629 6.74129 41.1629 9.14129 38.9629 12.0413C36.6629 15.0413 37.5629 19.1413 40.0629 21.8413C40.8629 22.7413 41.8629 23.3413 42.9629 23.7413C42.7629 24.0413 42.4629 24.3413 42.2629 24.6413C39.9629 28.1413 41.1629 33.0413 43.6629 36.1413C46.0629 39.0413 50.7629 39.0413 53.7629 37.0413C55.6629 35.8413 56.6629 33.9413 57.3629 31.7413C58.0629 33.8413 59.0629 35.8413 60.9629 37.0413C64.0629 38.9413 68.6629 39.0413 71.0629 36.1413C73.5629 33.0413 74.7629 28.1413 72.4629 24.6413C72.3629 24.4413 72.1629 24.2413 71.9629 24.0413C73.3629 23.7413 74.6629 23.0413 75.7629 21.9413C78.2629 19.2413 79.1629 15.1413 76.8629 12.1413C74.8629 9.14129 71.0629 6.74129 67.2629 7.54129ZM42.7629 14.2413C45.5629 10.9413 48.2629 11.6413 50.4629 13.6413C50.8629 14.4413 51.3629 15.1413 51.9629 15.9413C50.9629 17.1413 50.4629 18.5413 50.4629 20.0413C48.8629 20.1413 47.2629 20.2413 45.7629 20.0413C43.1629 19.6413 40.8629 16.5413 42.7629 14.2413ZM53.2629 31.1413C52.3629 33.6413 48.7629 35.6413 46.7629 32.9413C45.1629 30.8413 44.7629 27.7413 46.8629 25.9413C48.0629 24.8413 49.7629 24.3413 51.4629 23.9413H51.5629C51.9629 24.5413 52.3629 25.1413 52.9629 25.6413C53.4629 26.0413 53.9629 26.4413 54.5629 26.6413C54.1629 28.1413 53.7629 29.6413 53.2629 31.1413ZM54.0629 11.0413C53.1629 8.34129 53.4629 5.64129 57.2629 4.64129C60.2629 3.84129 62.9629 6.14129 62.0629 9.34129C61.5629 10.9413 60.5629 12.6413 59.5629 14.1413C58.5629 13.4413 57.1629 13.3413 55.7629 13.7413C55.2629 12.7413 54.6629 11.8413 54.0629 11.0413ZM59.0629 21.8413C58.1629 22.6413 56.7629 22.5413 55.9629 21.6413C55.2629 20.8413 55.1629 19.6413 55.7629 18.8413C56.1629 18.4413 57.2629 17.3413 59.0629 18.5413C60.3629 19.3413 59.6629 21.3413 59.0629 21.8413ZM68.1629 32.9413C66.1629 35.6413 62.5629 33.5413 61.6629 31.1413C61.1629 29.7413 60.7629 28.2413 60.4629 26.7413C61.5629 26.2413 62.5629 25.5413 63.2629 24.5413C63.3629 24.4413 63.4629 24.2413 63.5629 24.1413C67.7629 25.2413 71.9629 27.9413 68.1629 32.9413ZM73.3629 14.2413C74.9629 16.3413 73.5629 19.3413 70.9629 20.0413C69.0629 20.5413 66.5629 20.2413 64.4629 19.9413C64.3629 18.8413 63.8629 17.6413 63.2629 16.7413C64.0629 15.1413 65.0629 13.6413 66.5629 12.6413C68.9629 11.0413 71.7629 12.0413 73.3629 14.2413Z" fill="black"/>
<path d="M60.4629 43.2413C62.6629 41.1413 59.2629 37.7413 57.1629 39.9413C50.8629 46.0413 40.6629 44.2413 37.0629 36.1413C36.5629 35.0413 35.0629 34.9413 34.1629 35.3413C31.7629 36.6413 30.1629 38.5413 28.2629 40.4413C26.9629 41.7413 25.5629 42.8413 23.6629 42.6413C21.7629 42.3413 20.8629 40.8413 19.9629 39.2413C19.0629 37.6413 16.2629 38.7413 16.9629 40.5413C18.2629 44.2413 20.4629 47.5413 24.8629 47.0413C29.1629 46.5413 31.4629 42.8413 34.4629 40.3413C40.1629 49.1413 52.4629 50.9413 60.4629 43.2413Z" fill="black"/>
<path d="M3.46293 16.0413C5.86293 14.2413 8.26293 12.3413 10.8629 10.8413C12.8629 9.64127 16.5629 7.64127 18.9629 8.74127C21.2629 9.94127 22.7629 14.6413 23.6629 16.9413C24.6629 19.4413 25.4629 21.9413 26.1629 24.5413C23.2629 24.6413 17.9629 25.8413 17.1629 26.5413C9.46293 32.7413 5.16293 43.9413 4.56293 53.5413C3.96293 63.5413 7.66293 72.9413 15.2629 79.4413C19.0629 82.6413 22.9629 85.4413 27.5629 87.2413C32.7629 89.2413 38.4629 89.3413 43.9629 88.7413C52.8629 87.6413 62.2629 82.7413 67.4629 75.1413C70.2629 70.9413 71.4629 66.2413 72.2629 61.3413C72.7629 58.3413 73.1629 55.4413 73.1629 52.4413C73.1629 49.1413 72.5629 45.9413 72.9629 42.6413C73.5629 37.6413 64.1629 39.6413 67.1629 44.2413C69.7629 48.1413 69.9629 53.7413 69.8629 58.2413C69.7629 62.5413 68.9629 67.1413 66.8629 71.0413C63.1629 78.0413 53.7629 81.6413 46.4629 83.4413C41.9629 84.5413 36.4629 84.7413 31.9629 83.6413C27.4629 82.5413 23.4629 79.9413 19.8629 77.1413C12.8629 71.5413 8.96293 64.2413 9.06293 55.1413C9.16293 45.1413 14.5629 37.4413 18.4629 28.6413C23.7629 29.5413 29.3629 29.0413 34.6629 29.2413C37.4629 29.3413 37.4629 24.9413 34.6629 24.8413C33.4629 24.8413 32.2629 24.7413 31.0629 24.7413C30.0629 20.7413 28.7629 16.9413 27.1629 13.1413C25.6629 9.54127 24.3629 5.44127 20.4629 3.74127C13.4629 0.541272 4.56293 7.14127 0.462929 12.4413C-0.937071 14.2413 1.06293 17.8413 3.46293 16.0413Z" fill="black"/>
<path d="M49.0629 77.1413C56.4629 73.3413 62.5629 64.4413 63.9629 56.3413C64.3629 53.8413 61.1629 53.0413 60.2629 55.3413C58.7629 59.0413 56.9629 62.7413 54.5629 65.8413C52.1629 68.8413 49.1629 70.9413 46.1629 73.3413C43.8629 75.1413 46.7629 78.3413 49.0629 77.1413Z" fill="black"/>
<path d="M35.4629 75.3413C34.3629 76.4413 34.3629 78.1413 35.3629 79.2413C35.3629 79.2413 35.3629 79.2413 35.4629 79.3413C36.1629 80.0413 37.1629 80.2413 38.1629 80.0413C38.8629 79.8413 39.4629 79.6413 39.9629 79.1413C40.3629 78.6413 40.6629 78.0413 40.6629 77.4413C40.6629 76.7413 40.3629 76.2413 39.9629 75.7413C39.4629 75.2413 38.8629 74.9413 38.1629 74.8413C37.2629 74.4413 36.1629 74.6413 35.4629 75.3413Z" fill="black"/>
</svg>
