<svg width="34" height="58" viewBox="0 0 34 58" fill="none" xmlns="http://www.w3.org/2000/svg">
<path d="M33.71 7.2912L26.71 0.291201C26.5903 0.177632 26.4455 0.0939703 26.2874 0.0470461C26.1292 0.000121988 25.9622 -0.00873412 25.8 0.0212008L15.8 2.0212C15.5969 2.06286 15.4117 2.1667 15.2703 2.31832C15.1288 2.46995 15.038 2.66184 15.0106 2.86737C14.9831 3.07291 15.0203 3.2819 15.1169 3.46536C15.2136 3.64882 15.3649 3.79765 15.55 3.8912L19.72 5.9812C20.724 6.47278 21.7597 6.89705 22.82 7.2512L20.98 12.0012H8V5.0012C7.99806 4.73608 7.89422 4.48187 7.71 4.2912L3.71 0.291201C3.52143 0.104166 3.26644 -0.000540149 3.00085 2.09564e-06C2.73526 0.00054434 2.4807 0.106291 2.29289 0.294094C2.10509 0.481897 1.99934 0.736457 1.9988 1.00205C1.99826 1.26764 2.10297 1.52263 2.29 1.7112L6 5.4112V12.0012H1C0.735019 12.002 0.481109 12.1076 0.293738 12.2949C0.106368 12.4823 0.000765122 12.7362 0 13.0012V23.0012C0.00771383 26.8024 1.45691 30.4593 4.0552 33.2339C6.65349 36.0085 10.2074 37.6943 14 37.9512V46.5912L10.38 50.2112C9.82384 50.7568 9.11016 51.1136 8.34 51.2312L6.82 51.4412C5.48514 51.64 4.26546 52.3098 3.38144 53.3295C2.49742 54.3493 2.00741 55.6516 2 57.0012C2.00077 57.2662 2.10637 57.5201 2.29374 57.7075C2.48111 57.8948 2.73502 58.0004 3 58.0012H27C27.265 58.0004 27.5189 57.8948 27.7063 57.7075C27.8936 57.5201 27.9992 57.2662 28 57.0012C27.9942 55.6512 27.5048 54.3479 26.6205 53.3278C25.7362 52.3078 24.5156 51.6384 23.18 51.4412L21.66 51.2312C20.8898 51.1136 20.1762 50.7568 19.62 50.2112L16 46.5912V37.9512C19.7926 37.6943 23.3465 36.0085 25.9448 33.2339C28.5431 30.4593 29.9923 26.8024 30 23.0012V13.0012C29.9992 12.7362 29.8936 12.4823 29.7063 12.2949C29.5189 12.1076 29.265 12.002 29 12.0012H23.13L24.74 7.8212C25.8566 8.11754 26.9928 8.33475 28.14 8.4712L32.89 8.9912C32.926 8.99948 32.9631 9.00284 33 9.0012C33.1884 9.00024 33.3727 8.94628 33.5319 8.84547C33.691 8.74467 33.8186 8.60111 33.9 8.4312C33.9917 8.24522 34.0227 8.03514 33.9886 7.8306C33.9545 7.62606 33.8571 7.43738 33.71 7.2912ZM3 26.0012C2.80222 26.0012 2.60888 25.9426 2.44443 25.8327C2.27998 25.7228 2.15181 25.5666 2.07612 25.3839C2.00043 25.2012 1.98063 25.0001 2.01921 24.8061C2.0578 24.6121 2.15304 24.4339 2.29289 24.2941C2.43274 24.1542 2.61093 24.059 2.80491 24.0204C2.99889 23.9818 3.19996 24.0016 3.38268 24.0773C3.56541 24.153 3.72159 24.2812 3.83147 24.4456C3.94135 24.6101 4 24.8034 4 25.0012C3.99923 25.2662 3.89363 25.5201 3.70626 25.7075C3.51889 25.8948 3.26498 26.0004 3 26.0012ZM9.86 33.8712C9.76992 34.0183 9.64347 34.1397 9.49285 34.2238C9.34223 34.3079 9.1725 34.3517 9 34.3512C8.82007 34.3546 8.643 34.3059 8.49 34.2112C6.57033 33.0583 4.97401 31.4379 3.85 29.5012C3.71925 29.2717 3.68478 28.9997 3.75412 28.7448C3.82347 28.4899 3.99099 28.2729 4.22 28.1412C4.33266 28.0745 4.45747 28.0308 4.58716 28.0128C4.71686 27.9948 4.84884 28.0028 4.97542 28.0363C5.10199 28.0698 5.22064 28.1282 5.32444 28.208C5.42824 28.2878 5.51511 28.3875 5.58 28.5012C6.53432 30.14 7.88585 31.5122 9.51 32.4912C9.73888 32.6283 9.90418 32.8504 9.96977 33.109C10.0354 33.3676 9.99589 33.6416 9.86 33.8712ZM28 14.0012V20.0012H2V14.0012H28Z" fill="black"/>
</svg>
