<svg width="67" height="36" viewBox="0 0 67 36" fill="none" xmlns="http://www.w3.org/2000/svg">
<path d="M52.1 19.6V15.7H13.6V19.8C5.4 21.4 0 24 0 27C0 31.9 14.8 35.9 33.1 35.9C51.4 35.9 66.2 31.9 66.2 27C66.3 23.9 60.7 21.2 52.1 19.6ZM55.4 29C54.8 28.9 28.7 29 23.4 29C22.7 29.7 21.1 30 19.4 30.1C17.1 30.3 12.3 29.6 12.3 29.6C12.3 29.6 15.4 29 19.2 28.5C19.3 28.5 19.4 28.4 19.6 28.4C20.2 28.3 20.6 28.1 20.6 27.8C20.6 27.4 19.7 27 19 26.9C17.2 26.6 15 26.3 13.8 26.2C13.1 26.1 12.7 26 12.7 26C12.7 26 13.1 25.9 13.8 25.9C15.4 25.7 18.2 25.5 20.1 25.6C22.2 25.9 23.4 26.3 23.8 27.1C29.7 27 45.6 26.7 52.2 26.6C53.7 26.6 54.7 26.5 55.1 26.5C56.6 26.5 56.8 29 55.4 29Z" fill="black"/>
<path d="M13.7 8.9L13.6 14.3H52.1V9.2V9V8.9C49.7 2.2 35.3 0.2 33.7 0C33.6 0 33.4 -1.52737e-06 33.3 0.0999985L14.1 8.6C13.9 8.6 13.8 8.7 13.7 8.9ZM50.3 8.4C48.3 8.4 23.1 8.4 17.8 8.4C22.1 6.5 33.4 1.5 33.7 1.4C35.2 1.6 47.2 3.4 50.3 8.4Z" fill="black"/>
</svg>
