<svg width="90" height="80" viewBox="0 0 90 80" fill="none" xmlns="http://www.w3.org/2000/svg">
<path d="M85.6344 24.8265C84.6344 24.1265 83.5344 23.8265 82.3344 23.6265C80.4344 23.2265 80.2344 22.8265 79.7344 21.0265C79.2344 19.0265 78.6344 16.8265 76.7344 15.7265C74.6344 14.4265 72.4344 15.3265 70.4344 16.3265C68.6344 17.2265 67.8344 17.5265 66.6344 15.7265C66.0344 14.7265 65.5344 13.7265 64.9344 12.8265C62.5344 9.62652 57.9344 9.22652 54.2344 10.6265C52.7344 9.02652 50.8344 7.82652 48.7344 7.12652C49.4344 6.02652 50.2344 5.02652 51.0344 4.12652C51.9344 3.12652 53.2344 2.62652 54.1344 1.62652C54.5344 1.12652 54.3344 0.42652 53.7344 0.22652C50.5344 -0.77348 46.3344 1.72652 44.3344 4.02652C43.4344 5.02652 42.6344 6.22652 42.0344 7.42652C37.7344 7.42652 33.2344 10.1265 31.1344 13.9265C30.2344 15.5265 29.9344 17.1265 30.0344 18.6265C25.5344 21.5265 21.5344 25.6265 17.5344 29.0265C12.2344 33.5265 6.83437 37.8265 1.13437 41.7265C0.034375 42.5265 -0.265625 43.7265 0.234375 45.0265C5.03438 55.2265 8.23438 65.9265 8.23438 77.3265C8.23438 78.5265 9.33438 79.9265 10.7344 79.8265C21.9344 78.6265 72.6344 71.8265 78.1344 70.4265C79.1344 70.1265 79.7344 69.2265 79.8344 68.2265C80.7344 58.4265 83.6344 48.4265 86.3344 38.9265C89.5344 34.5265 90.6344 28.2265 85.6344 24.8265ZM36.7344 14.8265C37.8344 13.4265 39.2344 12.5265 40.8344 11.9265C40.7344 12.9265 40.6344 13.8265 40.7344 14.8265C40.9344 18.8265 47.2344 18.7265 46.8344 14.8265C46.7344 13.9265 46.7344 13.0265 46.8344 12.1265C51.8344 12.8265 52.1344 18.0265 51.6344 19.7265C50.3344 23.8265 45.9344 25.9265 41.9344 24.7265C37.8344 23.6265 33.3344 19.0265 36.7344 14.8265ZM75.8344 65.9265C70.9344 66.4265 23.7344 73.2265 13.2344 74.4265C13.1344 71.6265 12.8344 68.8265 12.3344 66.1265C14.9344 66.2265 72.7344 58.9265 77.8344 57.6265C77.2344 60.4265 76.5344 63.1265 75.8344 65.9265ZM78.9344 52.4265C65.5344 54.2265 14.0344 61.1265 11.4344 61.9265C10.1344 56.1265 8.13438 50.5265 5.63438 45.0265C10.1344 44.8265 59.9344 41.6265 71.3344 40.9265C74.2344 40.7265 74.2344 36.2265 71.3344 36.3265C59.9344 36.9265 9.13437 42.6265 7.53437 42.9265C11.8344 39.7265 27.9344 26.3265 31.1344 22.3265C33.0344 26.2265 37.1344 29.3265 41.3344 30.2265C46.8344 31.4265 52.6344 28.9265 55.5344 24.3265C55.7344 24.4265 74.2344 32.4265 82.5344 37.4265C82.5344 37.4265 82.5344 37.4265 82.5344 37.5265C81.1344 42.4265 80.0344 47.4265 78.9344 52.4265ZM84.3344 33.7265C75.8344 28.8265 57.5344 19.9265 57.2344 19.9265C57.6344 17.7265 57.3344 15.6265 56.5344 13.8265C57.6344 13.7265 58.7344 13.6265 59.8344 13.9265C62.1344 14.5265 62.6344 16.9265 63.8344 18.6265C65.9344 21.7265 68.8344 21.9265 72.0344 20.3265C73.0344 19.8265 74.1344 18.8265 75.0344 19.9265C75.5344 20.5265 75.6344 21.7265 75.7344 22.4265C76.1344 23.7265 76.5344 25.1265 77.5344 26.2265C79.1344 27.8265 80.9344 27.2265 82.8344 28.1265C85.0344 29.2265 85.1344 31.7265 84.3344 33.7265Z" fill="black"/>
</svg>
