<svg width="72" height="36" viewBox="0 0 72 36" fill="none" xmlns="http://www.w3.org/2000/svg">
<path d="M35.5 0C25.6 0 16.6 2 10.1 5.3C8.5 4.8 6.7 5.3 5.7 7C3.9 6.2 2.2 6.9 1.3 8.1C0.9 8.7 0.7 9.4 0.7 10.1C0.7 10.8 1 11.5 1.6 12C1.3 12.5 1 13.1 0.9 13.7C0.3 15 0 16.3 0 17.7C0 27.5 16 35.4 35.6 35.4C55.3 35.4 71.2 27.5 71.2 17.7C71.2 7.9 55.2 0 35.5 0ZM57.5 19C56.4 19.9 53.1 19.2 51.2 18.3C50 17.8 49.1 17.4 48.5 16.7C48.3 16.4 48.1 16.1 48.1 15.6C47.9 14.6 48.8 13.3 51.2 13.7C53.2 14 53.7 16.1 56 16.4C56.9 16.5 57.5 16.8 57.8 17.2C58.2 17.8 58.1 18.6 57.5 19ZM15.9 13.3C16.8 6 27.2 3.7 38.2 5.3C44.8 6.3 49.9 7.6 52 8.8C52.8 9.3 53.1 10.5 52.7 10.8C51.2 12.1 48.9 11.3 47.5 12C45.4 13.1 45.8 15.5 43.2 16.6C42.6 16.8 41.9 17 40.9 17.1C34.8 17.7 29.2 22.8 21.6 20.9C17.9 19.9 16.2 17.7 15.9 15.3C15.9 14.6 15.9 13.9 15.9 13.3ZM58.7 14.7C58.2 15.3 57 14.9 56 14.4C54.8 13.8 54.1 12.8 54.2 12.3C54.3 11.1 55.7 10.4 57.5 11.9C58.4 12.8 59.1 14.1 58.7 14.7ZM9.3 9.1C9.4 8.7 9.1 8.3 8.7 8.3C8.3 8.2 7.9 8.5 7.9 8.9C7.7 9.8 7.7 11.1 8.3 12.3C6.4 12.2 5 13 5 13.1C4.7 13.3 4.6 13.7 4.8 14.1C5 14.4 5.4 14.5 5.8 14.3C5.9 14.3 7.2 13.5 9 13.8C9 14.7 8.7 15.9 7.4 16.4C5.2 17.3 3.4 16.6 2.7 15.6C2 14.7 2.1 13.5 2.9 12.4C3 12.2 3.1 12.1 3 11.9C3 11.7 2.9 11.5 2.7 11.4C2.6 11.3 2.5 11.2 2.4 11.1C1.8 10.4 2 9.5 2.4 8.9C3 8.1 4.1 7.6 5.3 8.3C5.4 8.4 5.5 8.4 5.6 8.5C5.8 8.6 6 8.7 6.2 8.6C6.4 8.5 6.6 8.4 6.7 8.2C7.4 6.5 8.8 6.2 10 6.7C11.1 7.1 12 8.4 11.4 10C11.1 10.7 10.3 11.4 9.8 11.9C9.1 10.7 9.3 9.2 9.3 9.1ZM11.8 15.2C11.5 14.9 11.2 14.7 10.9 14.5C10.8 14.5 10.8 14.4 10.7 14.4C10.6 14.3 10.5 14.3 10.4 14.2C10.2 14.1 9.9 14 9.7 13.9H9.6C9.5 13.9 9.5 13.9 9.4 13.8C9.2 13.7 9.1 13.6 9 13.5C9 13.4 8.9 13.4 8.9 13.3C8.9 13.2 8.9 13.1 8.9 13C9 12.8 9.2 12.6 9.4 12.6C9.5 12.6 9.6 12.6 9.8 12.6C9.9 12.6 9.9 12.7 10 12.7C10.1 12.7 10.2 12.8 10.3 12.8C10.5 12.9 10.6 12.9 10.8 13C11 13.1 11.2 13.2 11.4 13.3C11.5 13.3 11.5 13.4 11.6 13.4C11.6 13.4 11.7 13.4 11.7 13.5C12.1 13.7 12.4 14 12.8 14.3C12.9 14.4 13 14.5 13 14.7C13 14.8 13 15 13 15.1C13 15.2 12.9 15.2 12.9 15.3C12.7 15.5 12.4 15.6 12.2 15.5C12 15.3 11.9 15.2 11.8 15.2ZM60.4 23.6C60.1 26.2 57.3 27.1 55.7 26.9C51.3 26.2 50 24.7 44.1 23.9C38.6 23.1 29 31.1 19.9 28.8C15.7 27.7 13.7 25.9 13.2 22.5C13.1 21.9 13.1 19.3 13.1 17.3C13.8 20.1 15.8 22.5 20 23.6C29.1 26.1 38.9 17.9 44.5 18.8C50.4 19.7 51.7 21.2 56.3 21.8C57.9 22 60 21.1 61 18.8C60.8 20.8 60.7 21.7 60.4 23.6Z" fill="black"/>
</svg>
