<svg width="90" height="87" viewBox="0 0 90 87" fill="none" xmlns="http://www.w3.org/2000/svg">
<path d="M70.5919 30.5152C62.0919 27.5152 52.9919 27.3152 44.1919 29.2152C35.1919 31.1152 26.8919 33.7152 17.5919 31.8152C14.4919 31.2152 13.1919 35.9152 16.2919 36.5152C19.1919 37.1152 22.1919 37.4152 25.0919 37.4152C24.8919 37.5152 24.6919 37.8152 24.5919 38.1152C24.3919 38.8152 24.4919 39.4152 24.5919 40.1152C24.5919 40.4152 24.6919 40.7152 24.6919 41.0152C24.7919 41.6152 24.8919 42.0152 25.3919 42.5152C26.1919 43.4152 27.8919 43.0152 28.0919 41.8152C28.1919 41.3152 28.1919 40.9152 27.9919 40.5152C27.7919 40.1152 27.6919 39.7152 27.4919 39.4152C27.1919 38.8152 26.9919 38.1152 26.4919 37.7152C26.3919 37.6152 26.2919 37.6152 26.1919 37.5152C29.0919 37.4152 31.9919 37.1152 34.8919 36.5152C41.0919 35.2152 47.1919 33.2152 53.4919 33.0152C65.4919 32.4152 80.3919 36.8152 83.9919 49.6152C85.5919 55.3152 84.1919 61.7152 80.0919 66.1152C76.1919 70.3152 70.7919 71.4152 65.2919 71.8152C52.7919 72.8152 39.9919 70.2152 28.1919 66.1152C21.0919 63.6152 14.8919 60.5152 9.59187 54.9152C5.19187 50.2152 3.49187 38.3152 11.4919 35.9152C12.5919 35.6152 12.3919 33.7152 11.1919 33.8152C5.39187 34.3152 2.79187 39.5152 2.29187 44.8152C-1.20813 48.3152 -0.108128 56.5152 1.69187 60.3152C4.99187 67.5152 11.3919 72.9152 18.3919 76.3152C27.6919 80.9152 38.5919 83.1152 48.6919 84.8152C57.2919 86.3152 68.4919 88.2152 76.6919 84.2152C84.3919 80.5152 89.0919 70.4152 87.8919 62.1152C87.9919 61.7152 88.1919 61.3152 88.2919 60.9152C92.6919 47.4152 82.9919 34.9152 70.5919 30.5152ZM84.3919 69.2152C83.9919 71.7152 82.8919 74.1152 81.1919 76.0152C77.9919 79.8152 73.9919 81.6152 69.0919 82.0152C58.3919 82.9152 47.1919 80.5152 36.8919 78.0152C27.8919 75.8152 17.5919 73.8152 10.6919 67.0152C7.59187 64.0152 4.29187 60.3152 3.19187 56.0152C2.99187 54.6152 2.79187 52.8152 2.79187 51.1152C4.19187 56.2152 7.89187 60.2152 12.2919 63.7152C18.3919 68.6152 26.2919 71.0152 33.6919 73.2152C41.1919 75.3152 48.8919 76.5152 56.6919 77.0152C62.9919 77.3152 70.0919 77.0152 75.9919 74.6152C79.3919 73.2152 82.2919 70.9152 84.5919 68.0152C84.4919 68.4152 84.4919 68.8152 84.3919 69.2152Z" fill="black"/>
<path d="M22.5919 46.2152C23.6919 45.7152 23.9919 44.4152 22.8919 43.7152C19.0919 41.1152 14.3919 44.2152 13.7919 48.4152C13.1919 53.2152 17.5919 56.4152 21.5919 57.9152C25.6919 59.3152 30.5919 58.9152 32.1919 54.2152C33.6919 49.9152 30.5919 45.9152 26.2919 45.5152C23.6919 45.2152 23.5919 49.5152 26.2919 49.7152C28.9919 49.8152 29.4919 53.5152 26.9919 54.4152C25.1919 55.1152 22.5919 54.0152 21.0919 53.1152C19.5919 52.2152 17.7919 51.1152 17.9919 49.1152C18.1919 46.4152 20.7919 47.0152 22.5919 46.2152Z" fill="black"/>
<path d="M35.8919 45.4152C36.9919 47.3152 40.1919 46.1152 39.4919 43.9152C39.0919 42.5152 38.2919 41.3152 37.5919 40.1152C36.9919 39.0152 36.3919 37.8152 35.1919 37.2152C34.6919 36.9152 33.8919 37.2152 33.7919 37.8152C33.4919 39.1152 33.9919 40.3152 34.3919 41.5152C34.7919 42.8152 35.1919 44.2152 35.8919 45.4152Z" fill="black"/>
<path d="M43.5919 53.6152C42.8919 52.4152 42.4919 51.0152 41.4919 50.0152C40.9919 49.4152 39.7919 49.7152 39.6919 50.5152C39.4919 52.1152 39.8919 53.5152 40.3919 55.0152C40.8919 56.5152 41.4919 58.2152 42.5919 59.4152C43.7919 60.7152 46.2919 59.4152 45.5919 57.6152C45.1919 56.1152 44.2919 54.9152 43.5919 53.6152Z" fill="black"/>
<path d="M45.3919 63.4152C45.0919 64.3152 46.2919 68.4152 46.8919 69.2152C47.3919 69.8152 48.3919 69.8152 48.9919 69.5152C49.6919 69.1152 49.9919 68.3152 49.7919 67.5152C49.5919 66.6152 47.9919 63.4152 47.3919 62.8152C46.6919 62.3152 45.5919 62.5152 45.3919 63.4152Z" fill="black"/>
<path d="M32.7919 58.2152C32.3919 60.3152 33.0919 62.9152 33.5919 64.9152C34.2919 67.4152 38.0919 66.3151 37.3919 63.8151C36.8919 61.8151 36.1919 59.2152 34.7919 57.6152C34.2919 56.9152 32.9919 57.3152 32.7919 58.2152Z" fill="black"/>
<path d="M50.9919 42.0153C49.9919 39.8153 49.1919 37.4153 47.6919 35.4153C47.1919 34.7153 45.9919 34.9153 45.9919 35.9153C45.9919 40.5153 47.9919 45.9153 49.9919 50.0153C50.9919 52.0153 54.2919 50.6153 53.5919 48.5153C52.9919 46.2153 51.8919 44.1153 50.9919 42.0153Z" fill="black"/>
<path d="M53.6919 54.7152C54.3919 59.0152 56.6919 63.6152 58.6919 67.4152C59.7919 69.7152 62.9919 67.7152 61.9919 65.4152C60.2919 61.5152 58.2919 56.9152 55.4919 53.6152C54.6919 52.8152 53.5919 53.7152 53.6919 54.7152Z" fill="black"/>
<path d="M63.8919 39.2152C63.1919 37.9152 62.2919 36.7152 61.1919 35.6152C60.6919 35.1152 59.5919 35.4152 59.6919 36.2152C59.8919 37.6152 60.2919 38.9152 60.7919 40.2152C61.3919 41.6152 61.8919 43.3152 62.8919 44.6152C63.9919 46.1152 66.6919 45.3152 65.9919 43.3152C65.5919 41.9152 64.5919 40.6152 63.8919 39.2152Z" fill="black"/>
<path d="M69.0919 52.8152C68.5919 51.8152 68.0919 50.9152 67.5919 49.8152C67.1919 49.0152 65.7919 49.4152 65.8919 50.3152C66.0919 52.5152 66.4919 55.6152 68.0919 57.3152C69.1919 58.5152 71.1919 57.2152 70.7919 55.7152C70.3919 54.6152 69.5919 53.8152 69.0919 52.8152Z" fill="black"/>
<path d="M70.6919 62.3152C71.1919 64.0152 71.5919 65.8152 72.4919 67.3152C73.3919 69.0152 76.2919 67.8152 75.6919 66.0152C75.0919 64.3152 74.0919 62.8152 73.1919 61.3152C72.2919 60.1152 70.1919 60.9152 70.6919 62.3152Z" fill="black"/>
<path d="M80.1919 52.3153C79.1919 49.7153 77.9919 46.5153 75.5919 45.0153C74.9919 44.6153 73.9919 45.1153 74.0919 45.8153C74.3919 48.4153 75.7919 50.8153 76.3919 53.4153C76.9919 55.8153 81.0919 54.6153 80.1919 52.3153Z" fill="black"/>
<path d="M36.8919 26.1152C39.3919 23.7152 39.6919 19.3152 38.7919 16.1152C38.1919 14.2152 36.6919 12.8152 36.0919 10.9152C35.2919 8.71521 36.2919 6.61521 37.8919 5.11521C38.7919 4.31521 38.0919 2.71521 36.8919 2.71521C33.3919 2.81521 31.7919 7.71521 32.0919 10.6152C32.3919 13.0152 34.0919 14.5152 34.8919 16.7152C35.8919 19.6152 34.6919 21.6152 33.8919 24.3152C33.1919 26.2152 35.5919 27.3152 36.8919 26.1152Z" fill="black"/>
<path d="M45.0919 19.5152C42.8919 21.3152 46.2919 24.9152 48.2919 22.7152C50.4919 20.2152 51.7919 16.9152 51.1919 13.5152C50.8919 11.8152 49.9919 10.5152 49.1919 9.01521C47.4919 5.81521 49.0919 4.51521 49.6919 1.31521C49.8919 0.415213 48.9919 -0.284787 48.1919 0.115213C45.4919 1.51521 44.1919 5.31521 44.8919 8.31521C45.2919 10.1152 46.5919 11.4152 47.1919 13.1152C47.8919 15.6152 47.0919 17.9152 45.0919 19.5152Z" fill="black"/>
</svg>
