<svg width="74" height="86" viewBox="0 0 74 86" fill="none" xmlns="http://www.w3.org/2000/svg">
<path d="M8.98838 56.4303L6.72668 71.0673C6.58605 71.9774 6.97277 72.829 7.88288 72.9735C8.79304 73.1141 9.64458 72.493 9.78908 71.5868L11.918 57.9968C11.332 57.9772 10.8672 57.8835 10.5118 57.6608C9.961 57.3093 9.45708 56.8951 8.98838 56.4303Z" fill="black"/>
<path d="M53.3874 51.8643L49.9616 69.2473C49.7858 70.1496 50.1374 71.0246 51.0397 71.2004C51.9421 71.3761 52.817 70.7824 52.9928 69.8801L56.7076 51.3331L55.4928 51.5284C54.817 51.6299 54.1101 51.7432 53.3874 51.8643Z" fill="black"/>
<path d="M52.4574 4.05929C52.2738 4.47726 52.4652 4.96945 52.8832 5.15309C52.9457 5.18043 54.4066 5.85231 54.4066 7.54759C54.4066 8.30931 53.9379 8.78979 53.1761 9.50849C52.4066 10.2311 51.4495 11.1335 51.4339 12.614C51.4105 15.2117 53.5511 16.4226 54.6839 16.7038C55.1292 16.8132 55.5745 16.5436 55.6878 16.0983C55.8011 15.653 55.5316 15.2038 55.0862 15.0866C54.8792 15.0319 53.0824 14.5124 53.098 12.6296C53.1058 11.8991 53.5667 11.4265 54.3167 10.7194C55.098 9.98114 56.0745 9.06712 56.0745 7.54362C56.0745 4.73112 53.6487 3.66082 53.5433 3.61782C53.1254 3.44594 52.641 3.64131 52.4574 4.05929Z" fill="black"/>
<path d="M24.9764 2.76229C24.7928 3.18026 24.9803 3.67245 25.3983 3.85999C25.4608 3.88733 26.91 4.55921 26.91 6.25839C26.91 7.02402 26.4451 7.50059 25.6834 8.22319C24.9178 8.94585 23.9646 9.84819 23.9529 11.3287C23.9295 13.9225 26.0584 15.1373 27.1873 15.4185C27.6326 15.5279 28.0779 15.2583 28.1912 14.813C28.3045 14.3677 28.0349 13.9185 27.5896 13.8013C27.3865 13.7466 25.5974 13.2271 25.6169 11.3443C25.6247 10.6099 26.0818 10.1412 26.8278 9.43412C27.6052 8.69584 28.5739 7.78182 28.5739 6.26222C28.5739 3.44972 26.1677 2.37942 26.0622 2.33642C25.6482 2.14892 25.1639 2.34432 24.9764 2.76229Z" fill="black"/>
<path d="M17.8124 6.00127C17.6288 6.41924 17.8163 6.90752 18.2343 7.09897C18.2968 7.12631 19.7421 7.79819 19.7421 9.49737C19.7421 10.263 19.2772 10.7396 18.5155 11.4622C17.7499 12.1848 16.7967 13.0872 16.785 14.5677C16.7615 17.1615 18.8905 18.3763 20.0194 18.6575C20.4647 18.7668 20.91 18.4973 21.0233 18.052C21.1366 17.6067 20.867 17.1575 20.4217 17.0403C20.2186 16.9856 18.4295 16.4661 18.449 14.5833C18.4568 13.8489 18.9139 13.3802 19.6599 12.6731C20.4373 11.9387 21.406 11.0208 21.406 9.5012C21.406 6.6887 18.9998 5.6184 18.8943 5.5754C18.4803 5.3879 17.996 5.5833 17.8124 6.00127Z" fill="black"/>
<path d="M45.9844 0.501073C45.8008 0.919043 45.9922 1.41123 46.4102 1.59877C46.4727 1.62612 47.9336 2.29799 47.9336 3.99717C47.9336 4.75889 47.4648 5.23937 46.7031 5.95807C45.9336 6.68463 44.9765 7.58307 44.9609 9.06357C44.9374 11.6613 47.0742 12.8722 48.2109 13.1534C48.6562 13.2628 49.1015 12.9932 49.2148 12.5479C49.3281 12.1026 49.0585 11.6534 48.6132 11.5362C48.4062 11.4815 46.6093 10.962 46.6288 9.0792C46.6366 8.34482 47.0937 7.8761 47.8476 7.169C48.6289 6.43072 49.6054 5.5167 49.6054 3.9932C49.6054 1.1807 47.1796 0.110403 47.0742 0.0674029C46.6484 -0.112287 46.164 0.079202 45.9844 0.501073Z" fill="black"/>
<path d="M29.9764 36.0553L28.8748 36.1959L29.4061 36.7584L30.535 36.606L29.9764 36.0553Z" fill="black"/>
<path d="M26.8284 36.4583L25.5198 36.6223L26.0979 37.2122L27.3791 37.0364L26.8284 36.4583Z" fill="black"/>
<path d="M33.2304 35.6413L32.0742 35.7858L32.6172 36.3249L33.7774 36.1647L33.2304 35.6413Z" fill="black"/>
<path d="M36.0514 35.2823L35.3522 35.3682L35.8834 35.8799L36.5905 35.7823L36.0514 35.2823Z" fill="black"/>
<path d="M57.0354 32.6023L55.5237 32.7976L56.0276 33.1374L57.5706 32.9265L57.0354 32.6023Z" fill="black"/>
<path d="M40.5354 30.9193L41.7073 30.7787L41.2815 30.4544L40.1292 30.5833L40.5354 30.9193Z" fill="black"/>
<path d="M42.2344 34.4933L41.2227 34.6222L41.7422 35.0831L42.7775 34.9386L42.2344 34.4933Z" fill="black"/>
<path d="M45.9414 34.0203L44.5 34.2039L45.0195 34.6335L46.4843 34.4343L45.9414 34.0203Z" fill="black"/>
<path d="M39.0314 34.8993L38.1993 35.0047L38.7228 35.493L39.5665 35.3758L39.0314 34.8993Z" fill="black"/>
<path d="M26.6254 30.4033L27.6723 30.2861L27.0785 29.7119C26.7309 29.7509 26.3871 29.7861 26.0433 29.8251L26.6254 30.4033Z" fill="black"/>
<path d="M20.1334 31.1223L21.6412 30.9543L21.0865 30.3645C20.5709 30.4192 20.0631 30.4778 19.5592 30.5324L20.1334 31.1223Z" fill="black"/>
<path d="M17.6764 42.9113L15.8092 43.1808C16.2975 43.7628 16.6217 44.1574 16.7115 44.2628C16.8053 44.2472 17.4655 44.1495 18.5553 43.9815L17.6764 42.9113Z" fill="black"/>
<path d="M63.2194 36.3333L61.1803 36.6263L62.2584 37.3567C63.0006 37.2434 63.7115 37.138 64.3834 37.0325L63.2194 36.3333Z" fill="black"/>
<path d="M60.2034 32.5673L61.6175 32.3759C61.4339 32.2821 61.2464 32.1884 61.0628 32.0907L59.7034 32.2626L60.2034 32.5673Z" fill="black"/>
<path d="M63.5704 34.5983L65.4376 34.3287C65.0431 34.1256 64.6329 33.9147 64.211 33.6998L62.4727 33.9381L63.5704 34.5983Z" fill="black"/>
<path d="M57.3984 30.8763L58.4296 30.7435C58.2811 30.6692 58.1327 30.5911 57.9882 30.5169L57.0038 30.6341L57.3984 30.8763Z" fill="black"/>
<path d="M42.7424 32.7473L44.0588 32.5793L43.6057 32.2316L42.3088 32.3879L42.7424 32.7473Z" fill="black"/>
<path d="M54.6804 29.2353L55.3289 29.1572C55.1882 29.0829 55.0437 29.0126 54.907 28.9423L54.3054 29.0087L54.6804 29.2353Z" fill="black"/>
<path d="M38.3444 29.1023L39.3639 28.989L38.6569 28.446C38.3365 28.4812 38.0084 28.5163 37.6803 28.5515L38.3444 29.1023Z" fill="black"/>
<path d="M27.9024 41.4343L26.1915 41.6804L26.754 42.321C26.8556 42.4382 26.9064 42.5749 26.9337 42.7155C27.5626 42.6218 28.2071 42.5241 28.8712 42.4225L27.9024 41.4343Z" fill="black"/>
<path d="M31.0944 40.9733L29.946 41.1373L30.4108 41.61C30.5593 41.7623 30.6296 41.9537 30.6374 42.149C31.0905 42.0787 31.5436 42.0123 32.0085 41.942L31.0944 40.9733Z" fill="black"/>
<path d="M16.4414 41.4073L15.5586 40.3292L13.6484 40.5909C13.9648 40.9737 14.2695 41.337 14.5546 41.6807L16.4414 41.4073Z" fill="black"/>
<path d="M20.9804 42.4343L19.6015 42.6335L20.3945 43.6022C20.4179 43.6335 20.4257 43.6686 20.4453 43.6999C20.8828 43.6335 21.3515 43.5632 21.8515 43.4851L20.9804 42.4343Z" fill="black"/>
<path d="M12.9694 39.0013L14.3171 38.8177L13.7507 38.1263L11.8015 38.3763C12.0437 38.6653 12.282 38.9505 12.5164 39.2357C12.6414 39.1146 12.7897 39.0247 12.9694 39.0013Z" fill="black"/>
<path d="M34.4614 40.4853L33.1098 40.6806L33.8832 41.497C33.9262 41.54 33.9457 41.5946 33.977 41.6454C34.4536 41.5751 34.934 41.5009 35.4184 41.4267L34.4614 40.4853Z" fill="black"/>
<path d="M58.7304 36.9813L57.5156 37.157L58.6054 37.9109C59.0195 37.8484 59.4296 37.7859 59.832 37.7234L58.7304 36.9813Z" fill="black"/>
<path d="M68.0084 35.6413L65.8248 35.9577L66.9654 36.6452C67.8522 36.5124 68.6334 36.3913 69.2857 36.2936C68.9303 36.1139 68.4928 35.8913 68.0084 35.6413Z" fill="black"/>
<path d="M5.21539 33.0753C5.19196 33.7081 5.17633 34.4855 5.17633 35.4308C5.17633 41.4777 5.94195 52.5678 11.2466 56.1258C11.3365 56.1258 11.4263 56.1297 11.5162 56.1609C12.1334 56.3679 12.6334 56.3094 13.0904 55.9812C15.1412 54.5124 15.731 48.6374 15.817 45.7972L5.21539 33.0753Z" fill="black"/>
<path d="M72.9964 77.8603L68.5941 45.4033C69.7074 43.1416 70.1644 40.0205 70.305 37.8252L62.3284 39.0361C62.2581 39.0595 62.1878 39.0673 62.1097 39.0673L17.4887 45.8329C17.4301 47.8056 17.1019 53.1493 15.2504 56.0239C16.1332 55.9145 17.1059 55.7856 18.1488 55.6411L20.2972 83.5041C20.3675 84.4221 21.1683 85.1096 22.0863 85.0353C23.0042 84.965 23.6918 84.1642 23.6215 83.2462L21.4535 55.1722C31.4805 53.7269 45.7815 51.4066 55.2265 49.8714L65.3715 48.2542C65.4535 48.2425 65.5316 48.2112 65.6097 48.1917L69.6956 78.3047C69.8206 79.2149 70.6605 79.8555 71.5706 79.7305C72.4808 79.6094 73.1214 78.7743 72.9964 77.8603Z" fill="black"/>
<path d="M47.2464 38.6413L45.9495 38.8288L46.9105 39.6842C47.3597 39.6178 47.8089 39.5475 48.2582 39.4811L47.2464 38.6413Z" fill="black"/>
<path d="M43.7934 39.1413L42.7973 39.2858L43.3989 39.8483C43.5043 39.9459 43.5668 40.0631 43.6098 40.192C43.9965 40.1334 44.3832 40.0749 44.7739 40.0163L43.7934 39.1413Z" fill="black"/>
<path d="M40.6804 39.5913L39.8601 39.7085L40.4695 40.2944C40.5711 40.3921 40.6296 40.5092 40.6726 40.6303C40.9968 40.5796 41.3171 40.5327 41.6414 40.4819L40.6804 39.5913Z" fill="black"/>
<path d="M55.0984 37.5093L53.5437 37.7319L54.5085 38.4702C54.5281 38.4858 54.5398 38.5093 54.5593 38.5288C55.1179 38.4429 55.6648 38.3608 56.2077 38.2788L55.0984 37.5093Z" fill="black"/>
<path d="M51.2344 38.0633L49.4727 38.3172L50.4727 39.1453C51.0821 39.0515 51.6915 38.9617 52.2891 38.868L51.2344 38.0633Z" fill="black"/>
<path d="M37.7694 40.0093L36.5311 40.189L37.2421 40.8921C37.3124 40.9624 37.3593 41.0444 37.4022 41.1304C37.8397 41.064 38.2811 40.9976 38.7225 40.9311L37.7694 40.0093Z" fill="black"/>
<path d="M24.2194 41.9663L22.9147 42.1538L23.6256 43.0093C23.6725 43.0678 23.6998 43.1343 23.7272 43.2007C24.1725 43.1343 24.6412 43.0639 25.1178 42.9897L24.2194 41.9663Z" fill="black"/>
<path d="M19.7264 40.9303L18.8514 39.8795L17.4959 40.063L18.367 41.1294L19.7264 40.9303Z" fill="black"/>
<path d="M22.0864 33.1143L23.5161 32.9463L23.0708 32.4736L21.6138 32.6338L22.0864 33.1143Z" fill="black"/>
<path d="M22.0084 39.4503L20.8014 39.6143L21.6647 40.6534L22.9069 40.4737L22.0084 39.4503Z" fill="black"/>
<path d="M48.3514 35.8643L46.7655 36.0791L47.7382 36.8877L49.3827 36.6494L48.3514 35.8643Z" fill="black"/>
<path d="M25.4924 38.9773L23.9924 39.1804L24.8752 40.1882L26.4572 39.9577L25.4924 38.9773Z" fill="black"/>
<path d="M38.3594 29.0913C36.6875 28.0093 35.0156 27.3921 33.8477 27.3491L29.0665 23.8608L28.086 25.2085L32.3048 28.2866C32.2775 28.5835 32.3712 28.9389 32.5509 29.3218C31.2814 28.6577 30.0821 28.2788 29.1837 28.2476L24.4103 24.7593L23.4298 26.107L27.6486 29.1851C27.6096 29.6109 27.8127 30.1421 28.1838 30.7203C26.215 29.4781 24.2697 28.8805 23.1682 29.1031L18.0744 25.7828L17.1642 27.1773L22.3126 30.5328C22.6173 31.689 24.0431 33.2867 26.0548 34.5914C28.711 36.3102 31.3673 36.8531 31.9884 35.8062C32.2658 35.3413 32.0744 34.6382 31.5705 33.8531C34.1799 35.5054 36.758 36.0211 37.3713 34.9937C37.5861 34.6304 37.5158 34.1226 37.2424 33.5484C39.4729 34.7164 41.4963 34.9937 42.0276 34.0992C42.6604 33.0484 41.0196 30.8061 38.3594 29.0913Z" fill="black"/>
<path d="M73.2894 34.2553L73.0355 32.6069L63.4496 34.0757C62.2152 33.7085 59.9574 33.7007 56.8324 33.9351C51.5394 34.3296 49.3597 35.3765 49.4769 36.5835C49.598 37.7866 51.1644 38.2671 56.7074 37.4819C60.0121 37.0092 63.1019 36.4702 64.1488 35.6577L73.2894 34.2553Z" fill="black"/>
<path d="M54.8594 28.3253L63.543 26.6144L63.2227 24.9777L54.6563 26.6652C53.7891 26.1417 51.8282 25.9699 47.5313 26.5714C41.5313 27.4113 40.1485 28.4855 40.2813 29.6144C40.4219 30.7394 42.1719 31.591 47.8438 30.4074C51.0235 29.7472 53.8282 29.1065 54.8594 28.3253Z" fill="black"/>
<path d="M57.8514 32.0793L67.3553 30.6184L67.1014 28.97L57.328 30.4739C55.7655 29.8137 52.3202 29.97 50.6171 30.2708C46.2069 31.0481 44.0194 31.7747 44.1405 32.9817C44.2616 34.1887 45.2772 35.4973 51.8788 34.3684C55.0897 33.8176 57.1482 32.9895 57.8514 32.0793Z" fill="black"/>
<path d="M45.6914 37.6103C45.4024 35.5087 43.4336 34.6884 41.3711 34.6884C39.8594 34.6884 38.8164 35.6024 38.4063 36.5712C37.5782 35.8915 36.3907 35.5907 35.1563 35.5907C33.6758 35.5907 32.6485 36.4696 32.2227 37.4149C31.4024 36.8134 30.2813 36.5399 29.1211 36.5399C27.0586 36.5399 25.8516 38.243 25.9688 39.4618C26.1173 41.0009 27.875 42.2587 29.9376 42.2587C31.5353 42.2587 32.8868 41.5986 33.3126 40.5126C34.0236 41.0048 34.961 41.3134 35.9767 41.3134C37.6056 41.3134 38.9806 40.622 39.3751 39.4931C40.1017 40.0517 41.1017 40.4111 42.1915 40.4111C44.2501 40.4111 45.9258 39.3134 45.6914 37.6103Z" fill="black"/>
<path d="M19.7304 31.6223C17.7695 30.9191 14.1523 28.9739 12.9179 28.8645C11.3515 28.7277 10.3241 29.6184 9.8476 30.3606L3.8828 28.5012L3.38671 30.091L7.63671 31.4152C6.93749 31.7081 6.67968 32.298 6.57031 32.8371L0.44141 31.1535L0 32.7629L6.3008 34.4934C6.24221 35.2512 6.43752 36.1575 7.836 36.7434C8.9219 37.1965 14.1055 37.7356 15.5235 38.0559C19.6055 38.9738 23.336 38.6301 23.5821 37.4504C23.629 37.2199 23.5469 36.9699 23.3594 36.7121C24.4844 36.6379 25.1914 36.302 25.3438 35.7395C25.6603 34.5715 23.6679 33.0364 19.7304 31.6223Z" fill="black"/>
</svg>
