<svg width="62" height="90" viewBox="0 0 62 90" fill="none" xmlns="http://www.w3.org/2000/svg">
<path d="M1.73937 44.9373C3.33937 53.4373 8.53937 60.4373 15.6394 64.5373C14.9394 66.0373 13.4394 70.7372 13.1394 71.6372C10.2394 70.9372 5.93937 73.3373 4.43937 75.4373C1.83937 79.3373 2.83937 84.7373 6.63937 87.4373C10.4394 90.2373 15.9394 89.3373 18.8394 85.5373C19.8394 84.1373 20.4394 82.5373 20.4394 80.8373C22.2394 80.8373 24.1394 80.8373 25.9394 80.8373C32.9394 80.7373 39.9394 81.1373 46.8394 82.2373C47.0394 82.6373 47.1394 83.0373 47.3394 83.4373C47.8394 84.6373 48.1394 86.4373 49.3394 87.0373C50.6394 87.7373 51.9394 87.1373 52.4394 85.7373C52.8394 84.5373 51.9394 83.0373 51.5394 81.9373C50.5394 79.4373 49.5394 77.0373 48.6394 74.5373C47.5394 71.7373 46.5394 68.8372 45.2394 66.1372C51.3394 63.7372 56.4394 59.3373 59.3394 52.9373C60.9394 49.3373 61.6394 45.5373 61.9394 41.6373C62.0394 40.5373 60.8394 39.5373 59.8394 39.5373C43.7394 39.8373 27.5394 39.0373 11.4394 39.1373C8.53937 39.1373 5.63937 39.1373 2.73937 39.2373C-0.560629 39.6373 -0.860629 44.1373 1.73937 44.9373ZM9.63937 83.0373C8.23937 81.9373 7.93937 79.7373 9.13937 78.3373C10.1394 77.2373 11.0394 76.9373 12.3394 76.9373C12.9394 76.9373 13.7394 77.4373 14.0394 77.7373C17.5394 80.7373 13.1394 85.8373 9.63937 83.0373ZM26.3394 76.9373C24.2394 77.0373 22.0394 77.1373 19.9394 77.5373C19.5394 76.1373 18.7394 74.9373 17.7394 73.8373C18.1394 72.6373 19.6394 67.9372 19.9394 66.6372C22.1394 67.5372 24.5394 68.1373 26.9394 68.4373C31.7394 69.0373 36.6394 68.8372 41.2394 67.6372C42.1394 70.6372 44.9394 77.4373 45.1394 77.9373C38.8394 77.0373 32.6394 76.7373 26.3394 76.9373ZM52.9394 44.1373C54.4394 44.0373 55.8394 43.9373 57.3394 43.9373C55.7394 52.9373 50.7394 60.4373 41.2394 63.1373C32.7394 65.5373 22.3394 64.9373 15.0394 59.7373C10.0394 56.1373 6.83937 50.7373 5.03937 45.0373C20.9394 44.3373 36.9394 44.9373 52.9394 44.1373Z" fill="black"/>
<path d="M11.6394 35.7372C9.73938 30.9372 8.93938 26.0372 11.1394 21.2372C11.7394 19.9372 12.4394 18.8372 13.3394 17.7372C13.3394 18.8372 13.4394 19.9372 13.9394 21.1372C15.5394 25.1372 20.1394 27.5372 24.2394 25.9372C32.1394 22.8372 32.4394 14.3372 32.3394 6.83723C34.5394 9.03723 36.3394 11.6372 37.1394 14.7372C38.1394 18.5372 37.7394 22.2372 37.9394 26.0372C37.9394 27.4372 39.3394 28.6372 40.7394 28.1372C44.6394 26.8372 47.8394 24.1372 50.5394 21.1372C52.4394 25.5372 53.4394 31.2372 49.6394 34.5372C47.0394 36.8372 51.6394 40.7372 53.4394 37.5372C57.4394 30.4372 56.8394 23.2372 52.9394 16.1372C52.2394 14.9372 50.4394 14.6372 49.4394 15.7372C47.3394 18.1372 45.0394 20.9372 42.2394 22.7372C42.2394 19.1372 42.1394 15.5372 40.8394 12.0372C39.1394 7.13723 35.4394 3.33723 31.3394 0.337229C29.9394 -0.662771 28.1394 0.73723 28.0394 2.23723C27.9394 7.33723 29.0394 12.9372 26.9394 17.7372C25.6394 20.7372 22.0394 24.0372 18.8394 21.4372C15.8394 18.8372 17.5394 14.3372 20.1394 12.2372C21.4394 11.2372 20.0394 8.63723 18.4394 9.33723C13.3394 11.4372 9.33938 14.9372 7.13938 20.0372C4.73938 25.6372 5.03938 32.0372 8.23938 37.1372C9.43938 38.7372 12.4394 37.6372 11.6394 35.7372Z" fill="black"/>
<path d="M40.0394 58.9372C42.6394 58.3372 44.9394 57.3372 47.1394 55.6372C48.9394 54.2372 51.0394 52.0372 51.3394 49.7372C51.4394 48.7372 50.1394 48.0372 49.3394 48.5372C47.7394 49.7372 46.7394 51.6372 45.2394 52.9372C43.5394 54.3372 41.4394 55.4372 39.3394 55.9372C37.2394 56.3372 38.0394 59.3372 40.0394 58.9372Z" fill="black"/>
<path d="M32.8394 60.6373C33.5394 61.0373 34.3394 61.0373 35.1394 60.6373C35.6394 60.3373 36.0394 59.6373 36.0394 59.0373C36.0394 58.5373 36.0394 57.0373 34.4394 56.4373C33.7394 56.2373 32.8394 56.5373 32.3394 57.0373C31.8394 57.5373 31.5394 58.4373 31.7394 59.2373C31.9394 59.8373 32.3394 60.3373 32.8394 60.6373Z" fill="black"/>
</svg>
