<svg width="64" height="49" viewBox="0 0 64 49" fill="none" xmlns="http://www.w3.org/2000/svg">
<path d="M63.6375 9.24731C63.3175 8.73731 62.7975 8.37731 62.1975 8.23731C61.5875 8.10731 60.9775 8.21731 60.4675 8.54731L53.1475 13.1973C52.2575 13.7673 51.8875 14.8573 52.1975 15.8173L47.4375 18.8473C44.1775 16.3773 39.0175 14.6573 33.0575 14.2473L41.8875 8.63731C42.3175 9.03731 42.8875 9.24731 43.4575 9.24731C43.8775 9.24731 44.2975 9.13731 44.6775 8.88731L51.9975 4.23731C52.5175 3.91731 52.8775 3.40731 53.0075 2.79731C53.1475 2.19731 53.0475 1.57731 52.7075 1.06731C52.0175 -0.00268841 50.5975 -0.322688 49.5275 0.357312L42.2175 5.00731C41.6975 5.33731 41.3375 5.84731 41.1975 6.44731C41.1175 6.84731 41.1375 7.25731 41.2575 7.64731L30.9975 14.1673C30.8675 14.1573 30.7375 14.1573 30.6075 14.1573L30.5675 13.8773C30.4975 13.4173 30.2575 13.0073 29.8775 12.7373C29.5075 12.4673 29.0575 12.3473 28.5975 12.4073L21.4275 13.4673C20.4775 13.6073 19.8275 14.4873 19.9675 15.4373L19.9975 15.5773C17.3975 16.3473 15.1575 17.3773 13.4175 18.6273L4.93754 14.4873C3.84754 13.9573 2.53754 14.0473 1.52754 14.7273C0.48754 15.4173 -0.0724605 16.5673 0.00753953 17.7973C0.0875395 19.0473 0.797539 20.1073 1.91754 20.6573L9.46754 24.3373C9.45754 24.5373 9.42754 24.7573 9.42754 24.9673V34.3973C9.42754 36.3673 10.4675 38.2173 12.2475 39.8173C12.3175 40.3373 12.4775 40.8473 12.6975 41.3473C12.8675 41.7273 13.1275 42.1573 13.4575 42.6273C16.0875 46.1173 22.5375 48.5373 30.2675 48.5373C37.9875 48.5373 44.4175 46.1173 47.0475 42.6273C47.2975 42.2773 47.5375 41.8773 47.7675 41.4373C48.0175 40.9173 48.1875 40.3673 48.2575 39.8073C50.0475 38.2073 51.0975 36.3573 51.0975 34.3873V24.9573C51.0975 23.0273 50.0975 21.2173 48.3875 19.6373L52.8275 16.8273C53.1275 17.0873 53.4775 17.2873 53.8875 17.3873C54.0575 17.4273 54.2175 17.4373 54.3875 17.4373C54.8275 17.4373 55.2575 17.3173 55.6175 17.0773L62.9375 12.4273C63.4475 12.0973 63.8175 11.5873 63.9475 10.9873C64.0775 10.3873 63.9675 9.77731 63.6375 9.24731ZM31.3175 15.3673C37.4675 15.5373 42.9675 17.1573 46.3575 19.5473L43.0475 21.6473C39.8575 20.2373 35.7875 19.3573 31.3475 19.2273L30.8275 15.6773L31.3175 15.3673ZM41.6575 25.8073L38.1675 30.4973C38.0875 30.6073 37.9775 30.6673 37.8575 30.6873C37.7275 30.6973 37.6075 30.6773 37.4975 30.6073L32.0975 26.5873C31.8975 26.4373 31.8475 26.1373 32.0075 25.9373L35.4975 21.2473C35.5775 21.1373 35.6875 21.0773 35.8075 21.0573H35.8775C35.9675 21.0573 36.0775 21.0773 36.1575 21.1473L41.5475 25.1573C41.7675 25.3073 41.8175 25.5973 41.6575 25.8073ZM21.6075 14.6273L28.7575 13.5673H28.8375C28.9575 13.5673 29.0775 13.6073 29.1675 13.6773C29.2875 13.7573 29.3575 13.8873 29.3775 14.0373L30.3075 20.2673C30.3275 20.4073 30.2975 20.5473 30.1975 20.6673C30.1175 20.7873 29.9875 20.8573 29.8375 20.8773L22.6675 21.9373C22.5275 21.9573 22.3875 21.9173 22.2675 21.8273C22.1475 21.7473 22.0675 21.6173 22.0575 21.4673L21.1475 15.2473C21.0975 14.9473 21.2975 14.6773 21.6075 14.6273ZM26.3675 29.6873H27.3675C27.6975 29.6873 27.9575 29.9473 27.9575 30.2773C27.9575 30.6073 27.6975 30.8673 27.3675 30.8673H26.3675C26.0375 30.8673 25.7775 30.6073 25.7775 30.2773C25.7775 29.9473 26.0375 29.6873 26.3675 29.6873ZM25.7775 23.5873C25.7775 23.2673 26.0375 22.9973 26.3675 22.9973H27.3675C27.6975 22.9973 27.9575 23.2673 27.9575 23.5873C27.9575 23.9173 27.6975 24.1773 27.3675 24.1773H26.3675C26.0375 24.1773 25.7775 23.9173 25.7775 23.5873ZM27.6275 27.4273C27.3075 27.4273 27.0375 27.1673 27.0375 26.8373C27.0375 26.5173 27.3075 26.2473 27.6275 26.2473H28.6275C28.9575 26.2473 29.2175 26.5173 29.2175 26.8373C29.2175 27.1673 28.9575 27.4273 28.6275 27.4273H27.6275ZM21.5475 25.6273C21.5475 25.9473 21.2775 26.2173 20.9575 26.2173H19.9575C19.6275 26.2173 19.3675 25.9473 19.3675 25.6273C19.3675 25.2973 19.6275 25.0373 19.9575 25.0373H20.9575C21.2775 25.0273 21.5475 25.2973 21.5475 25.6273ZM19.4075 29.1473C19.4075 29.4773 19.1375 29.7373 18.8175 29.7373H17.8175C17.4875 29.7373 17.2275 29.4773 17.2275 29.1473C17.2275 28.8273 17.4875 28.5573 17.8175 28.5573H18.8175C19.1275 28.5573 19.4075 28.8273 19.4075 29.1473ZM20.1675 16.7273L20.7175 20.4773C15.9575 21.8373 12.3975 24.2073 11.0975 27.0473C10.7875 26.3673 10.6275 25.6673 10.6275 24.9573C10.6075 21.4573 14.4575 18.4073 20.1675 16.7273ZM49.9075 34.3973C49.9075 39.7173 41.0875 44.0473 30.2675 44.0473C19.4275 44.0473 10.6075 39.7173 10.6075 34.3973V28.5973C13.4175 32.8373 21.0475 35.7973 30.2675 35.7973C39.3475 35.7973 47.0575 32.7573 49.9075 28.5373V34.3973ZM49.9075 24.9573C49.9075 25.6773 49.7275 26.3773 49.4175 27.0573C48.5775 25.1973 46.7675 23.5473 44.3075 22.2373L47.3575 20.3073C48.9675 21.6973 49.9075 23.2873 49.9075 24.9573Z" fill="black"/>
</svg>
