<svg width="89" height="102" viewBox="0 0 89 102" fill="none" xmlns="http://www.w3.org/2000/svg">
<path d="M72.343 86.1791C70.9087 79.0042 64.5554 73.7959 57.2367 73.7959H45.4559C38.139 73.7959 31.7856 79.0042 30.3513 86.1791L29.9491 88.1936C29.6461 89.7084 30.033 91.2608 31.0137 92.4555C31.9944 93.6501 33.439 94.3348 34.9828 94.3348H67.7098C69.2536 94.3348 70.7016 93.6501 71.6807 92.4555C72.6597 91.2608 73.0482 89.7084 72.7452 88.1936L72.343 86.1791ZM51.3472 84.0722C52.3484 86.097 52.9749 88.1081 52.5692 88.8629C52.4015 89.1761 51.5919 89.2 51.3472 89.2C51.1024 89.2 50.2928 89.1761 50.1251 88.8629C49.7195 88.1081 50.3459 86.097 51.3472 84.0722ZM69.0328 90.2852C68.7077 90.684 68.225 90.9116 67.7115 90.9116H55.3129C55.419 90.7661 55.5131 90.6207 55.5884 90.4786C57.4421 87.0178 53.5671 80.8869 52.7712 79.694C52.1362 78.7406 50.5581 78.7406 49.9231 79.694C49.1273 80.8869 45.2523 87.0178 47.1059 90.4786C47.1812 90.6207 47.2771 90.7661 47.3815 90.9116H34.9828C34.4676 90.9116 33.985 90.684 33.6598 90.2852C33.3329 89.8881 33.2028 89.3695 33.3038 88.8646L33.706 86.8501C34.8237 81.2703 39.765 77.219 45.4577 77.219H57.2384C62.9311 77.219 67.8707 81.2703 68.9866 86.8501L69.3889 88.8646C69.4898 89.3695 69.3598 89.8864 69.0328 90.2852Z" fill="black"/>
<path d="M57.9666 13.39L55.8987 16.1179L57.2626 17.1519L59.3306 14.424L57.9666 13.39Z" fill="black"/>
<path d="M62.1041 7.93408L60.0362 10.662L61.4002 11.6959L63.4681 8.96804L62.1041 7.93408Z" fill="black"/>
<path d="M55.8876 6.21729L53.8197 8.94519L55.1836 9.97915L57.2515 7.25125L55.8876 6.21729Z" fill="black"/>
<path d="M1.71157 17.314H25.6736C26.6184 17.314 27.3852 16.5472 27.3852 15.6024V13.8909H46.4709L45.877 23.6794C45.7486 25.8034 46.9536 27.9223 48.7593 28.8209C48.7712 28.8278 48.7798 28.8397 48.7918 28.8466C49.9625 29.509 51.2325 30.6112 51.3472 31.0066V36.1413C29.1429 36.1413 15.5565 39.4737 14.9882 39.6158C14.2625 39.7972 13.7371 40.4305 13.6943 41.1802C13.6857 41.3222 13.7114 41.4592 13.7371 41.5961L13.7217 41.5995L18.1341 64.6544C18.6116 67.523 20.8076 69.7052 23.5683 70.241L18.081 94.9338C17.7404 96.4622 18.1084 98.0386 19.0875 99.2607C20.0699 100.481 21.5299 101.181 23.0942 101.181H79.6001C81.1662 101.181 82.6261 100.481 83.6052 99.2589C84.5842 98.0369 84.9522 96.4605 84.6116 94.9321L79.1243 70.2392C81.885 69.7035 84.0793 67.5264 84.5517 64.692L88.9709 41.5978L88.9555 41.5944C88.9812 41.4592 89.0069 41.3222 88.9983 41.1785C88.9555 40.4288 88.4301 39.7972 87.7044 39.6141C87.1686 39.4806 74.9326 36.4888 54.7703 36.1721V32.7182C54.7703 30.5753 59.8742 27.9531 62.3286 26.6934C62.9482 26.3751 63.501 26.091 63.9426 25.8428C67.2614 23.9874 72.2763 21.1822 72.865 15.7565C73.2433 12.2717 71.744 8.79381 68.9507 6.6766L62.8215 2.03139C60.03 -0.0858246 56.2765 -0.589027 53.0211 0.715191C49.4422 2.15291 46.9775 5.56921 46.7447 9.42025L46.6797 10.4677H27.3852V8.75616C27.3852 7.81137 26.6184 7.04458 25.6736 7.04458H1.71157C0.766784 7.04458 0 7.81137 0 8.75616V15.6024C0 16.5472 0.766784 17.314 1.71157 17.314ZM51.3472 39.5645V44.6992C38.8099 44.6992 28.9786 43.027 22.9008 41.6115C29.0214 40.6684 38.8475 39.5645 51.3472 39.5645ZM83.7096 50.8814C78.8932 52.2558 68.7881 54.5869 54.7703 54.9258V48.0761C69.6764 47.7269 80.2881 45.1921 85.0651 43.792L83.7096 50.8814ZM51.3472 54.9686C35.5511 54.9686 24.1845 52.3653 18.9848 50.8814L17.6292 43.792C22.7656 45.2965 34.6319 48.1223 51.3472 48.1223V54.9686ZM80.9351 97.1161C80.6082 97.5251 80.1221 97.7579 79.6001 97.7579H23.0942C22.5722 97.7579 22.0861 97.5251 21.7592 97.1161C21.4323 96.7087 21.3108 96.1833 21.4237 95.6732L27.0463 70.3728H75.6481L81.2706 95.6749C81.3835 96.185 81.262 96.7104 80.9351 97.1161ZM81.1833 64.0896C80.906 65.7464 79.4854 66.9496 77.8046 66.9496H24.8897C23.2089 66.9496 21.7883 65.7464 21.5059 64.0485L19.7019 54.6246C25.6428 56.1821 36.655 58.3917 51.3472 58.3917C66.0393 58.3917 77.0515 56.1821 82.9941 54.6246L81.1833 64.0896ZM79.8038 41.6132C74.3028 42.8952 65.6901 44.3757 54.7703 44.6427V39.6004C65.6422 39.7784 74.2583 40.7574 79.8038 41.6132ZM69.4607 15.3885C69.0927 18.7774 65.8493 20.8535 62.2704 22.8561C61.8596 23.0872 61.3427 23.3524 60.7642 23.6485C58.4998 24.8124 55.5439 26.3374 53.5517 28.292C53.3805 28.0969 53.2059 27.9018 53.0194 27.7238C57.0142 25.6631 64.2507 20.7919 68.4937 11.1917C69.2605 12.4292 69.6216 13.9063 69.4607 15.3885ZM54.2945 3.89529C56.4391 3.03608 58.914 3.36642 60.7522 4.76135L65.8425 8.61923C61.454 19.664 52.5008 24.2767 49.8564 25.4234C49.5175 25.0537 49.2573 24.4958 49.295 23.8882L49.5825 19.1574L50.3151 19.7119L52.3827 16.9837L51.0185 15.9499L49.6698 17.7299L50.161 9.63077C50.3134 7.09251 51.9359 4.84179 54.2945 3.89529ZM3.42314 10.4677H23.962V13.8909H3.42314V10.4677Z" fill="black"/>
</svg>
