<svg width="78" height="48" viewBox="0 0 78 48" fill="none" xmlns="http://www.w3.org/2000/svg">
<path d="M31.2 15.4C31 15.5 30.8 15.5 30.6 15.5C30.4 15.5 30.1 15.5 29.9 15.4V29.9C30.3 30 30.8 30.1 31.2 30.2V15.4Z" fill="black"/>
<path d="M33.9 31V15.4C33.7 15.5 33.5 15.5 33.3 15.5C33.1 15.5 32.9 15.5 32.7 15.4V30.6C33.1 30.7 33.5 30.9 33.9 31Z" fill="black"/>
<path d="M35.6 31.7C35.6 31.7 36.1 31.9 36.7 32.1V15.4C36.5 15.5 36.3 15.5 36.1 15.5C35.9 15.5 35.7 15.5 35.5 15.4V31.6C35.5 31.6 35.5 31.7 35.6 31.7Z" fill="black"/>
<path d="M39.2 33C39.3 33 39.4 33.1 39.4 33.1V15.4C39.2 15.5 39 15.5 38.7 15.5C38.5 15.5 38.3 15.5 38.1 15.4V32.6C38.7 32.8 39.2 33 39.2 33Z" fill="black"/>
<path d="M57.8 5.2C57.2 5.2 55 5.5 53.8 3.1C52.5 0.500001 49 0.700001 49 0.700001H45.6C45.6 0.700001 45.6 0.700001 47.2 0.700001H40.8C40.8 0.700001 40.8 0.700001 40.8 0.800001V3H43V4.1H40.8V6.4H43V7.5H40.8V9.8H43V10.9H40.8V13.2H45.6H45.7H49C49 13.2 52.5 13.5 53.8 10.9C55 8.6 57.1 8.8 57.8 8.8C58.5 8.8 77.8 8.8 77.8 8.8V5.2C77.8 5.2 58.4 5.2 57.8 5.2Z" fill="black"/>
<path d="M27.5 6.4H28.5V4.1H27.5C26.9 4.1 26.3 4.6 26.3 5.3C26.4 5.9 26.9 6.4 27.5 6.4Z" fill="black"/>
<path d="M27.5 9.8H28.5V7.5H27.5C26.9 7.5 26.3 8 26.3 8.7C26.4 9.3 26.9 9.8 27.5 9.8Z" fill="black"/>
<path d="M27.5 3H28.5V0.800001C28.5 0.800001 28.5 0.800001 28.5 0.700001C26.8 0.800001 26.4 1.3 26.4 1.8C26.4 2.5 26.9 3 27.5 3Z" fill="black"/>
<path d="M27.5 13.2H28.5V10.9H27.5C26.9 10.9 26.3 11.4 26.3 12.1C26.4 12.6 26.9 13.2 27.5 13.2Z" fill="black"/>
<path d="M30.6 14.1C30.9 14.1 31.2 13.9 31.2 13.6C31.2 13.6 31.2 13.6 31.2 13.5V13.4V13.2V13.1V13V12V11.2V10.8V9.7V7.4V6.3V4V2.9V0.700001C31.2 0.700001 31.2 0.7 31.2 0.6C31.1 0.3 30.9 0 30.6 0C30.3 0 30 0.3 29.9 0.6C29.9 0.6 29.9 0.600001 29.9 0.700001V2.9V4V6.3V7.4V9.7V10.8V11.2V12V13.1V13.2V13.4C29.9 13.8 30.2 14.1 30.6 14.1Z" fill="black"/>
<path d="M32.7 13.6C32.8 13.9 33 14.1 33.3 14.1C33.6 14.1 33.9 13.9 33.9 13.6C33.9 13.6 33.9 13.6 33.9 13.5V13.4V13.2V13.1V13V12V11.2V10.8V9.7V7.4V6.3V4V2.9V0.700001C33.9 0.700001 33.9 0.7 33.9 0.6C33.8 0.3 33.6 0 33.3 0C33 0 32.7 0.2 32.7 0.6C32.7 0.6 32.7 0.600001 32.7 0.700001V2.9V4V6.3V7.4V9.7V10.8V11.2V12V12.9V13.1V13.2V13.4C32.6 13.5 32.6 13.5 32.7 13.6Z" fill="black"/>
<path d="M35.4 13.6C35.5 13.9 35.7 14.1 36 14.1C36.3 14.1 36.6 13.9 36.6 13.6C36.6 13.6 36.6 13.6 36.6 13.5V13.4V13.2V13.1V13V12V11.2V10.8V9.7V7.4V6.3V4V2.9V0.700001C36.6 0.700001 36.6 0.7 36.6 0.6C36.5 0.3 36.3 0 36 0C35.7 0 35.4 0.2 35.4 0.6C35.4 0.6 35.4 0.600001 35.4 0.700001V2.9V4V6.3V7.4V9.7V10.8V11.2V12V12.9V13.1V13.2V13.4C35.4 13.5 35.4 13.5 35.4 13.6Z" fill="black"/>
<path d="M38.1 13.6C38.2 13.9 38.4 14.1 38.7 14.1C39.1 14.1 39.4 13.8 39.4 13.4V13.2V13.1V12V11.2V10.8V9.7V7.4V6.3V4V2.9V0.700001C39.4 0.700001 39.4 0.7 39.4 0.6C39.4 0.3 39.1 0 38.7 0C38.4 0 38.1 0.2 38 0.6C38 0.6 38 0.600001 38 0.700001V2.9V4V6.3V7.4V9.7V10.8V11.2V12V12.9V13.1V13.2V13.4C38.1 13.5 38.1 13.5 38.1 13.6Z" fill="black"/>
<path d="M36.6 37C36.4 37 36.3 37 36.1 36.9C36 37 35.8 37.1 35.7 37.2C36.2 37.2 36.6 37.1 37 37C36.9 37 36.7 37 36.6 37Z" fill="black"/>
<path d="M41.4 34.7C41.7 34.9 42.5 35.2 42.5 35.2H42.9C42.9 35.2 42.9 35.2 43 35.2C43.1 35.2 43.2 35.2 43.3 35.2C44.8 35.1 46.3 35.2 47.7 35.7L48 35.8C48.2 35.6 48.5 35.4 48.7 35.2L47.9 34.9C45.8 34.2 43.6 34.2 41.4 34.7Z" fill="black"/>
<path d="M64.2 36.5C62.5 35.1 60.6 35.6 58.6 36.4C58.9 36.6 59.1 36.8 59.4 37.1C59.9 36.9 60.4 36.7 60.9 36.6C62.6 36.2 64 37 65.1 38.9C65.4 38.9 65.6 39 65.9 39.1C66 39.1 66.1 39.2 66.2 39.2C65.7 38.1 65.1 37.1 64.2 36.5Z" fill="black"/>
<path d="M63 40.7C63.2 40.7 63.3 40.7 63.5 40.8H64.5H65.3H66.1H66.7H66.8C66.8 40.8 66.8 40.8 66.7 40.8C66.4 40.6 66.2 40.5 65.9 40.4C65.8 40.4 65.8 40.4 65.7 40.3C65.5 40.3 65.3 40.2 65.1 40.2C64.8 40.1 64.5 40.1 64.3 40C63.6 39.9 62.9 39.8 62.2 39.7L62.7 40.2L62.6 40.1C62.7 40.3 62.9 40.5 63 40.7Z" fill="black"/>
<path d="M21.5 33.3H21.9C22.2 33.1 22.5 32.9 22.5 32.9C23.8 32.2 25.4 32.1 27.2 32.6C27.6 32.5 28 32.4 28.4 32.4C28.6 32.4 28.9 32.4 29.1 32.4C29.2 32.4 29.2 32.4 29.3 32.4C29.5 32.4 29.7 32.5 29.8 32.5C30.2 32.6 30.5 32.7 30.9 32.7C31 32.7 31.1 32.7 31.1 32.7C31.3 32.7 31.5 32.7 31.8 32.7C32 32.7 32.2 32.7 32.5 32.7C32.9 32.7 33.3 32.7 33.8 32.7C34 32.7 34.2 32.7 34.4 32.7C34.2 32.6 34 32.5 33.8 32.4C33.4 32.2 32.9 32.1 32.5 31.9C32.3 31.8 32.1 31.7 31.8 31.7C31.6 31.6 31.4 31.6 31.1 31.5C30.7 31.4 30.2 31.3 29.8 31.2C29.6 31.2 29.3 31.1 29.1 31.1C28.9 31.1 28.6 31.1 28.4 31.1C27.9 31.1 27.5 31.1 27 31.1C24.8 31.3 21.8 31.9 18.7 33.1C18.9 33.1 19.2 33.1 19.4 33.1C19.5 33.3 21.5 33.3 21.5 33.3Z" fill="black"/>
<path d="M11 39.6C11.2 39.3 11.4 39.1 11.6 38.8C12.1 38.1 12.6 37.4 13.8 36.8C14 36.7 14.3 36.6 14.5 36.5C14.9 36.2 15.5 35.8 16.3 35.5C17 35.2 17.7 35.2 18.2 35.1C18.6 35.1 19 35.1 19.3 34.9L19.6 34.7H19.3C18.9 34.7 18.4 34.7 18 34.7C17 34.7 16 34.8 15.1 35C14.9 35.1 14.7 35.1 14.4 35.2C14.2 35.3 14.1 35.3 13.9 35.4C13.7 35.5 13.4 35.6 13.2 35.7C11.6 36.6 10.5 38.1 9.90002 39C9.50002 39.5 9.30002 39.9 9.00002 40C8.90002 40 8.90002 40.1 8.90002 40.1C9.50002 39.8 10.2 39.6 10.5 39.6C10.8 39.6 10.9 39.6 11 39.6Z" fill="black"/>
<path d="M33.9 34.2C33.7 34.2 33.5 34.2 33.3 34.2C33.1 34.2 32.8 34.2 32.6 34.2C32.4 34.2 32.2 34.2 31.9 34.2C31.7 34.2 31.4 34.2 31.2 34.2C31.1 34.2 30.9 34.2 30.8 34.2C30.8 34.2 30.8 34.2 30.7 34.2C30.8 34.3 31 34.4 31.1 34.5C31.3 34.6 31.5 34.7 31.7 34.9C31.9 35 32.1 35.2 32.3 35.3C32.5 35.3 32.6 35.3 32.8 35.3C32.9 35.3 33 35.3 33.1 35.3C33.3 35.3 33.5 35.3 33.8 35.3C33.9 35.3 34.1 35.3 34.2 35.3C34.3 35.3 34.4 35.3 34.5 35.3C34.5 35.3 34.5 35.3 34.6 35.3C34.7 35.3 34.8 35.3 35 35.3C35.2 35.3 35.4 35.3 35.5 35.4C35.8 35.4 36.2 35.5 36.5 35.5H36.6C36.9 35.5 37.1 35.6 37.4 35.7C37.5 35.7 37.6 35.8 37.7 35.8C37.8 35.8 37.8 35.8 37.9 35.8C38 35.8 38.1 35.9 38.2 35.9C38.4 36 38.7 36.1 38.9 36.2C39 36.2 39.1 36.3 39.2 36.3H39.3C39.4 36.3 39.5 36.3 39.6 36.2C39.9 36.1 40.3 36.1 40.6 36.1C40.8 36.1 40.9 36.1 41.1 36.1L40.2 35.7C40.2 35.7 40.2 35.7 40.1 35.7C40 35.7 39.9 35.6 39.9 35.6C39.8 35.5 39.6 35.5 39.5 35.4C39.4 35.4 39.3 35.3 39.2 35.3C39.1 35.3 39.1 35.2 39 35.2C38.9 35.2 38.8 35.1 38.8 35.1C38.7 35.1 38.7 35 38.6 35C38.4 34.9 38.3 34.9 38.1 34.8C38 34.8 37.9 34.7 37.7 34.7C37.5 34.6 37.3 34.6 37 34.5C36.8 34.5 36.6 34.4 36.3 34.4C36.2 34.4 36.2 34.4 36.1 34.4H36C35.7 34.4 35.4 34.3 35.1 34.3C34.9 34.3 34.6 34.3 34.4 34.2C34.4 34.2 34.2 34.2 33.9 34.2Z" fill="black"/>
<path d="M17 37.9C17.1 37.8 17.2 37.8 17.2 37.8L18.8 37.4C19.3 37.3 19.8 37.2 20.3 37C20.4 36.9 20.6 36.9 20.7 36.8L21.4 36.3L21.7 36.1C21.9 35.9 22.2 35.7 22.5 35.6C22.8 35.4 23.2 35.2 23.6 35C24.1 34.8 24.7 34.6 25.4 34.7C26.2 34.7 27.2 35 28.1 35.5C28.3 35.6 28.5 35.7 28.7 35.8H28.8L29.4 36.2L29.5 36.3C29.9 36.5 30.2 36.7 30.6 36.9C30.7 36.9 30.7 37 30.8 37C31.1 37.2 31.4 37.4 31.7 37.6C32.2 37.6 32.6 37.6 33 37.6C32.7 37.4 32.5 37.2 32.2 37C32.1 36.9 31.9 36.8 31.8 36.7C31.6 36.6 31.3 36.4 31.1 36.3C31 36.2 30.9 36.2 30.7 36.1L29.8 35.2L29.2 34.9L29 34.8C28.8 34.7 28.7 34.6 28.5 34.6C28.3 34.5 28.2 34.5 28 34.4C27.7 34.3 27.5 34.2 27.2 34.1C26.8 34 26.4 33.9 26 33.8C25.9 33.8 25.8 33.8 25.7 33.8C25 33.7 24.3 33.8 23.7 34C23.5 34.1 23.4 34.1 23.2 34.2L22.9 34.4L22.4 34.6L21.7 35L21.4 35.2L21 35.4L20.1 36C20 36.1 19.8 36.1 19.7 36.2C19.3 36.4 18.8 36.4 18.4 36.4C17.9 36.4 17.5 36.5 17 36.7C16.1 37 15.6 37.4 15.3 37.7C15.1 37.8 15 37.9 14.9 38L14.6 38.3C14.2 38.6 14.1 38.8 14 38.8C14.4 38.7 14.7 38.6 15.1 38.4C15.8 38.3 16.4 38.1 17 37.9Z" fill="black"/>
<path d="M49.1 40.7L49.2 40.8H51C51 40.7 51 40.7 50.9 40.6C50.4 40.5 49.8 40.5 49.1 40.7Z" fill="black"/>
<path d="M32.9 39.2C33 39.2 33.5 39.5 34 39.7C34.1 39.7 34.1 39.7 34.2 39.7C34.5 39.7 34.9 39.7 35.2 39.7C35.4 39.7 35.6 39.7 35.6 39.7C35.7 39.7 35.8 39.7 36 39.7C36.1 39.7 36.1 39.7 36.2 39.7C36.4 39.7 36.6 39.7 36.7 39.6C37.4 39.5 38 39.4 38.5 39.3C38.6 39.3 39.8 38.7 41.2 38.8C41.6 38.8 42 38.9 42.4 38.9C42.5 38.9 42.7 38.8 42.8 38.8C43.2 38.6 43.7 38.5 44.2 38.3L43.8 38.1H43.7C42.9 37.8 42.2 37.6 41 37.7C40.9 37.7 40.9 37.7 40.8 37.7C40.4 37.7 39.9 37.8 39.5 37.9C39.3 38 39 38 38.8 38.1C38.7 38.1 38.6 38.1 38.5 38.2C37.9 38.4 37.2 38.5 36.5 38.6C36.4 38.6 36.3 38.6 36.1 38.6C35.9 38.6 35.6 38.7 35.4 38.7H35.3H35.1H34.4H34.1H33.4H33.3C33.1 38.7 32.9 38.7 32.7 38.7C32.5 38.7 32.4 38.7 32.2 38.7C32 38.7 31.9 38.7 31.7 38.7C32.2 38.9 32.5 39.1 32.9 39.2Z" fill="black"/>
<path d="M58.4 38.1C58.2 37.9 58 37.8 57.8 37.6C57.5 37.4 57.3 37.2 57 37C56.8 36.8 56.5 36.7 56.3 36.5C56 36.3 55.6 36.1 55.3 36C54.2 35.5 53.2 35.3 52.3 35.3C52.2 35.3 52.2 35.3 52.1 35.3C51.7 35.3 51.4 35.4 51 35.5C50.7 35.6 50.4 35.7 50.1 35.9C49.8 36.1 49.5 36.3 49.3 36.5C49.1 36.7 48.9 36.8 48.7 37H48.8C49.2 36.9 49.6 36.9 50 36.9L50.1 36.8C50.4 36.6 50.7 36.4 51 36.3C51.3 36.2 51.5 36.1 51.8 36.1C52 36.1 52.1 36.1 52.3 36.1C53.1 36.1 53.9 36.3 54.7 36.7C55 36.8 55.3 37 55.7 37.2C55.8 37.3 55.9 37.3 56 37.4C56.3 37.6 56.6 37.8 56.9 38C57 38.1 57 38.1 57.1 38.2C57.2 38.3 57.4 38.4 57.5 38.6C57.6 38.7 57.8 38.8 57.9 38.9C58 39 58 39 58.1 39.1C58.2 39.2 58.4 39.4 58.5 39.5L58.6 39.6L59.4 40.5C59.5 40.6 59.6 40.8 59.7 40.9H61L60.8 40.4L59.9 39.5C59.7 39.2 59.4 39 59.2 38.8C59.2 38.7 59.1 38.7 59.1 38.6C58.9 38.4 58.7 38.3 58.4 38.1C58.5 38.1 58.5 38.1 58.4 38.1Z" fill="black"/>
<path d="M12.5 40.8H16.6C16.9 40.7 17.3 40.6 17.6 40.5C20.3 39.6 22.4 39.4 24.5 39.6C24.9 39.6 25.3 39.7 25.8 39.7C26.2 39.8 26.6 39.8 27 39.9C27.5 40 28 40.1 28.5 40.2H28.6L29.7 40.6L30 40.7H32.8L32.3 40.5C32.2 40.5 32.2 40.4 32.1 40.4C31.6 40.2 31.2 40 30.7 39.7C30.2 39.5 29.7 39.3 29.1 39.1H29C28.6 39 28.1 38.9 27.7 38.8C27.3 38.7 26.8 38.6 26.3 38.6C24.5 38.4 22.6 38.4 20.3 38.6C19.2 38.7 18.3 38.9 17.4 39.2C16.8 39.4 16.2 39.6 15.6 39.8C15.1 40 14.5 40.2 14 40.3C13.6 40.5 13.1 40.6 12.5 40.8Z" fill="black"/>
<path d="M47.9 38.6C47.7 38.6 47.5 38.7 47.4 38.7C47.2 38.8 46.9 38.8 46.7 38.9C46.5 39 46.3 39 46.1 39.1C45.8 39.2 45.5 39.3 45.1 39.4C44.7 39.5 44.2 39.7 43.8 39.8C43.6 39.9 43.4 39.9 43.2 40C43 40.1 42.7 40.2 42.5 40.3C42.1 40.4 41.7 40.6 41.3 40.7H42.3H43.1H43.7C43.8 40.7 44 40.6 44.1 40.6C44.5 40.5 45 40.3 45.4 40.2C45.6 40.1 45.9 40.1 46.1 40C46.3 40 46.4 39.9 46.6 39.9C47 39.8 47.4 39.7 47.8 39.6C47.9 39.6 48 39.6 48.1 39.5C48.4 39.4 48.6 39.4 48.9 39.3H49C49.2 39.3 49.3 39.3 49.5 39.2C49.6 39.2 49.8 39.2 49.9 39.1C50.5 39.1 51.1 39.1 51.6 39.2C52.1 39.3 52.5 39.4 52.9 39.5C53.2 39.6 53.5 39.7 53.7 39.8C54 39.9 54.2 40 54.5 40.2C54.8 40.4 55.1 40.5 55.4 40.7C55.5 40.7 55.5 40.8 55.6 40.8H57C56.8 40.7 56.7 40.5 56.5 40.4C56.2 40.2 55.8 39.9 55.5 39.7C55.5 39.7 55.4 39.7 55.4 39.6C55.1 39.5 54.9 39.4 54.6 39.2C54.3 39.1 54 39 53.7 38.8C52.6 38.4 51.5 38.2 50.4 38.2C50.3 38.2 50.1 38.2 50 38.2C49.8 38.2 49.6 38.2 49.5 38.2C49.4 38.2 49.3 38.2 49.2 38.2C49.1 38.2 48.9 38.2 48.8 38.2C48.7 38.2 48.6 38.2 48.5 38.3C48.4 38.5 48.2 38.6 47.9 38.6Z" fill="black"/>
<path d="M72.2 42.2C72.2 42.2 71.2 42.2 69.5 42.2C69.3 42.2 69 42.2 68.8 42.2C68.5 42.2 68.3 42.2 68 42.2C67.8 42.2 67.6 42.2 67.4 42.2C67.3 42.2 67.2 42.2 67.2 42.2C66.9 42.2 66.6 42.2 66.2 42.2C66 42.2 65.8 42.2 65.7 42.2C65 42.2 64.2 42.2 63.5 42.2C63.4 42.2 63.4 42.2 63.3 42.2C63 42.2 62.8 42.2 62.5 42.2C61.9 42.2 61.2 42.2 60.6 42.2C60.5 42.2 60.5 42.2 60.4 42.2C60.2 42.2 60 42.2 59.8 42.2C59.7 42.2 59.5 42.2 59.4 42.2C59.2 42.2 59.1 42.2 58.9 42.2C58.5 42.2 58.1 42.2 57.7 42.2C57.3 42.2 57 42.2 56.6 42.2C56.3 42.2 56 42.2 55.7 42.2C55.6 42.2 55.5 42.2 55.4 42.2C55.1 42.2 54.8 42.2 54.6 42.2C54.2 42.2 53.8 42.2 53.5 42.2C53.2 42.2 52.8 42.2 52.5 42.2C52.3 42.2 52.1 42.2 51.9 42.2C51.8 42.2 51.8 42.2 51.7 42.2C50.9 42.2 50 42.2 49.2 42.2C48.4 42.2 47.6 42.2 46.9 42.2C46.4 42.2 45.9 42.2 45.4 42.2C45 42.2 44.6 42.2 44.1 42.2C43.8 42.2 43.5 42.2 43.3 42.2C43 42.2 42.7 42.2 42.5 42.2C42.3 42.2 42.2 42.2 42 42.2C41.1 42.2 40.3 42.2 39.6 42.2C38.3 42.2 37.4 42.2 37 42.2C36.9 42.2 36.8 42.2 36.8 42.2H34.2H34H32H30H28.2H27.5H26H24.5H23.3H22.7H22.6H21.9H17H13.9H9.9H9.1H8.4H7.6H0.3C0.2 42.2 0 42.2 0 42.2V42.3C0.2 43.2 5 44.8 10.2 45.8L10.8 45.9C10.8 45.9 10.8 46.8 10.8 47.2C12.1 47.2 60.7 47.2 62 47.2C62 46.9 62 45.9 62 45.9L62.6 45.8C67.8 44.8 72.6 43.1 72.8 42.3V42.2C72.6 42.2 72.4 42.2 72.2 42.2Z" fill="black"/>
</svg>
