<svg width="89" height="89" viewBox="0 0 89 89" fill="none" xmlns="http://www.w3.org/2000/svg">
<path d="M87.113 74.708C86.313 74.708 85.413 74.608 84.613 74.608C84.313 67.008 81.913 60.008 77.313 53.908C75.013 51.008 72.413 48.508 69.413 46.308C67.613 45.008 65.313 43.508 63.013 42.808C61.813 39.108 55.813 36.908 52.613 36.508C48.513 35.908 44.613 37.308 41.713 39.908C39.413 39.208 36.513 40.408 34.613 41.608C34.013 42.008 33.513 42.408 33.013 42.808C33.413 35.908 42.313 29.608 38.913 22.808C40.313 22.708 41.613 22.508 42.913 22.108C47.413 20.708 48.313 17.308 48.413 13.508C49.013 13.508 65.313 13.408 72.813 14.108C76.213 14.408 76.213 8.508 72.813 8.808C65.313 9.408 48.913 9.308 48.313 9.308C48.113 4.808 47.113 1.008 41.813 0.508C38.513 0.208 35.213 0.00799999 31.913 0.108C30.313 0.108 27.813 -0.192 25.913 0.208C22.613 0.208 18.713 3.608 17.413 6.008C14.813 10.408 15.713 16.408 18.713 20.508C20.213 22.508 22.713 23.808 24.013 25.908C25.813 28.808 22.813 32.008 21.213 34.308C18.013 39.108 16.713 44.008 20.213 49.008C20.613 49.508 21.113 49.808 21.613 49.908C17.813 52.408 14.413 55.408 11.713 58.708C9.51299 61.408 7.71299 64.408 6.31299 67.608C5.61299 69.308 4.41299 71.808 4.31299 74.008C3.11299 74.208 1.91299 74.408 0.712993 74.708C-0.187007 75.008 -0.287007 76.508 0.712993 76.708C1.91299 76.908 3.01299 77.008 4.21299 77.208C4.21299 77.408 4.31299 77.608 4.31299 77.708C5.21299 79.608 6.21299 81.408 7.31299 83.208C8.21299 84.808 8.81299 87.108 10.713 87.808C12.313 88.408 14.613 87.908 16.413 87.908C22.313 87.808 28.213 87.908 34.213 87.908C46.613 88.008 59.113 88.208 71.513 88.508C74.913 88.608 77.313 88.208 79.413 85.408C81.213 83.008 82.613 80.308 83.913 77.608C84.913 77.608 86.013 77.608 87.013 77.608C89.113 77.708 89.013 74.808 87.113 74.708ZM41.713 46.908C43.613 43.208 46.913 40.608 51.213 40.408C53.413 40.308 55.613 40.708 57.613 41.708C57.613 41.708 57.613 41.708 57.713 41.708C55.213 41.608 52.513 42.408 50.513 43.508C46.513 45.608 44.113 49.508 43.713 53.908C43.313 57.708 44.713 61.408 46.113 64.908C47.313 67.808 48.613 70.708 50.213 73.408C49.113 73.408 48.013 73.408 46.813 73.408C46.813 73.308 46.713 73.208 46.713 73.108C42.213 65.108 36.913 56.008 41.713 46.908ZM60.313 64.308C57.113 61.908 53.013 61.008 49.113 61.708C48.613 60.408 48.213 59.108 47.913 57.808C47.613 56.608 47.513 55.408 47.613 54.308C49.913 54.608 52.313 54.708 54.613 55.208C57.913 56.008 61.013 57.308 63.713 59.308C68.613 62.808 72.013 68.308 73.513 74.108C71.113 74.008 68.713 73.908 66.413 73.808C65.113 70.208 63.513 66.608 60.313 64.308ZM61.413 73.708C59.313 73.608 57.313 73.608 55.213 73.608C53.613 71.108 52.013 68.408 50.713 65.508C53.313 65.608 55.813 66.208 57.813 68.008C59.613 69.408 60.613 71.508 61.413 73.708ZM35.213 45.508C36.213 44.608 37.413 43.908 38.613 43.408C36.013 47.408 35.013 52.408 35.413 57.108C36.013 63.108 38.713 68.308 41.513 73.408C39.213 73.408 36.913 73.408 34.713 73.408C32.313 67.208 29.813 60.608 30.913 53.908C31.413 50.608 32.813 47.608 35.213 45.508ZM40.413 18.408C38.413 18.708 36.213 18.608 34.013 18.408C32.813 17.708 31.613 17.008 30.713 15.908C30.013 15.008 29.613 14.008 29.613 13.008C32.313 13.408 42.213 13.308 44.413 13.308C44.413 15.808 43.713 18.008 40.413 18.408ZM34.013 3.808C34.213 3.808 39.713 3.608 41.813 4.208C44.313 4.908 44.313 6.908 44.313 9.208C42.313 9.208 32.913 9.208 30.313 9.408C31.113 7.308 32.613 5.308 34.013 3.808ZM27.813 32.508C29.613 29.108 29.613 25.508 27.013 22.508C25.613 20.808 23.613 19.608 22.313 17.808C20.913 15.808 20.213 13.208 20.513 10.808C20.813 8.308 22.313 6.608 24.313 5.108C25.213 4.508 26.113 4.108 26.913 3.508C27.213 3.508 29.013 3.508 29.613 3.608C28.113 5.208 26.913 7.208 26.213 9.308C24.713 13.308 25.913 16.908 28.813 19.508C28.213 21.008 28.913 22.908 31.013 22.808C31.913 22.808 32.813 22.708 33.713 22.708C34.113 23.008 34.413 23.308 34.713 23.708C36.513 26.208 34.213 29.508 32.813 31.808C30.113 36.208 28.013 39.708 28.613 45.108C28.613 45.508 28.713 45.808 28.913 46.108C27.513 46.708 26.013 47.408 24.613 48.108C24.713 47.608 24.613 47.108 24.213 46.608C20.313 41.208 25.313 37.408 27.813 32.508ZM30.513 73.408C26.113 73.408 21.713 73.508 17.213 73.608C18.213 71.408 20.213 69.008 21.513 67.508C23.213 65.608 25.113 64.208 27.213 63.008C28.013 66.508 29.313 70.008 30.513 73.408ZM9.61299 69.008C11.013 66.108 12.613 63.108 14.813 60.708C18.513 56.508 23.013 53.808 27.613 51.108C26.813 53.608 26.613 56.208 26.813 58.808C23.513 60.308 20.713 62.408 18.413 65.308C16.713 67.408 14.213 70.808 14.113 73.708C13.413 73.708 12.613 73.708 11.913 73.708C10.613 73.708 9.31299 73.808 7.91299 73.808C8.51299 72.108 9.01299 70.208 9.61299 69.008ZM77.213 81.508C76.313 83.008 75.613 84.308 73.713 84.508C72.913 84.608 72.013 84.408 71.213 84.408C66.513 84.208 61.713 84.108 57.013 84.108C44.813 84.008 32.613 83.708 20.513 84.108C18.313 84.208 16.113 84.308 13.913 84.508C12.213 84.608 11.713 83.908 10.813 82.408C9.81299 80.708 8.61299 79.108 7.61299 77.508C14.013 77.908 20.513 77.608 26.913 77.608C40.813 77.608 54.813 77.708 68.713 77.708C72.313 77.708 76.013 77.708 79.613 77.708C78.713 79.008 78.013 80.308 77.213 81.508ZM80.113 74.308C79.513 74.308 79.013 74.208 78.413 74.208C76.213 67.308 72.413 60.908 66.513 56.608C61.813 53.208 54.313 50.908 48.213 52.108C48.613 50.808 49.313 49.608 50.313 48.508C51.913 46.908 54.113 46.008 56.313 45.708C58.113 45.508 59.913 46.008 61.713 45.908C63.313 46.908 65.013 47.708 66.413 48.808C69.213 50.808 71.813 53.408 73.913 56.208C77.713 61.408 80.213 67.808 80.113 74.308Z" fill="black"/>
</svg>
