<svg width="54" height="66" viewBox="0 0 54 66" fill="none" xmlns="http://www.w3.org/2000/svg">
<path d="M21.9219 5.99999C21.9219 5.99999 21.0219 7.19999 22.2219 7.99999C22.6219 8.29999 22.7219 8.49999 22.5219 9.09999C22.3219 9.59999 21.7219 9.49999 22.0219 10.5C22.3219 11.5 23.5219 11 24.0219 10.7C24.6219 10.2 24.5219 9.89999 25.0219 9.49999C25.6219 8.99999 26.3219 9.09999 26.4219 9.19999C26.7219 9.19999 27.2219 9.09999 27.5219 8.79999C27.7219 8.49999 27.8219 7.89999 27.7219 7.69999C27.3219 7.09999 26.7219 7.49999 26.7219 7.49999C26.7219 7.49999 27.4219 6.29999 26.7219 5.79999C26.0219 5.29999 25.6219 5.69999 25.3219 5.99999C24.9219 6.29999 25.3219 4.59999 24.1219 4.69999C23.0219 4.79999 23.2219 6.09999 23.1219 5.99999C22.7219 5.69999 22.2219 5.59999 21.9219 5.99999Z" fill="black"/>
<path d="M53.0219 57.4C53.8219 56.9 53.6219 55.7 52.4219 55.5C51.2219 55.3 50.6219 55.7 49.7219 55.9C48.9219 56.1 48.3219 56 47.7219 56.2C47.0219 56.5 46.7219 57.2 46.9219 58.2C47.0219 58.8 47.4219 59.3 47.9219 59.2C48.6219 59.1 48.5219 59.5 48.5219 59.5C48.5219 59.5 47.4219 60.5 48.8219 61.3C49.5219 61.7 49.8219 61.6 50.4219 61.4C50.9219 61.2 50.6219 61.1 50.4219 60.6C50.2219 60.1 51.1219 60 51.2219 60.4C51.3219 60.8 51.0219 61 51.8219 61C52.6219 61 52.6219 61 52.6219 61C52.6219 61 53.2219 61 53.0219 60.2C52.8219 59.4 52.2219 59.2 52.2219 59.2C52.2219 59.2 52.2219 57.9 53.0219 57.4Z" fill="black"/>
<path d="M21.5219 60.9C21.0219 60.7 20.9219 61 20.7219 61.1C20.4219 61.2 20.2219 61 19.9219 60.8C19.6219 60.5 19.9219 60 19.2219 59.7C18.6219 59.4 18.3219 59.9 18.2219 60.3C18.1219 60.6 17.9219 60.9 17.9219 60.9C17.9219 60.9 17.3219 60.5 16.9219 61.3C16.7219 61.8 16.7219 63.1 17.4219 63.2C18.2219 63.4 18.0219 63.3 18.5219 64C18.5219 64 18.2219 65.3 18.7219 65.7C19.1219 66 19.8219 66 20.1219 65.6C20.4219 65.2 20.4219 65.2 20.2219 64.7C20.1219 64.3 20.7219 64.1 20.7219 64.7C20.8219 65.3 20.8219 66.1 21.7219 66C22.5219 65.9 23.0219 65.8 23.0219 65.2C23.1219 64.6 22.8219 64 22.7219 63.5C22.4219 62.6 23.8219 61.7 21.5219 60.9Z" fill="black"/>
<path d="M26.7219 57.9C26.2219 57.7 25.9219 58 25.7219 57.3C25.5219 56.6 25.5219 56.2 25.0219 56.3C24.5219 56.5 24.3219 57.4 24.5219 58C24.6219 58.3 24.7219 58.7 25.1219 59.2C25.4219 59.6 25.5219 59.9 25.1219 60.1C24.6219 60.3 24.2219 59.5 24.1219 58.5C24.1219 58.5 24.1219 57.1 23.9219 56.7C23.6219 55.8 22.7219 56.3 22.6219 56.7C22.5219 57.2 22.7219 58 22.4219 58.7C22.2219 59.1 22.2219 59.8 22.6219 60.6C22.8219 61 23.4219 61.1 23.9219 61.7C24.3219 62.3 24.5219 62.7 25.3219 62.7C26.1219 62.7 26.2219 62.6 26.6219 62.3C27.0219 62 27.4219 61.6 27.3219 61C27.2219 60.4 27.4219 60 27.4219 59.2C27.4219 58.5 27.1219 58.1 26.7219 57.9Z" fill="black"/>
<path d="M33.7219 57.9C33.5219 57.6 33.7219 57.3 33.1219 56.9C32.6219 56.5 32.4219 56.8 31.9219 57.1C31.4219 57.3 31.4219 57.7 30.9219 57.7C30.4219 57.7 30.0219 57.3 29.7219 57.4C29.4219 57.5 28.8219 57.7 29.3219 58.4C29.9219 59.2 29.5219 59.2 29.5219 59.2C29.1219 59.3 28.4219 58.4 28.2219 58.8C28.1219 59.3 28.3219 59.6 28.7219 60.1C29.1219 60.6 28.8219 60.6 29.1219 61.4C29.4219 62.2 29.9219 62.2 30.4219 61.9C30.9219 61.6 30.8219 60.6 31.3219 60.7C31.8219 60.8 32.2219 61.6 32.7219 61.3C33.2219 61 33.2219 61.3 33.3219 60.5C33.4219 59.7 33.0219 59.6 33.3219 59.2C33.6219 58.7 33.9219 58.1 33.7219 57.9Z" fill="black"/>
<path d="M38.5219 62.6C38.3219 62.6 38.0219 62.6 37.8219 62.4C37.7219 62.3 37.1219 61.9 36.6219 61.8C36.9219 61.8 37.2219 61.8 37.4219 61.6C37.8219 61.2 37.5219 61.2 37.4219 60.8C37.2219 60 37.8219 60.4 37.9219 60.6C38.0219 60.8 37.8219 61 38.2219 61.6C38.6219 62.2 39.4219 61.6 39.7219 61.3C39.7219 61.3 39.8219 60.9 39.8219 60.6C39.7219 60.3 39.5219 60.1 39.3219 59.5C39.1219 58.9 38.8219 58.7 38.2219 58.7C37.6219 58.7 37.4219 58.6 37.2219 58.6C36.3219 58.4 35.8219 57.9 35.3219 58.4C34.5219 59.3 35.7219 59.4 35.4219 60.1C35.2219 60.7 35.0219 60.4 34.2219 60.5C33.4219 60.6 33.7219 61 33.8219 62.1C33.9219 63.2 35.8219 64.1 36.2219 64.3C36.7219 64.5 38.0219 64.3 38.5219 64.2C39.0219 64.1 39.9219 64 39.9219 63.6C40.0219 62.6 39.3219 62.7 38.5219 62.6Z" fill="black"/>
<path d="M45.8219 54.6C45.4219 54.5 45.3219 54.8 44.8219 54.8C44.3219 54.8 44.7219 53.8 43.9219 53.6C43.3219 53.4 41.7219 53.3 41.0219 53.7C40.3219 54.1 39.6219 55 40.1219 55.7C40.5219 56.2 41.5219 55.9 42.2219 55.7C42.2219 55.7 42.9219 55.5 42.8219 56.2C42.8219 56.6 42.5219 56.5 41.8219 56.5C41.1219 56.6 40.0219 56.5 39.4219 56.7C38.9219 56.9 38.5219 57.5 39.0219 58.1C40.0219 59.3 41.7219 58.7 43.6219 59.6C44.6219 60.1 44.8219 59.7 45.4219 59C45.7219 58.6 46.2219 58.3 45.7219 57.6C45.3219 57 45.4219 57.2 44.9219 57C44.4219 56.8 44.3219 56.9 45.4219 56.7C45.8219 56.6 46.2219 56.3 46.3219 55.8C46.4219 54.8 46.2219 54.6 45.8219 54.6Z" fill="black"/>
<path d="M1.12187 14.7C1.32187 14.8 7.22187 14.8 7.22187 14.8C6.72187 14 7.02187 13 6.32187 12.7C5.62187 12.5 5.52187 12.9 5.32187 12.1C5.22187 11.3 4.92187 11 4.32187 11C3.82187 11 4.12187 10.7 3.52187 10.2C2.62187 9.59999 2.22187 10.1 1.82187 10.5C1.42187 11 1.02187 11 0.521872 11.4C0.121872 11.8 -0.178127 12.4 0.121873 13.1C0.421873 14 0.821873 14.6 1.12187 14.7Z" fill="black"/>
<path d="M9.62187 13.5C10.1219 13.4 10.1219 13.8 10.8219 13.7C11.5219 13.5 11.8219 12.9 11.5219 12.4C11.2219 11.9 10.6219 12 11.0219 11.8C11.4219 11.6 11.8219 11 11.6219 10.8C11.4219 10.6 10.5219 10 9.92187 10.1C9.32187 10.2 9.12187 10.1 8.52187 10.2C8.12187 10.3 7.72187 10.2 7.52187 10.1C7.12187 9.8 5.82187 9.3 5.52187 9.8C4.92187 10.7 5.32187 11 6.12187 11.8C6.62187 12.3 7.12187 12 7.12187 12.8C7.22187 13.6 7.72187 14.9 7.72187 14.9H9.62187C9.62187 14.4 9.12187 13.5 9.62187 13.5ZM9.12187 12.1C9.02187 12.1 9.12187 12.4 8.72187 12.4C8.32187 12.4 8.22187 11.8 8.22187 11.7C8.22187 11.6 8.52187 11.1 8.72187 11C9.22187 10.8 9.62187 11.2 9.62187 11.5C9.62187 12 9.42187 12.1 9.12187 12.1Z" fill="black"/>
<path d="M6.12187 8.30001C6.62187 8.50001 7.32187 9.00001 7.52187 9.10001C7.72187 9.20001 8.72187 9.40001 9.12187 9.30001C10.0219 9.00001 9.82187 9.00001 10.4219 9.20001C11.4219 9.60001 11.8219 10.4 12.3219 9.70001C12.6219 9.30001 11.6219 9.10001 11.8219 8.60001C11.9219 8.30001 12.3219 8.60001 12.8219 8.30001C13.1219 8.10001 13.1219 7.20001 12.4219 6.90001C11.7219 6.60001 11.7219 7.40001 11.3219 6.60001C10.9219 5.80001 10.9219 5.80001 10.6219 5.50001C10.0219 4.90001 9.12187 4.60001 9.12187 4.60001C8.12187 4.70001 8.52187 5.30001 7.62187 5.40001C6.82187 5.50001 7.52187 5.30001 6.12187 4.80001C5.42187 4.50001 4.82187 5.50001 5.62187 6.70001C5.42187 6.70001 5.02187 7.90001 6.12187 8.30001Z" fill="black"/>
<path d="M13.3219 5.29999C12.6219 5.39999 12.3219 5.29999 12.3219 5.29999C12.0219 5.29999 11.3219 5.49999 11.5219 6.09999C11.7219 6.69999 12.3219 6.49999 12.9219 6.79999C14.2219 7.19999 13.5219 7.69999 12.9219 8.59999C12.4219 9.39999 12.7219 10.1 13.9219 9.99999C14.9219 9.79999 14.0219 9.49999 14.6219 8.79999C15.4219 7.89999 15.6219 8.69999 16.3219 7.99999C17.1219 7.19999 16.6219 6.29999 16.2219 5.59999C15.8219 4.79999 15.3219 4.89999 14.6219 4.79999C14.1219 4.59999 14.0219 5.19999 13.3219 5.29999Z" fill="black"/>
<path d="M16.6219 13.8C17.4219 13.4 17.3219 13.3 17.6219 12.2C17.8219 11.1 16.6219 11.2 15.8219 10.7C15.1219 10.2 14.5219 10.6 13.7219 10.5C12.9219 10.4 12.9219 10.1 12.5219 10.4C12.1219 10.7 12.0219 11.9 12.2219 12.4C12.5219 13.2 11.6219 14.6 11.6219 14.6H15.5219C15.5219 14.7 15.3219 14.5 16.6219 13.8Z" fill="black"/>
<path d="M17.3219 5.4C17.4219 5.9 17.2219 6.1 17.5219 6.5C17.9219 6.9 18.2219 6.2 19.0219 6.8C19.5219 7.2 20.0219 7.9 20.4219 7.7C20.8219 7.5 20.7219 7.2 20.8219 6.5C20.9219 5.7 20.9219 5.8 21.0219 5.5C21.0219 5.4 22.5219 4.7 22.7219 4.1C22.7219 4 22.9219 3.1 21.9219 2.7C21.4219 2.5 20.7219 2.7 20.6219 2.1C20.4219 0.900003 19.2219 0.800004 18.5219 1.3C17.5219 2 18.2219 2.3 17.8219 2.4C17.1219 2.5 15.8219 3.2 16.4219 4.5C16.8219 5.3 17.2219 4.7 17.3219 5.4ZM18.4219 4.2C18.4219 4.2 19.1219 3.1 19.8219 3.6C20.8219 4.2 20.3219 4.9 20.3219 4.9C20.3219 4.9 19.8219 5.2 19.3219 5.2C18.0219 5.3 18.4219 4.2 18.4219 4.2Z" fill="black"/>
<path d="M18.8219 12C19.6219 12.3 19.5219 11.4 20.4219 11.4C21.1219 11.4 21.4219 10.3 21.4219 9.59998C21.5219 8.79998 21.4219 8.09998 20.7219 8.19998C19.9219 8.39998 19.3219 7.49999 18.5219 7.39999C17.7219 7.19999 17.4219 7.99999 17.1219 8.29999C17.1219 8.29999 16.9219 8.79999 16.4219 8.79999C15.6219 8.69999 14.6219 9.89998 15.7219 9.99998C16.6219 10.1 17.0219 10.4 17.8219 10.6C18.5219 10.8 18.0219 11.7 18.8219 12Z" fill="black"/>
<path d="M23.8219 14.8C24.0219 14.8 23.4219 13.7 23.5219 13C23.6219 12.3 23.4219 12 23.1219 11.6C22.9219 11.2 21.7219 11.1 21.6219 11.6C21.5219 12 21.6219 12.4 21.2219 12.4C20.8219 12.4 20.7219 12.6 20.4219 12.3C20.1219 12 19.0219 12.2 18.6219 12.8C17.8219 13.8 18.4219 14.6 18.5219 15C18.5219 14.9 23.6219 14.8 23.8219 14.8ZM21.2219 13.1C21.7219 13.2 21.8219 13.4 21.8219 13.7C21.8219 13.8 22.2219 13.8 22.1219 14.2C22.1219 14.7 21.1219 14.4 20.9219 14.4C20.7219 14.4 20.1219 14.5 20.0219 14.3C19.9219 13.7 20.9219 13.1 21.2219 13.1Z" fill="black"/>
<path d="M28.5219 12.1C29.5219 11.5 29.5219 12.1 29.8219 10.9C29.9219 10.3 30.1219 9.29999 29.5219 8.99999C28.8219 8.69999 28.2219 8.89999 28.2219 8.89999C27.5219 8.99999 27.4219 10.2 27.0219 10.1C26.2219 9.79999 25.5219 9.99999 25.1219 10.7C24.7219 11.4 24.0219 11.3 24.0219 12.2C24.0219 13 24.1219 13.4 24.7219 14C25.1219 14.4 26.0219 14.5 26.1219 14.8C26.2219 15 26.2219 15 26.2219 15H27.8219C27.8219 15 27.4219 14.2 27.4219 13.6C27.5219 12.8 27.5219 12.7 28.5219 12.1Z" fill="black"/>
<path d="M28.9219 15H33.2219C33.2219 15 33.4219 14.3 33.6219 13.6C33.9219 12.8 33.3219 12.4 32.7219 11.7C32.1219 11.1 31.3219 11.2 30.9219 11.4C30.5219 11.6 29.7219 12.2 29.2219 12.4C28.7219 12.6 28.3219 12.8 28.2219 13.4C28.1219 14 28.7219 14.9 28.9219 15Z" fill="black"/>
<path d="M34.3219 11.5C33.6219 12.2 34.4219 13.1 34.4219 13.5C34.4219 13.5 34.3219 13.8 34.1219 14.3C34.0219 14.8 34.2219 15.2 34.2219 15.2H38.8219C38.8219 15.2 39.9219 14.7 40.3219 14.6C40.7219 14.4 41.0219 13.4 40.3219 12.7C40.2219 12.6 39.4219 11.9 38.8219 12C38.3219 12.1 38.1219 11.6 37.8219 11.2C37.5219 10.7 37.0219 10.7 36.1219 10.6C35.5219 10.6 35.0219 10.8 34.3219 11.5ZM36.7219 11.7C37.1219 12 36.7219 13 36.6219 13.2C36.5219 13.4 35.9219 13.9 35.8219 13.9C35.2219 13.8 35.4219 13.3 35.3219 13.2C35.0219 13.1 35.1219 12.4 35.3219 12.1C35.6219 11.7 35.9219 11.7 36.1219 11.8C36.3219 11.8 36.4219 11.5 36.7219 11.7Z" fill="black"/>
<path d="M30.9219 8.5C30.6219 8.9 30.5219 9.9 30.6219 10.2C30.8219 11 32.2219 10.7 32.2219 10.7C32.2219 10.7 33.0219 10.7 33.2219 11.1C33.4219 11.5 34.1219 10.9 34.1219 10.9C34.1219 10.9 34.6219 10.4 35.2219 10.1C35.7219 9.9 37.1219 10.4 37.1219 9.6C37.1219 8.8 36.1219 9.10001 36.0219 8.80001C35.8219 8.10001 36.9219 8.40001 36.3219 7.30001C35.6219 6.00001 34.7219 7.1 34.2219 7.6C34.0219 7.9 33.1219 7.2 32.3219 7.1C31.7219 7 31.3219 8.1 30.9219 8.5Z" fill="black"/>
<path d="M12.3219 4.6C13.1219 4.4 14.5219 4.6 15.0219 3.9C15.5219 3.3 14.9219 3.2 14.9219 2.6C14.9219 2.6 15.0219 1.9 15.4219 1.6C16.4219 0.8 14.3219 -0.5 13.4219 0.2C12.7219 0.8 13.0219 1.5 12.2219 1.6C11.4219 1.7 11.2219 0.5 10.5219 0.7C9.72187 1 10.2219 1.4 9.62187 2C9.12187 2.5 9.62187 3.4 10.1219 4C10.6219 4.9 11.6219 4.8 12.3219 4.6Z" fill="black"/>
<path d="M26.4219 5.09999C27.1219 5.19999 27.1219 6.49999 27.7219 6.69999C28.5219 6.99999 28.4219 7.29999 28.4219 7.79999C28.3219 8.69999 29.2219 8.49999 30.2219 8.29999C31.2219 8.09999 30.8219 7.79999 31.1219 6.79999C31.5219 5.69999 31.3219 6.39999 31.8219 5.49999C32.3219 4.49999 32.2219 3.79999 31.6219 3.19999C31.0219 2.59999 30.0219 2.39999 29.0219 2.89999C28.3219 3.19999 28.4219 4.49999 28.1219 3.79999C27.6219 2.49999 26.2219 3.29999 26.2219 3.29999C25.5219 3.99999 25.8219 4.99999 26.4219 5.09999ZM28.5219 5.19999C28.9219 4.79999 29.1219 5.19999 29.2219 5.19999C29.4219 5.09999 29.8219 5.19999 29.9219 5.49999C30.1219 5.89999 29.9219 6.09999 29.7219 6.29999C29.6219 6.39999 29.8219 6.59999 29.5219 6.79999C29.1219 6.99999 28.9219 6.09999 28.8219 5.99999C28.8219 5.69999 28.5219 5.29999 28.5219 5.19999Z" fill="black"/>
<path d="M39.6219 16.6H38.7219H0.821873L6.32187 53.4H32.6219L39.6219 16.6ZM7.62187 51.9C7.52187 51.3 6.42187 43.7 5.22187 35.8L8.52187 37.6L7.82187 33.7L10.6219 31L6.72187 30.4L5.02187 26.9L4.12187 28.7C3.32187 23.1 2.62187 18.5 2.52187 18C4.02187 18 36.3219 18 37.9219 18C37.7219 18.9 35.9219 28.5 34.2219 37.3L32.6219 34L30.9219 37.5L27.0219 38.1L29.8219 40.8L29.1219 44.7L32.2219 42.8L33.1219 43.1C32.2219 47.9 31.5219 51.6 31.4219 52C30.4219 51.9 8.72187 51.9 7.62187 51.9Z" fill="black"/>
<path d="M27.3219 22.8L23.4219 22.2L21.7219 18.7L20.0219 22.2L16.1219 22.8L18.9219 25.5L18.3219 29.3L21.7219 27.5L25.2219 29.3L24.5219 25.5L27.3219 22.8Z" fill="black"/>
<path d="M16.4219 43.6L14.7219 40.1L13.0219 43.6L9.12187 44.2L11.9219 46.9L11.2219 50.8L14.7219 48.9L18.1219 50.8L17.5219 46.9L20.3219 44.2L16.4219 43.6Z" fill="black"/>
</svg>
