<svg width="75" height="88" viewBox="0 0 75 88" fill="none" xmlns="http://www.w3.org/2000/svg">
<path d="M2.54932 36.6838C6.84932 52.2838 8.44932 68.2838 10.0493 84.3838C10.1493 85.5838 10.9493 86.3838 12.1493 86.4838C28.9493 87.8838 45.8493 88.5838 62.6493 86.7838C63.5493 86.6838 64.5493 86.1838 64.7493 85.1838C68.1493 67.9838 70.8493 50.6838 74.4493 33.5838C74.6493 32.6838 74.3493 31.8838 73.8493 31.3838C75.1493 27.8838 74.6493 23.8838 72.0493 20.9838C71.5493 20.3838 70.9493 19.8838 70.3493 19.4838C71.7493 16.3838 71.4493 12.5838 69.1493 9.88379C66.6493 6.98379 62.9493 6.18379 59.4493 6.88379C58.9493 2.38379 54.2493 -0.816207 49.4493 0.183793C47.0493 0.683793 43.9493 2.98379 42.6493 5.48379C42.0493 5.18379 41.4493 4.98379 40.8493 4.78379C37.5493 3.88379 34.0493 4.68379 31.5493 6.78379C28.1493 2.88379 22.8493 1.78379 17.9493 4.28379C12.9493 6.78379 11.5493 11.8838 11.4493 17.0838C9.84932 16.4838 8.14932 16.2838 6.34932 16.8838C3.84932 17.5838 1.64932 19.6838 0.649322 22.0838C-0.750678 25.3838 0.249321 28.7838 2.34932 31.3838C0.349321 32.2838 0.449321 35.5838 2.54932 36.6838ZM13.9493 82.3838C13.0493 74.4838 12.2493 66.4838 10.8493 58.5838C9.54932 51.1838 7.34932 43.9838 4.74932 36.8838C9.24932 36.9838 13.7493 37.1838 18.1493 37.2838C18.0493 42.3838 18.4493 47.7838 19.1493 52.6838C15.5493 55.6838 13.3493 59.9838 15.6493 65.0838C16.8493 67.6838 18.9493 69.5838 21.6493 70.8838C21.6493 72.7838 22.0493 74.8838 22.1493 76.4838C22.3493 78.4838 22.6493 80.3838 22.8493 82.3838C22.8493 82.5838 22.8493 82.6838 22.8493 82.8838C20.0493 82.7838 16.9493 82.5838 13.9493 82.3838ZM49.8493 76.6838C49.5493 78.4838 48.7493 80.9838 48.6493 83.0838C41.7493 83.2838 34.7493 83.2838 27.8493 83.0838C27.7493 82.6838 27.7493 82.3838 27.6493 81.9838C27.3493 79.9838 27.0493 77.8838 26.7493 75.8838C26.6493 74.8838 26.4493 73.7838 26.2493 72.5838C31.0493 73.8838 36.4493 74.0838 40.3493 73.8838C43.7493 73.6838 47.3493 73.0838 50.5493 71.7838C50.2493 73.5838 50.1493 75.1838 49.8493 76.6838ZM60.7493 82.4838C58.3493 82.6838 55.8493 82.7838 53.3493 82.9838C53.5493 80.9838 53.3493 78.6838 53.4493 76.9838C53.5493 74.7838 53.8493 72.5838 53.8493 70.2838C57.4493 67.9838 60.0493 64.5838 60.5493 59.6838C60.8493 56.4838 55.7493 56.4838 55.4493 59.6838C54.7493 67.2838 45.3493 68.9838 39.2493 69.0838C35.5493 69.1838 31.8493 68.7838 28.2493 67.7838C25.4493 67.0838 21.6493 65.9838 20.3493 63.1838C18.9493 60.1838 21.1493 56.8838 23.6493 55.2838C26.5493 53.3838 30.2493 52.7838 33.5493 52.3838C37.0493 51.9838 40.7493 51.9838 44.2493 52.3838C45.9493 52.5838 47.7493 52.8838 49.3493 53.6838C50.5493 54.2838 51.6493 55.0838 52.8493 55.4838C53.2493 55.5838 53.5493 55.5838 53.8493 55.3838C53.9493 55.3838 54.0493 55.3838 54.1493 55.3838C57.5493 54.6838 56.9493 49.3838 57.1493 46.5838C57.3493 43.3838 57.8493 39.9838 57.6493 36.7838C61.5493 36.4838 65.3493 36.0838 69.2493 35.5838C66.3493 51.1838 64.1493 66.8838 60.7493 82.4838ZM35.3493 47.3838C33.3493 47.4838 31.3493 47.7838 29.3493 48.1838C27.4493 48.4838 25.4493 49.1838 23.5493 50.0838C23.1493 45.8838 22.4493 41.5838 21.4493 37.4838C26.1493 37.5838 30.8493 37.6838 35.6493 37.6838C35.3493 39.3838 35.3493 41.1838 35.3493 42.9838C35.2493 44.4838 35.2493 45.9838 35.3493 47.3838ZM40.0493 42.5838C39.9493 40.8838 39.9493 39.1838 39.7493 37.4838C44.5493 37.3838 49.3493 37.2838 54.0493 36.9838C53.1493 41.3838 53.5493 46.0838 52.6493 50.3838C50.5493 48.7838 47.3493 48.0838 44.9493 47.7838C43.4493 47.5838 41.8493 47.3838 40.2493 47.3838C40.3493 45.7838 40.1493 44.0838 40.0493 42.5838ZM55.1493 9.08379C54.5493 10.8838 56.6493 11.9838 58.0493 11.3838C60.4493 10.2838 63.6493 10.1838 65.6493 12.1838C67.1493 13.6838 67.4493 15.9838 66.5493 17.8838C64.1493 17.3838 61.4493 17.5838 59.0493 18.5838C57.0493 14.3838 52.5493 11.9838 47.9493 12.6838C47.4493 10.7838 46.4493 8.98379 45.1493 7.58379C47.3493 2.78379 57.3493 2.68379 55.1493 9.08379ZM4.44932 24.7838C4.74932 23.4838 5.84932 22.0838 6.94932 21.4838C8.94932 20.4838 10.9493 21.6838 12.6493 22.6838C14.0493 23.4838 16.2493 22.4838 16.1493 20.6838C15.8493 16.9838 15.4493 11.6838 18.6493 9.18379C22.5493 6.08379 27.1493 7.38379 29.1493 11.6838C29.8493 13.2838 32.3493 13.0838 33.1493 11.6838C36.3493 6.08379 43.6493 9.78379 43.8493 15.3838C43.8493 16.6838 45.3493 18.1838 46.7493 17.5838C50.8493 15.9838 54.6493 17.8838 55.5493 22.2838C55.8493 23.6838 57.7493 24.3838 58.8493 23.6838C61.5493 21.8838 65.3493 21.1838 68.0493 23.4838C70.3493 25.4838 70.8493 29.1838 68.5493 31.2838C57.5493 32.6838 46.3493 32.8838 35.1493 32.5838C31.6493 31.8838 27.3493 31.0838 25.7493 28.0838C22.7493 21.9838 34.1493 18.9838 34.1493 24.1838C34.1493 25.0838 35.1493 26.0838 36.0493 25.6838C40.4493 23.8838 38.4493 18.8838 35.0493 17.0838C30.8493 14.9838 25.5493 16.5838 22.6493 20.1838C19.9493 23.6838 19.8493 28.6838 22.8493 32.0838C17.7493 31.7838 12.5493 31.4838 7.44932 31.2838C5.84932 29.3838 3.84932 27.2838 4.44932 24.7838Z" fill="black"/>
</svg>
