<svg width="91" height="88" viewBox="0 0 91 88" fill="none" xmlns="http://www.w3.org/2000/svg">
<path d="M5.51999 80.522C9.57399 84.896 15.58 87.21 22.888 87.21C36.424 87.21 52.799 79.52 66.689 66.641C77.16 56.933 84.9 45.485 88.484 34.407C92.216 22.87 91.037 13.027 85.158 6.686C81.104 2.313 75.098 0 67.793 0C54.255 0 37.879 7.688 23.986 20.569C1.65899 41.273 -6.45401 67.606 5.51999 80.522ZM27.114 23.946C39.983 12.014 55.569 4.602 67.793 4.602C73.784 4.602 78.623 6.404 81.784 9.815C86.479 14.878 87.305 23.109 84.108 32.993C80.76 43.335 73.462 54.085 63.559 63.265C55.929 70.342 47.348 75.809 39.073 79.102C38.999 78.863 38.909 78.625 38.751 78.414C38.229 77.711 37.809 76.806 37.363 75.85C37.113 75.306 36.862 74.767 36.592 74.253C35.999 73.126 34.61 72.695 33.487 73.285C32.362 73.879 31.928 75.268 32.52 76.393C32.755 76.84 32.971 77.311 33.192 77.786C33.635 78.738 34.101 79.716 34.716 80.65C31.041 81.779 27.483 82.428 24.147 82.561C24.116 82.301 24.057 82.038 23.931 81.788C23.076 80.115 22.666 76.922 23.444 75.47C24.041 74.35 23.617 72.955 22.495 72.357C21.376 71.762 19.98 72.182 19.383 73.303C18.054 75.793 18.251 79.514 19.208 82.345C16.645 81.989 14.368 81.241 12.415 80.132C12.499 79.65 12.556 79.028 12.61 78.31C12.754 76.467 12.97 73.684 14.297 72.739C15.331 72.003 15.572 70.565 14.836 69.532C14.098 68.494 12.66 68.257 11.628 68.991C9.05699 70.822 8.41799 73.958 8.15399 76.517C-0.714006 65.303 7.54199 42.092 27.114 23.946Z" fill="black"/>
<path d="M14.485 53.846C14.643 53.802 30.567 49.723 44.12 56.863C44.844 57.375 47.458 59.08 50.233 59.08C50.66 59.08 51.092 59.038 51.521 58.946C53.152 58.599 54.473 57.588 55.344 56.022C56.838 53.329 54.046 50.16 52.161 48.446C50.944 47.082 42.73 38.985 20.696 41.315C19.431 41.448 18.516 42.582 18.649 43.845C18.782 45.11 19.935 46.01 21.179 45.892C41.906 43.695 48.669 51.436 48.717 51.493C48.795 51.594 48.885 51.687 48.981 51.774C49.805 52.513 50.7 53.571 51.041 54.18C50.872 54.356 50.713 54.413 50.562 54.447C49.53 54.673 47.652 53.751 46.715 53.064C46.624 52.993 46.525 52.93 46.42 52.875C31.263 44.793 14.035 49.206 13.309 49.396C12.082 49.72 11.348 50.98 11.672 52.208C12 53.439 13.264 54.17 14.485 53.846Z" fill="black"/>
<path d="M28.677 36.325C28.837 36.288 44.811 32.229 58.316 39.343C59.038 39.854 61.655 41.56 64.429 41.56C64.856 41.56 65.288 41.52 65.717 41.429C67.348 41.079 68.668 40.066 69.54 38.502C71.032 35.808 68.242 32.637 66.355 30.925C65.14 29.56 56.922 21.462 34.892 23.796C33.627 23.929 32.712 25.063 32.845 26.326C32.978 27.591 34.118 28.504 35.374 28.373C56.103 26.168 62.864 33.916 62.91 33.973C62.991 34.073 63.078 34.167 63.174 34.252C63.997 34.99 64.893 36.05 65.234 36.664C65.066 36.837 64.908 36.897 64.757 36.928C63.719 37.165 61.847 36.233 60.911 35.543C60.817 35.474 60.717 35.409 60.613 35.355C45.452 27.273 28.228 31.688 27.502 31.877C26.275 32.201 25.544 33.46 25.867 34.685C26.191 35.914 27.447 36.654 28.677 36.325Z" fill="black"/>
<path d="M46.586 20.83C46.707 20.797 58.665 17.348 68.773 23.387C69.472 23.951 71.546 25.449 73.855 25.449C74.192 25.449 74.536 25.418 74.88 25.347C75.925 25.129 77.369 24.459 78.32 22.512C79.483 20.128 77.331 17.318 75.849 15.775C74.698 14.239 67.111 5.40102 49.206 12.168C48.018 12.618 47.419 13.947 47.869 15.135C47.956 15.368 48.078 15.578 48.226 15.761C46.497 16.063 45.415 16.379 45.264 16.425C44.047 16.791 43.361 18.071 43.725 19.287C44.087 20.501 45.37 21.196 46.586 20.83ZM73.939 20.842C73.594 20.94 59.654 15.194 54.835 15.194C54.828 15.194 54.82 15.194 54.812 15.194C67.326 11.916 73.672 20.326 73.939 20.842Z" fill="black"/>
</svg>
