<svg width="67" height="61" viewBox="0 0 67 61" fill="none" xmlns="http://www.w3.org/2000/svg">
<path d="M63.4512 40.541C62.1512 39.141 60.6512 38.041 58.8512 37.141V19.841L30.5512 28.641V41.341C30.0512 41.941 29.6512 42.641 29.2512 43.241C28.0512 41.941 26.2512 41.241 23.8512 41.041C21.2512 40.841 18.1512 42.141 16.6512 45.041C16.3512 44.941 15.8512 44.841 15.3512 44.841C13.0512 44.841 11.0512 45.841 9.6512 47.441H4.9512V24.741C4.9512 24.741 3.0512 23.241 3.1512 20.041C3.3512 16.741 6.8512 10.741 17.7512 10.641C28.6512 10.641 32.1512 16.741 32.3512 20.041C32.5512 23.341 30.5512 24.741 30.5512 24.741V25.541L60.1512 16.341C60.1512 16.341 63.3512 9.84095 56.9512 3.74095C54.5512 1.44095 51.1512 0.540954 48.5512 0.140954C46.4512 -0.159046 44.3512 0.0409537 42.3512 0.540954C35.1512 2.34095 13.1512 7.74095 11.8512 8.14095C4.7512 10.141 -3.9488 17.341 1.9512 25.641V50.141H7.8512C7.5512 51.041 7.3512 52.041 7.3512 53.141C7.3512 57.341 10.1512 60.141 14.2512 60.141H32.5512C34.3512 60.141 35.8512 59.641 37.0512 58.641C40.0512 59.241 43.5512 59.341 47.2512 59.341C57.1512 59.341 66.0512 58.641 66.8512 50.141C67.1512 48.241 66.6512 44.041 63.4512 40.541ZM32.6512 57.241H14.3512C11.8512 57.241 10.3512 55.741 10.3512 53.141C10.3512 49.941 12.9512 47.741 15.4512 47.741C16.2512 47.741 17.2512 47.841 17.7512 48.441C18.2512 49.041 18.0512 49.941 18.0512 49.941C17.8512 50.741 18.3512 51.441 19.1512 51.641C19.9512 51.841 20.6512 51.341 20.8512 50.541C20.8512 50.341 21.2512 48.341 19.9512 46.741C19.8512 46.541 19.6512 46.441 19.4512 46.241C20.4512 44.541 22.2512 43.741 23.8512 43.841C25.7512 43.941 26.9512 44.541 27.6512 45.541C28.6512 47.041 28.0512 49.241 27.9512 49.441C27.7512 50.141 28.1512 50.941 28.8512 51.241C28.9512 51.241 29.1512 51.341 29.2512 51.341C29.8512 51.341 30.4512 50.941 30.6512 50.341C30.7512 49.841 31.0512 48.741 31.0512 47.441C33.3512 47.741 36.7512 48.941 36.7512 53.241C36.6512 55.741 35.1512 57.241 32.6512 57.241ZM64.1512 49.741C63.6512 54.841 59.5512 56.441 47.3512 56.441C43.9512 56.441 41.2512 56.341 39.0512 56.041C39.3512 55.141 39.5512 54.241 39.5512 53.141C39.5512 48.541 36.5512 45.341 31.8512 44.641C32.2512 43.941 32.7512 43.141 33.3512 42.441C36.2512 39.241 40.9512 37.641 47.3512 37.641C50.0512 37.641 52.5512 37.941 54.6512 38.541C54.6512 38.841 54.6512 39.141 54.4512 39.341C54.1512 39.641 52.9512 40.641 48.1512 40.341C47.3512 40.241 46.6512 40.841 46.6512 41.641C46.6512 42.441 47.1512 43.141 47.9512 43.141C48.6512 43.141 49.3512 43.241 49.9512 43.241C53.3512 43.241 55.5512 42.541 56.6512 41.141C57.0512 40.641 57.2512 40.041 57.3512 39.541C58.7512 40.241 59.9512 41.041 60.9512 42.041C59.4512 46.441 52.1512 48.641 43.6512 47.241C42.8512 47.141 42.1512 47.641 42.0512 48.441C41.9512 49.241 42.4512 49.941 43.2512 50.041C45.1512 50.341 47.0512 50.541 48.8512 50.541C55.4512 50.541 60.7512 48.341 62.9512 44.641C64.0512 46.841 64.2512 49.041 64.1512 49.741Z" fill="black"/>
</svg>
