<svg width="75" height="33" viewBox="0 0 75 33" fill="none" xmlns="http://www.w3.org/2000/svg">
<path d="M37.2 0C16.3 0 0 7.1 0 16.2C0 25.3 16.4 32.4 37.2 32.4C58.1 32.4 74.4 25.3 74.4 16.2C74.4 7.1 58 0 37.2 0ZM37.2 30.9C17.4 30.9 1.4 24.3 1.4 16.1C1.4 8 17.4 1.4 37.2 1.4C56.9 1.4 73 8 73 16.2C73 24.3 56.9 30.9 37.2 30.9Z" fill="black"/>
<path d="M61.5 13.3L60.5 14.1L60.2 14.3L58.9 13.8C56.7 12.9 52.2 11.1 47.9 9.99999L47.7 9.89999C47.7 9.89999 46.2 8.39999 46 8.09999C41.6 6.49999 38.8 6.19999 35.7 5.79999C35.7 5.79999 33 5.49999 32.8 5.39999C31.3 5.79999 27.1 6.79999 26.1 7.89999L25.9 8.09999H25.6C12.7 8.79999 7.19999 14.5 7.19999 14.6C7.09999 14.7 6.89999 15 6.89999 15.1C6.89999 15.2 6.99999 15.3 7.29999 15.4H7.39999L7.49999 15.5C10.4 17.9 16.3 19.8 25.8 21.2H26L26.1 21.3C28.2 22.7 31.4 22.8 34.2 23H34.3C34.1 22.7 33.9 22.3 33.9 21.6V21L34.5 20.9C38.2 20.5 42.1 19.7 46.5 18.6L46.7 18.5L46.9 18.6C48.5 19.2 50.6 19.2 52.3 19.2C52 18.9 51.7 18.5 51.6 17.9V17.4L55.6 16.2C57.9 15.5 59.5 15 60.5 14.6L60.8 14.5L61.1 14.7C62.2 15.4 63.9 16.2 67.8 16.3C67.3 15 66.2 12.4 66 11.8C63.2 11.8 62.3 12.5 61.5 13.3ZM14.3 14.4C13.6 14.4 12.9 13.9 12.9 13.3C12.9 12.7 13.5 12.2 14.3 12.2C15 12.2 15.7 12.7 15.7 13.3C15.7 13.9 15.1 14.4 14.3 14.4ZM29.7 17.7C29.7 17.7 28.1 15.9 27.4 13.8C26.8 11.9 27.2 9.59999 27.2 9.59999C27.2 9.59999 28.7 11.2 29.3 13.3C30.1 15.6 29.7 17.7 29.7 17.7ZM36 17.5C36 17.5 34.5 15.8 33.8 13.9C33.2 12.1 33.6 9.89999 33.6 9.89999C33.6 9.89999 35 11.4 35.6 13.4C36.3 15.5 36 17.5 36 17.5ZM42.1 17.2C42.1 17.2 40.7 15.7 40.1 13.8C39.6 12.1 40 10.1 40 10.1C40 10.1 41.3 11.5 41.9 13.4C42.4 15.4 42.1 17.2 42.1 17.2ZM48.1 17C48.1 17 46.7 15.5 46.2 13.8C45.7 12.2 46.1 10.3 46.1 10.3C46.1 10.3 47.3 11.6 47.9 13.4C48.4 15.3 48.1 17 48.1 17Z" fill="black"/>
<path d="M59.5 17.4C59.4 17.4 59.2 17.5 58.8 18.1C57.9 19.3 57.2 21.2 57.2 21.8V21.9C57.4 22.6 58.5 23 59.4 23C60.9 23 61.1 22.9 61.7 22.4C61.7 22.3 61.7 22.2 61.7 22.1C61.7 21.4 61.3 19.9 60.6 18.6C60.1 17.7 59.6 17.4 59.5 17.4Z" fill="black"/>
</svg>
