<svg width="88" height="86" viewBox="0 0 88 86" fill="none" xmlns="http://www.w3.org/2000/svg">
<path d="M47.562 59.6227C49.862 59.3227 52.062 58.8227 54.262 58.1227C54.362 58.2227 54.462 58.4228 54.562 58.5228C59.162 63.8228 67.462 64.1228 72.362 59.0228C74.962 56.2228 75.862 52.5227 77.062 48.9227C78.162 45.4227 79.362 41.9227 80.062 38.3228C81.762 35.7228 83.162 33.0227 84.262 30.2227C87.662 21.8227 87.762 12.7227 87.962 3.82275C87.962 3.22275 87.962 1.52275 86.262 1.22275C81.162 0.122748 75.962 -0.0772514 70.662 0.0227486C64.462 0.122749 58.162 1.52275 52.462 4.32275C52.462 4.32275 52.462 4.32275 52.362 4.32275C44.162 5.62275 34.962 8.12275 27.962 12.7227C25.162 14.6227 22.662 17.2228 22.962 20.8228C23.262 24.4227 25.962 27.9227 28.662 30.2227C26.462 36.0227 25.662 42.2227 25.662 48.4227C25.662 50.6227 25.762 52.8228 25.862 55.0228C17.262 54.0228 8.86202 52.7227 0.862023 57.2227C-0.437977 58.0227 -0.237977 60.2227 1.26202 60.6227C6.96202 61.8227 13.262 63.8228 17.562 68.0228C21.962 72.2228 23.762 78.2227 24.862 84.1227C25.262 86.0227 27.662 85.9227 28.562 84.6227C30.962 81.0227 31.562 77.2228 31.462 73.0228C31.362 68.5228 30.962 64.0228 30.662 59.5228C36.462 59.8228 41.962 60.3227 47.562 59.6227ZM27.262 76.0228C25.862 71.9228 23.862 68.0228 20.662 64.9228C17.062 61.5228 12.662 59.6227 7.96202 58.2227C13.862 56.7227 20.162 57.8227 26.262 58.6227C26.462 60.8227 26.562 62.9227 26.762 65.1227C26.962 68.6227 27.562 72.4228 27.262 76.0228ZM72.062 52.2227C69.762 57.8227 63.162 60.5228 58.562 56.5228C64.562 53.9228 70.062 49.9227 74.662 45.1227C73.762 47.5227 72.962 49.9227 72.062 52.2227ZM69.262 4.22275C73.762 3.72275 78.162 4.02275 82.662 4.02275C82.562 11.3227 82.462 18.7227 80.462 25.9227C80.062 27.2227 79.662 28.4227 79.162 29.7227C79.062 29.9227 78.262 30.1227 77.862 30.1227C72.062 30.0227 65.962 25.9227 61.962 21.9227C57.862 17.9227 56.662 13.0227 55.762 7.72275C59.962 5.82275 64.562 4.72275 69.262 4.22275ZM27.762 18.6227C28.962 16.1227 33.062 14.5227 35.462 13.4227C37.762 12.4227 40.162 11.6227 42.562 10.8227C37.762 15.1227 33.562 20.3227 30.662 25.9227C28.662 24.0227 26.662 21.1227 27.762 18.6227ZM30.662 55.3228C30.162 48.4227 30.162 41.2228 32.062 34.5228C34.562 26.1228 40.362 18.4227 47.062 12.9227C48.662 11.6227 50.262 10.4227 52.062 9.52275C51.262 21.9227 64.362 33.9228 76.162 35.3228C73.362 40.0227 69.662 44.1228 65.462 47.5228C59.562 52.3228 52.262 55.2228 44.762 55.8228C40.062 56.2228 35.362 55.8228 30.662 55.3228Z" fill="black"/>
<path d="M70.762 16.0228C72.162 16.1228 73.162 14.8228 73.362 13.4228C73.562 11.9228 73.062 10.9228 72.562 10.6228C71.962 10.1228 71.362 10.1228 70.662 10.2228C69.262 10.4228 68.062 11.8228 68.062 13.2228C68.062 14.8228 69.262 16.0228 70.762 16.0228Z" fill="black"/>
<path d="M48.262 45.2227C53.562 47.9227 58.462 43.5227 59.462 38.4227C60.262 34.5227 54.162 33.7227 54.062 37.7227C54.062 39.7227 53.162 42.9227 50.362 41.7227C47.962 40.7227 49.062 38.1227 50.562 36.8227C52.562 35.1227 50.062 31.4227 47.962 33.1227C47.762 33.2227 47.662 33.4227 47.562 33.5227C46.962 34.2227 44.562 35.2227 43.762 34.5227C42.662 33.6227 44.662 31.8227 45.162 31.3227C46.362 30.3227 47.762 29.8227 49.062 29.0227C50.262 28.3227 49.762 26.4227 48.362 26.4227C44.362 26.4227 38.862 29.9227 39.762 34.5227C40.362 37.4227 42.462 38.5227 44.862 38.6227C44.462 41.1227 45.462 43.8227 48.262 45.2227Z" fill="black"/>
</svg>
