<svg width="72" height="49" viewBox="0 0 72 49" fill="none" xmlns="http://www.w3.org/2000/svg">
<path d="M65.5 17.4868C67.4 16.4868 68.7 15.0868 70.3 12.9868L70.9 12.0868L69.9 11.8868C69.7 11.8868 66.4 11.0868 63.7 11.5868C64.4 10.8868 65.2 9.98675 66.3 8.68675L66.9 7.98675L66 7.58675C65.8 7.48675 61.9 5.88675 58.1 7.88675C57.5 8.18675 57.1 8.58675 56.8 9.08675C56.2 9.28675 55.7 9.58675 55.1 9.88675L54 10.3868L53.1 10.8868C50.3 9.98675 47.2 9.28675 43.9 8.88675C43.8 9.28675 43.6 9.58675 43.5 9.88675C42.9 10.9868 42.8 11.3868 43.3 11.8868C43.8 12.3868 44.4 12.4868 45.2 12.5868C46.1 12.7868 47.1 12.8868 48 13.7868L47.3 14.1868L46.6 14.3868C46.1 14.0868 45.5 13.9868 44.9 13.8868C44 13.6868 43.1 13.5868 42.3 12.7868C41.1 11.5868 41.8 10.1868 42.3 9.18675C42.4 8.98675 42.5 8.78675 42.6 8.58675C42.9 7.98675 43 7.48675 42.8 6.98675C41.7 4.68675 40 4.78675 37.8 4.98675L36.2 5.08675C34.8 5.08675 34.1 3.98675 33.5 2.98675C32.9 2.08675 32.3 0.986753 31.1 0.386753C29.9 -0.313247 28.1 -0.0132468 26.7 0.886753C26.2 1.28675 25.1 2.28675 25.4 3.68675C25.6 4.68675 25.6 5.58675 25.5 6.38675C25.5 6.58675 25.4 6.88675 25.4 7.08675C25.3 7.28675 25.3 7.58675 25.2 7.78675C25 8.38675 24.7 8.88675 24.2 9.28675C24.1 9.38675 24 9.48675 23.9 9.58675C23.7 9.78675 23.5 9.88675 23.3 10.0868C23.1 10.2868 22.8 10.3868 22.5 10.4868C22.4 10.4868 22.4 10.5868 22.3 10.5868C21 11.0868 20 12.4868 20.1 13.6868C20.2 14.4868 20.7 14.9868 21.8 15.2868C23.3 15.5868 25 16.6868 25.2 18.2868V18.3868C25.8 17.7868 26.6 17.3868 27.4 17.1868C29 16.6868 30.6 16.8868 32.2 17.5868C32.4 17.6868 32.6 17.7868 32.9 17.8868C33.1 17.9868 33.3 18.1868 33.5 18.2868C33.9 18.4868 34.2 18.7868 34.5 19.0868C34.2 18.1868 33.8 17.3868 33.5 16.4868C32.6 14.2868 31.7 12.2868 31 10.5868C30.9 10.6868 30.8 10.7868 30.6 10.7868C30.5 10.7868 28.8 11.1868 26.8 10.3868C26.4 10.2868 26.3 9.78675 26.4 9.48675C26.5 9.08675 27 8.98675 27.3 9.08675C28.8 9.68675 30.2 9.38675 30.2 9.38675C30.3 9.38675 30.3 9.38675 30.4 9.38675C30.3 9.08675 30.2 8.88675 30 8.58675C29.7 7.98675 29.5 7.48675 29.3 6.98675C29.2 6.68675 29.1 6.48675 29 6.28675C28.9 5.98675 28.8 5.88675 28.8 5.88675C28.8 5.78675 28.8 5.78675 28.7 5.68675C28.7 5.38675 28.8 5.08675 29.1 4.98675C29.5 4.78675 29.9 4.98675 30 5.28675C30 5.28675 30 5.38675 30.1 5.48675C30.2 5.58675 30.3 5.88675 30.4 6.18675C30.5 6.38675 30.6 6.68675 30.7 6.88675C30.9 7.28675 31.1 7.88675 31.4 8.48675C31.8 9.28675 32.2 10.1868 32.6 11.1868C32.8 11.6868 33 12.0868 33.2 12.5868C33.3 12.5868 33.4 12.4868 33.4 12.4868C33.6 12.3868 33.8 12.2868 34 12.1868C35.5 11.2868 37.2 9.88675 37.2 8.38675C37.2 7.98675 37.5 7.68675 37.9 7.68675C38.3 7.68675 38.6 7.98675 38.6 8.38675C38.6 10.1868 37.2 11.5868 35.8 12.5868C35.5 12.8868 35.1 13.0868 34.8 13.2868C34.5 13.4868 34.2 13.6868 33.9 13.7868C33.8 13.7868 33.7 13.8868 33.6 13.8868C34.4 15.7868 35.2 17.8868 36 19.8868L35.4 20.1868C35.5 20.3868 35.7 20.4868 35.8 20.6868C35.9 20.8868 36.1 21.0868 36.2 21.2868L36.5 21.1868L38.1 20.2868L38.4 20.0868C38.4 20.4868 38.5 20.9868 38.8 21.2868C39 21.4868 39.3 21.6868 39.6 21.4868H39.7C40.5 20.9868 42.1 18.8868 42.1 18.8868C42.1 18.8868 41.4 18.8868 40.6 18.8868L47.4 15.2868L48 14.9868L48.6 14.6868L50.3 13.7868C50.2 14.5868 50.8 15.6868 51.6 15.1868C52.4 14.6868 54 12.5868 54 12.5868C54 12.5868 53.3 12.5868 52.4 12.5868L54.4 11.4868L54.6 11.3868L55.4 10.8868C55.6 10.7868 55.8 10.6868 56 10.5868C56 11.0868 56.1 11.5868 56.4 11.9868C56.7 12.5868 57.1 12.9868 57.7 13.3868C57.5 13.4868 57.3 13.5868 57.1 13.6868L55.6 14.4868C54.6 15.0868 53.5 15.6868 52.9 15.8868H52.8H52.7C52.4 16.0868 51.1 16.7868 49.3 17.7868C49 17.9868 48.7 18.0868 48.3 18.2868C48.1 18.3868 47.9 18.4868 47.6 18.5868C48.1 17.9868 48.5 17.2868 48.5 17.2868C48.5 17.2868 48.3 17.2868 47.9 17.3868C47 17.4868 45.4 17.6868 44.9 17.9868C44 18.3868 44.8 19.3868 45.6 19.6868C44.4 20.2868 43.2 20.9868 41.9 21.6868L39.6 21.5868H38.8H38H37.2C37 21.5868 36.8 21.5868 36.7 21.7868L36.6 21.8868L36.5 21.9868C36.6 22.1868 36.7 22.3868 36.8 22.5868C37 22.8868 37.1 23.1868 37.2 23.4868C37.3 23.6868 37.3 23.8868 37.4 24.0868C37.4 24.1868 37.5 24.2868 37.5 24.3868C37.5 24.4868 37.6 24.6868 37.6 24.7868C37.7 24.9868 37.7 25.2868 37.8 25.4868C37.8 25.5868 37.8 25.5868 37.8 25.6868C37.9 26.1868 38 26.7868 38.1 27.2868C38.1 27.3868 38.1 27.4868 38.1 27.4868C38.1 27.7868 38.1 28.0868 38.1 28.4868C38.1 28.6868 38.1 28.8868 38.1 29.0868C38.2 29.1868 38.2 29.2868 38.3 29.3868H38.1C38.1 29.5868 38.1 29.8868 38 30.0868C38 30.1868 38 30.2868 38 30.2868C38 30.4868 38 30.5868 37.9 30.7868C38.2 30.7868 38.7 30.8868 39.3 30.9868C39.6 30.9868 40 31.0868 40.4 31.0868C40.8 31.1868 41.2 31.1868 41.7 31.2868C44.6 31.6868 48.5 32.1868 51.3 32.4868H51.4C51.4 32.6868 51.4 32.8868 51.4 33.1868C51.4 33.3868 51.4 33.6868 51.3 33.9868C51.1 35.3868 50.6 37.0868 49.3 38.0868C47.2 39.6868 45.3 38.9868 45.2 38.9868C44.8 38.8868 44.4 38.9868 44.3 39.3868C44.2 39.7868 44.3 40.1868 44.7 40.2868C44.8 40.2868 47.3 41.2868 50.1 39.1868C52.2 37.5868 52.7 34.8868 52.8 33.1868C52.8 32.9868 52.8 32.7868 52.8 32.5868C53.1 32.5868 53.3 32.6868 53.6 32.6868C54.2 32.7868 54.7 32.7868 54.8 32.8868C54.8 34.3868 54.4 38.2868 51.9 40.5868C50.3 41.9868 48.1 42.5868 45.2 42.1868C42.6 41.7868 40.7 40.6868 39.3 38.6868C37.9 36.5868 37.4 33.9868 37.4 32.1868C37.3 32.4868 37.2 32.7868 37 33.0868C36.9 33.1868 36.9 33.3868 36.8 33.4868C36.6 33.7868 36.4 34.0868 36.2 34.3868C35.4 35.3868 34.4 36.0868 33.2 36.4868C32.2 36.7868 31.2 36.8868 30.1 36.6868C29.8 36.9868 29.5 37.2868 29.2 37.5868C29.1 38.6868 28.7 39.6868 28.1 40.5868C25.7 43.6868 20.2 43.5868 15.8 40.3868C14 39.0868 12.7 37.2868 11.9 35.4868C11.9 35.3868 11.8 35.2868 11.8 35.1868C11.7 35.0868 11.7 34.8868 11.7 34.7868C11.7 34.6868 11.6 34.5868 11.6 34.4868C11.6 34.3868 11.5 34.1868 11.5 34.0868C11.3 34.0868 11.1 34.0868 10.9 34.0868C10.7 34.0868 10.5 34.0868 10.4 34.0868C10 34.0868 9.7 33.9868 9.3 33.8868C8.3 33.5868 7.6 33.0868 7.6 32.5868C7.6 32.0868 8.3 31.4868 9.5 31.1868C9.8 31.0868 10.1 31.0868 10.4 31.0868C10.6 31.0868 10.7 31.0868 10.9 31.0868C11 31.0868 11.1 31.0868 11.2 31.0868H11.3C11.3 30.9868 11.3 30.8868 11.4 30.6868C11.4 30.5868 11.5 30.4868 11.5 30.3868C11.5 30.2868 11.5 30.2868 11.6 30.1868C11.7 29.9868 11.7 29.8868 11.8 29.6868C11.8 29.5868 11.9 29.4868 11.9 29.4868C11.9 29.3868 12 29.3868 12 29.2868C12.1 29.0868 12.2 28.8868 12.4 28.6868C12.6 28.3868 12.9 28.0868 13.2 27.8868C13.4 27.6868 13.6 27.5868 13.9 27.3868C14.1 27.2868 14.3 27.1868 14.5 27.0868C14.6 26.5868 14.9 25.9868 15.3 25.4868C15.3 25.2868 15.4 24.9868 15.4 24.7868C15.6 23.7868 16 22.9868 16.5 22.2868C16 21.7868 15.2 21.4868 14.2 21.4868C12.6 21.4868 11.4 20.7868 11 19.4868C10.5 17.7868 11.4 15.6868 13 14.5868C14 13.8868 14.5 13.0868 14.6 12.2868C14.8 12.3868 14.7 12.3868 14.5 12.2868C14.3 12.1868 14 11.9868 13.8 11.8868C13 11.3868 12.1 10.7868 10.8 10.8868C9.4 10.8868 7.8 11.9868 7 13.4868C6.7 14.0868 6.3 15.0868 7 15.9868C7.1 16.1868 7.2 16.2868 7.3 16.4868C8.8 18.8868 8.7 21.0868 6.9 22.8868C5.9 23.8868 5.7 25.4868 6.1 26.2868C6.3 26.5868 6.5 26.7868 6.8 26.7868C6.6 26.9868 6.5 27.1868 6.4 27.3868C6.3 27.5868 6.2 27.8868 6.2 28.0868C5.4 27.7868 5 27.2868 4.8 26.9868C4 25.5868 4.4 23.2868 5.8 21.8868C7.5 20.1868 7 18.5868 6.1 17.2868C2.3 20.4868 0 24.3868 0 28.5868C0 39.7868 15.9 48.7868 35.6 48.7868C55.3 48.7868 71.2 39.6868 71.2 28.5868C71.3 24.3868 69.2 20.5868 65.5 17.4868ZM12.5 28.6868C12.3 28.7868 12.1 28.8868 11.8 28.9868C11.6 29.0868 11.3 29.0868 11.1 29.1868C10.9 29.1868 10.6 29.2868 10.4 29.2868C8.9 29.2868 7.9 28.6868 7.8 28.1868V28.0868C7.8 27.8868 8 27.5868 8.4 27.3868C8.9 27.0868 9.6 26.8868 10.4 26.8868C10.8 26.8868 11.1 26.8868 11.4 26.9868C12.4 27.1868 13 27.6868 13 28.0868C13 28.1868 12.8 28.4868 12.5 28.6868ZM31.9 43.7868C30.4 43.7868 29.2 43.0868 29.2 42.1868C29.2 41.2868 30.4 40.5868 31.9 40.5868C33.4 40.5868 34.6 41.2868 34.6 42.1868C34.6 43.0868 33.4 43.7868 31.9 43.7868ZM51.1 31.2868C51.3 31.1868 51.6 30.9868 51.9 30.7868C54.5 28.7868 54.6 24.9868 54.6 23.7868C55.6 23.7868 56.3 23.8868 56.5 23.8868C56.5 25.2868 56.2 28.9868 54 31.3868C53.9 31.4868 53.8 31.5868 53.7 31.6868L51.1 31.2868ZM43.6 30.2868L42.2 30.0868L40.6 29.8868C40.5 29.7868 40.4 29.5868 40.3 29.4868C40 28.9868 39.7 28.4868 39.4 27.8868C39.4 27.7868 39.3 27.7868 39.3 27.6868C39 26.9868 38.8 26.2868 38.6 25.5868C38.6 25.4868 38.6 25.4868 38.6 25.3868C38.5 25.1868 38.5 24.8868 38.4 24.6868C38.3 24.3868 38.3 24.1868 38.3 23.9868C38.3 23.7868 38.2 23.5868 38.2 23.3868C38.2 23.2868 38.2 23.2868 38.2 23.1868H38.3C38.5 23.1868 38.8 23.1868 39.2 23.1868H39.3C39.4 23.1868 39.5 23.1868 39.6 23.1868C39.9 23.1868 40.2 23.1868 40.5 23.1868C40.7 23.1868 40.8 23.1868 41 23.1868C41.4 23.1868 41.8 23.1868 42.3 23.1868H42.4C42.5 23.1868 42.6 23.1868 42.7 23.1868C43.5 23.1868 44.4 23.2868 45.3 23.2868C45.6 23.2868 45.8 23.2868 46.1 23.2868C46.4 23.2868 46.7 23.2868 47 23.2868C48.3 23.2868 49.7 23.3868 50.9 23.3868C51.6 23.3868 52.3 23.4868 52.9 23.4868C52.9 24.3868 52.9 27.7868 50.8 29.3868C48.7 30.9868 46.8 30.2868 46.7 30.2868C46.5 30.1868 46.2 30.2868 46.1 30.3868L43.6 30.2868ZM56.6 18.6868C55.8 19.0868 56.4 19.9868 57.1 20.2868C56.1 20.7868 54.9 21.4868 53.5 22.2868L46.5 21.9868H45.8H45.3H45.1C45.4 21.7868 45.7 21.6868 46 21.4868C46.5 21.1868 47.1 20.8868 47.6 20.6868C47.5 20.7868 47.4 20.8868 47.3 20.9868C48.1 20.5868 48.9 20.1868 49.6 19.7868C49.4 20.5868 50 21.8868 50.9 21.2868C51.7 20.7868 53.3 18.6868 53.3 18.6868C53.3 18.6868 52.4 18.5868 51.4 18.7868C52.4 18.1868 53.3 17.6868 54.1 17.2868C56.2 16.1868 57.5 15.3868 57.6 15.3868C57.8 15.2868 58.1 15.0868 58.3 14.9868C58.9 14.6868 59.6 14.3868 60.3 14.1868C60.1 14.9868 60.2 15.7868 60.6 16.3868C60.9 16.8868 61.3 17.3868 61.9 17.6868C61.3 18.0868 60.7 18.3868 60 18.7868C60 18.7868 59.9 18.8868 59.8 18.8868C60.1 18.3868 60.3 17.9868 60.3 17.9868C60.3 17.9868 57.4 18.3868 56.6 18.6868ZM58 11.4868C57.8 11.0868 57.7 10.5868 57.8 10.0868C57.9 9.78675 58.1 9.38675 58.4 9.18675C58.5 9.08675 58.6 9.08675 58.7 8.98675C59.5 8.58675 60.2 8.38675 61 8.28675C62.4 8.08675 63.7 8.28675 64.5 8.48675C64.1 8.98675 63.7 9.38675 63.3 9.78675C63.1 9.98675 62.9 10.2868 62.7 10.4868C61.8 11.3868 61.1 11.8868 60.3 12.2868C60.2 12.3868 60 12.3868 59.9 12.4868C58.9 12.6868 58.3 12.0868 58 11.4868ZM68.4 12.9868C67 14.7868 65.8 15.7868 64.3 16.4868H64.2C63.8 16.6868 63.5 16.6868 63.2 16.6868C62.5 16.6868 62 16.1868 61.8 15.6868C61.6 15.3868 61.6 14.9868 61.6 14.5868C61.6 14.2868 61.8 13.8868 62.1 13.5868C62.2 13.4868 62.4 13.2868 62.6 13.1868C64.1 12.4868 66.7 12.6868 68.4 12.9868ZM60.4 13.6868C60.4 13.7868 60.4 13.7868 60.3 13.8868C60.3 13.8868 60.2 13.8868 60.2 13.7868C60.3 13.7868 60.4 13.7868 60.4 13.6868ZM38.6 45.4868C37.2 45.4868 36.1 44.7868 36.1 43.8868C36.1 42.9868 37.2 42.2868 38.6 42.2868C40 42.2868 41.1 42.9868 41.1 43.8868C41.1 44.7868 40 45.4868 38.6 45.4868ZM59.5 32.6868C57.8 32.6868 56.5 31.9868 56.5 31.0868C56.5 30.1868 57.8 29.4868 59.5 29.4868C61.2 29.4868 62.5 30.1868 62.5 31.0868C62.5 31.9868 61.1 32.6868 59.5 32.6868Z" fill="black"/>
<path d="M14.2 15.9868C13.1 16.6868 12.4 18.1868 12.8 19.2868C13 19.9868 13.6 20.3868 14.7 20.2868C15.9 20.2868 17.2 20.5868 18 21.3868C18.2 21.1868 18.4 20.9868 18.7 20.8868C20 20.0868 21.4 19.8868 23 20.0868C23.6 19.4868 24 18.8868 23.9 18.3868C23.8 17.5868 22.8 16.8868 21.6 16.5868C20 16.1868 18.9 15.1868 18.8 13.7868C18.7 12.7868 19.1 11.7868 19.7 10.9868C19.9 10.6868 20.1 10.4868 20.3 10.2868C20.5 10.0868 20.8 9.88676 21 9.68676C21.3 9.48676 21.5 9.38676 21.8 9.28676C22 9.18676 22.2 9.08676 22.4 8.98676C23.2 8.48676 23.7 7.78676 23.9 7.08676C23.7 6.88676 23.4 6.68676 23.2 6.38676C22.5 5.68676 21.7 4.88676 20.4 4.48676C19.1 4.18676 17.4 4.78676 16.3 5.98676C15.9 6.38676 15.2 7.58676 15.7 8.78676C16 9.58676 16.3 10.2868 16.4 10.9868C16.4 11.0868 16.4 11.2868 16.4 11.3868C16.4 11.4868 16.4 11.5868 16.4 11.6868C16.4 11.9868 16.4 12.1868 16.4 12.3868C16.2 13.9868 15.5 15.1868 14.2 15.9868Z" fill="black"/>
<path d="M45.8 25.2868L46.8 25.7868C46.9 25.7868 46.9 25.7868 47 25.7868C47.2 25.7868 47.5 25.7867 47.6 25.5867C47.7 25.4867 47.7 25.4867 47.8 25.3867C47.8 25.3867 47.8 25.3868 47.8 25.2868C47.9 25.0868 47.9 24.9868 47.8 24.7868C47.7 24.5868 47.6 24.4867 47.5 24.3867H47.1L46.4 24.0867C46.2 23.9867 46 23.9867 45.8 24.0867C45.7 24.1867 45.5 24.2867 45.5 24.3867C45.3 24.6867 45.4 25.1868 45.8 25.2868Z" fill="black"/>
<path d="M47.1 26.7868C47.1 26.4868 46.9 26.1868 46.5 26.0868C46.4 26.0868 46.4 26.0868 46.3 26.0868H45.2C44.8 26.0868 44.5 26.3868 44.5 26.7868C44.5 26.8868 44.5 26.9868 44.6 27.0868C44.7 27.2868 44.9 27.4868 45.2 27.4868H46.3C46.8 27.5868 47.1 27.1868 47.1 26.7868Z" fill="black"/>
<path d="M47.3 29.1868L47.8 28.8868L47.9 28.7868C48.2 28.6868 48.3 28.3868 48.3 28.0868C48.3 27.9868 48.3 27.8868 48.2 27.8868C48 27.5868 47.6 27.3868 47.2 27.5868L46.1 28.1868C45.8 28.3868 45.7 28.6868 45.8 28.9868V29.0868C46 29.3868 46.4 29.5868 46.8 29.3868L47.3 29.1868Z" fill="black"/>
<path d="M46.2 33.2867L45.2 32.6867C44.9 32.4867 44.6 32.5867 44.4 32.7867C44.3 32.7867 44.3 32.8867 44.2 32.9867C44.1 33.1867 44.1 33.2867 44.1 33.4867C44.1 33.6867 44.2 33.7867 44.4 33.9867L45.4 34.5867C45.7 34.7867 46.2 34.6867 46.4 34.3867C46.4 34.2867 46.5 34.1867 46.5 34.1867C46.6 33.7867 46.5 33.4867 46.2 33.2867Z" fill="black"/>
<path d="M43.2 35.3868C43.2 35.7868 43.5 36.0868 43.9 36.0868H45C45.4 36.0868 45.7 35.7868 45.7 35.3868C45.7 34.9868 45.4 34.6868 45 34.6868H43.9C43.5 34.6868 43.2 34.9868 43.2 35.3868Z" fill="black"/>
<path d="M45.9 36.2868L44.8 36.7868C44.4 36.9868 44.3 37.3868 44.4 37.6868C44.6 38.0868 45 38.1868 45.3 38.0868L46.4 37.5868C46.8 37.3868 46.9 36.9868 46.8 36.6868C46.7 36.2868 46.3 36.0868 45.9 36.2868Z" fill="black"/>
<path d="M17.2 32.7868C16.7 31.8868 16.3 30.9868 16.1 29.9868C16 29.5868 15.9 29.0868 15.8 28.6868C15.8 28.5868 15.8 28.5868 15.8 28.4868C15.8 28.4868 15.8 28.4868 15.7 28.4868C15.5 28.5868 15.3 28.6868 15.1 28.7868C14.7 29.0868 14.4 29.3868 14.1 29.6868C14 29.7868 13.9 29.9868 13.8 30.1868C13.7 30.3868 13.6 30.5868 13.5 30.7868C13.4 30.9868 13.4 31.1868 13.3 31.4868C13.2 31.9868 13.2 32.5868 13.3 33.1868C13.3 33.3868 13.4 33.5868 13.4 33.7868C13.4 33.8868 13.4 33.8868 13.4 33.9868C13.4 34.1868 13.5 34.2868 13.5 34.4868C13.5 34.5868 13.5 34.5868 13.6 34.6868C13.7 34.8868 13.7 34.9868 13.8 35.1868C13.8 35.2868 13.9 35.2868 13.9 35.3868C14.6 36.8868 15.8 38.2868 17.3 39.4868C21 42.2868 25.6 42.4868 27.6 39.9868C27.9 39.5868 28.1 39.1868 28.2 38.6868C27.4 38.9868 26.5 38.9868 25.7 38.9868C24 40.7868 21.1 41.0868 19.1 39.4868C17.1 37.9868 16.5 35.3868 17.6 33.3868C17.4 33.0868 17.3 32.8868 17.2 32.7868Z" fill="black"/>
<path d="M20.4 33.2868C20.1 32.8868 19.9 32.3868 19.8 31.8868C19.7 31.6868 19.7 31.4868 19.6 31.2868C19.6 30.9868 19.5 30.6868 19.5 30.3868C19.5 30.1868 19.5 29.8868 19.6 29.6868C19.6 29.3868 19.7 29.1868 19.8 28.8868C19.9 28.6868 20 28.4868 20.1 28.2868C20.2 28.0868 20.3 27.8868 20.5 27.6868C20.7 27.4868 20.8 27.2868 21 27.0868C21.3 26.7868 21.5 26.5868 21.9 26.3868C22 26.3868 22 26.2868 22.1 26.2868C22.2 26.1868 22.4 26.0868 22.6 26.0868C22.6 25.9868 22.6 25.8868 22.6 25.6868C22.6 25.3868 22.6 25.1868 22.6 24.8868C22.6 23.8868 22.8 22.7868 23.1 21.8868C23.1 21.7868 23.2 21.6868 23.2 21.5868C22.9 21.4868 22.7 21.4868 22.4 21.4868C22 21.4868 21.6 21.4868 21.3 21.4868C20.7 21.5868 20.1 21.7868 19.5 22.0868C19.2 22.2868 19 22.4868 18.8 22.6868C18.5 22.8868 18.3 23.1868 18.1 23.4868C17.8 23.8868 17.6 24.3868 17.5 24.8868C17.5 24.9868 17.4 25.1868 17.4 25.2868C17.3 25.5868 17.3 25.9868 17.3 26.2868C17.3 26.3868 17.3 26.4868 17.3 26.5868C17.3 26.7868 17.3 27.0868 17.3 27.2868C17.3 27.4868 17.3 27.7868 17.4 27.9868C17.4 28.2868 17.5 28.5868 17.6 28.8868C17.7 29.1868 17.7 29.3868 17.8 29.6868C17.9 29.8868 18 30.1868 18.1 30.3868C18.3 30.8868 18.5 31.3868 18.8 31.8868C18.8 31.9868 18.9 32.0868 18.9 32.1868C19 32.2868 19 32.4868 19.1 32.5868C21.1 35.6868 24.1 37.4868 26.8 37.3868C27.5 37.3868 28.1 37.1868 28.7 36.8868C28.8 36.7868 28.9 36.7868 29 36.6868C29.1 36.5868 29.2 36.4868 29.4 36.3868L29.5 36.2868C29.5 36.2868 29.4 36.2868 29.4 36.1868C29.2 36.0868 28.9 35.9868 28.7 35.7868C28.7 35.7868 28.7 35.7868 28.6 35.7868C28.2 35.5868 27.8 35.2868 27.4 34.9868C27.3 34.9868 27.2 35.0868 27.1 35.0868C26.2 35.4868 25.1 35.5868 24.1 35.3868C22.4 35.3868 21.2 34.5868 20.4 33.2868Z" fill="black"/>
<path d="M23.9 26.4867C23.9 26.5867 23.9 26.6867 23.9 26.7867C23.9 26.9867 24 27.0867 24 27.2867C24 27.4867 24.1 27.7867 24.1 27.9867C24.2 28.1867 24.2 28.3867 24.3 28.6867C24.3 28.7867 24.3 28.8867 24.4 28.9867C24.5 29.2867 24.6 29.5867 24.7 29.8867C24.8 30.0867 24.8 30.1867 24.9 30.3867C25 30.5867 25.1 30.7867 25.2 30.9867C25.3 31.1867 25.4 31.3867 25.6 31.5867C25.7 31.7867 25.9 31.9867 26 32.1867C26.1 32.2867 26.2 32.3867 26.2 32.4867C26.5 32.8867 26.8 33.1867 27 33.4867C27.3 33.7867 27.7 34.1867 28.1 34.3867C28.2 34.4867 28.3 34.4867 28.4 34.5867C28.7 34.7867 29 34.9867 29.3 35.0867C29.4 35.1867 29.5 35.1867 29.7 35.2867C29.8 35.2867 29.9 35.3867 30 35.3867C30.2 35.4867 30.5 35.4867 30.7 35.5867C30.9 35.6867 31.2 35.6867 31.4 35.6867C32 35.6867 32.6 35.6867 33.1 35.4867C34.4 35.0867 35.4 34.1867 36.1 32.7867C36.2 32.5867 36.3 32.4867 36.3 32.2867C36.4 31.9867 36.5 31.7867 36.6 31.4867C36.8 30.8867 36.9 30.1867 37 29.4867C37 29.1867 37 28.7867 37 28.4867C37 28.2867 37 28.1867 37 27.9867C37 27.8867 37 27.7867 37 27.5867C37 27.3867 36.9 27.0867 36.9 26.8867C36.9 26.7867 36.9 26.7867 36.9 26.6867C36.9 26.5867 36.9 26.4867 36.9 26.4867C36.9 26.2867 36.8 25.9867 36.7 25.7867C36.6 25.5867 36.6 25.3867 36.5 25.1867C36.4 24.8867 36.3 24.4867 36.1 24.1867C36 23.9867 35.9 23.6867 35.8 23.4867C35.7 23.3867 35.6 23.1867 35.6 23.0867C35.5 22.7867 35.3 22.5867 35.1 22.3867C35 22.1867 34.8 21.9867 34.7 21.7867C34.6 21.5867 34.4 21.3867 34.3 21.2867C33.8 20.7867 33.3 20.2867 32.8 19.8867C32.6 19.7867 32.4 19.5867 32.2 19.4867C32 19.3867 31.8 19.2867 31.6 19.1867C30.3 18.5867 29 18.3867 27.7 18.7867C26.6 19.1867 25.6 19.9867 25 21.0867C24.9 21.1867 24.8 21.2867 24.8 21.4867C24.8 21.5867 24.7 21.6867 24.7 21.7867C24.6 21.9867 24.5 22.1867 24.4 22.3867C24.1 23.3867 23.9 24.4867 23.9 25.6867C23.9 25.7867 23.9 25.8867 23.9 25.9867C23.9 26.0867 23.9 26.2867 23.9 26.3867C23.9 26.1867 23.9 26.2867 23.9 26.4867ZM25 25.3867C25.2 24.5867 25.7 23.7867 26.3 23.1867C26.5 22.9867 26.6 22.8867 26.8 22.6867C27 22.4867 27.2 22.3867 27.4 22.2867C27.8 21.9867 28.3 21.7867 28.8 21.5867C29.5 21.3867 30.2 21.2867 30.8 21.2867C31 21.2867 31.3 21.2867 31.5 21.3867C31.7 21.3867 32 21.4867 32.2 21.5867C32.4 21.6867 32.7 21.7867 32.9 21.8867C33.2 21.9867 33.4 22.0867 33.6 22.2867C33.8 22.3867 34.1 22.5867 34.3 22.7867C34.6 23.0867 34.9 23.3867 35.2 23.6867C35.6 24.1867 35.9 24.7867 36.1 25.3867C36.2 25.5867 36.2 25.8867 36.3 26.0867C36.3 26.2867 36.4 26.4867 36.4 26.6867C36.4 26.7867 36.4 26.7867 36.4 26.8867C36.4 26.9867 36.4 27.0867 36.4 27.1867C36.4 27.2867 36.4 27.3867 36.4 27.4867C36.4 27.5867 36.4 27.5867 36.4 27.6867C36.4 27.8867 36.4 28.0867 36.3 28.1867C35.9 30.1867 34.5 31.8867 32.4 32.5867C32.2 32.6867 31.9 32.6867 31.7 32.7867C31.5 32.7867 31.2 32.8867 31 32.8867C30.5 32.8867 29.9 32.8867 29.4 32.7867C28.9 32.6867 28.5 32.4867 28.1 32.2867C27.9 32.1867 27.7 32.0867 27.5 31.9867C27.4 31.8867 27.3 31.7867 27.2 31.7867C27 31.5867 26.8 31.4867 26.6 31.2867C26.4 31.0867 26.3 30.8867 26.1 30.7867C26 30.5867 25.9 30.4867 25.7 30.2867C25.5 29.9867 25.4 29.6867 25.2 29.3867C25.2 29.2867 25.1 29.1867 25.1 29.0867V28.9867C24.9 28.3867 24.8 27.9867 24.8 27.5867C24.8 27.2867 24.8 27.0867 24.8 26.7867V26.6867C24.8 26.4867 24.8 26.1867 24.9 25.9867C24.9 25.8867 24.9 25.6867 25 25.5867C24.9 25.4867 24.9 25.3867 25 25.3867Z" fill="black"/>
</svg>
