<svg width="89" height="90" viewBox="0 0 89 90" fill="none" xmlns="http://www.w3.org/2000/svg">
<path d="M79.1415 73.5736C85.2415 65.0736 87.4415 54.2736 88.5415 44.0736C88.7415 42.5736 87.1415 41.2736 85.7415 41.2736C79.4415 41.3736 73.1415 41.4736 66.8415 41.5736C67.0415 40.8736 67.2415 40.2736 67.3415 39.5736C67.9415 35.9736 66.4415 30.8736 62.5415 30.7736C62.3415 26.8736 61.1415 22.4736 56.7415 21.9736C52.7415 21.4736 50.5415 24.8736 49.3415 28.1736C45.6415 26.0736 40.2415 29.3736 38.3415 32.9736C37.7415 33.9736 37.3415 35.1736 37.0415 36.2736C36.7415 36.1736 36.4415 36.0736 36.0415 35.9736C35.0415 32.4736 34.0415 28.9736 30.2415 27.4736C27.7415 26.4736 25.0415 26.6736 23.0415 28.1736C20.3415 25.1736 16.8415 22.8736 12.7415 25.0736C8.74154 27.2736 7.94154 31.9736 9.84154 35.7736C7.94154 37.2736 7.04154 39.3736 6.84154 41.4736C5.24154 41.4736 3.64154 41.4736 1.94154 41.4736C0.141541 41.4736 -0.358459 43.2736 0.241541 44.4736C-0.258459 51.1736 -0.158459 58.1736 2.34154 64.3736C6.34154 74.4736 14.0415 81.2736 23.9415 85.3736C42.3415 93.0736 66.9415 90.7736 79.1415 73.5736ZM40.1415 38.5736C40.3415 36.5736 40.9415 34.6736 42.2415 33.0736C43.5415 31.4736 47.1415 29.1736 48.8415 31.8736C49.5415 32.9736 51.4415 32.8736 51.7415 31.4736C52.3415 28.9736 52.9415 25.4736 56.0415 25.3736C59.7415 25.1736 59.5415 29.9736 59.4415 32.5736C59.4415 33.5736 60.4415 34.4736 61.4415 34.0736C65.4415 32.6736 64.2415 39.6736 63.5415 41.2736C63.5415 41.3736 63.4415 41.4736 63.4415 41.5736C60.5415 41.5736 57.6415 41.5736 54.8415 41.6736C55.5415 41.2736 56.3415 40.9736 57.1415 40.7736C57.8415 40.5736 60.6415 39.8736 59.8415 38.4736C58.8415 36.7736 56.1415 37.4736 54.6415 37.9736C54.1415 38.1736 53.6415 38.3736 53.1415 38.5736C53.5415 38.0736 54.0415 37.6736 54.6415 37.2736C56.5415 36.0736 54.7415 32.8736 52.8415 34.1736C50.4415 35.7736 49.1415 38.0736 48.3415 40.8736C48.2415 41.1736 48.1415 41.3736 48.1415 41.6736C45.5415 41.6736 42.9415 41.6736 40.3415 41.6736C40.0415 40.5736 40.0415 39.5736 40.1415 38.5736ZM63.2415 55.6736C62.3415 58.1736 59.6415 59.8736 57.0415 58.9736C54.5415 58.1736 53.0415 55.3736 54.2415 53.1736C56.4415 48.9736 61.1415 49.7736 62.5415 51.1736C63.6415 52.3736 63.8415 54.1736 63.2415 55.6736ZM65.6415 59.9736C65.6415 60.2736 65.7415 60.5736 65.8415 60.8736C67.1415 63.7736 66.0415 67.1736 62.9415 68.1736C60.2415 69.0736 55.3415 66.5736 57.7415 63.4736C60.8415 63.6736 63.7415 62.2736 65.6415 59.9736ZM47.4415 65.4736C45.4415 65.4736 43.4415 65.1736 41.7415 64.2736C44.4415 63.4736 46.8415 61.2736 47.8415 58.5736C48.1415 57.7736 48.2415 56.9736 48.2415 56.1736C48.8415 56.2736 49.4415 56.2736 50.0415 56.2736C50.4415 58.6736 51.9415 60.8736 54.0415 62.1736C53.7415 62.7736 53.5415 63.4736 53.4415 64.1736C51.4415 64.5736 49.5415 65.4736 47.4415 65.4736ZM49.8415 74.2736C49.3415 76.2736 47.5415 77.4736 45.5415 77.0736C43.2415 76.6736 42.3415 74.5736 42.6415 72.4736C42.8415 71.0736 43.7415 69.8736 44.9415 69.2736C45.3415 69.7736 45.9415 70.1736 46.7415 70.1736C48.0415 70.1736 49.2415 70.1736 49.8415 71.4736C50.1415 72.3736 50.0415 73.4736 49.8415 74.2736ZM15.5415 46.9736C13.9415 46.9736 12.6415 46.4736 11.7415 45.5736C15.6415 45.5736 19.5415 45.5736 23.5415 45.6736C24.1415 46.6736 24.7415 47.6736 25.3415 48.7736C23.4415 48.4736 21.6415 48.4736 19.9415 48.9736C19.0415 49.2736 18.9415 50.6736 19.9415 50.8736C21.9415 51.2736 23.9415 51.4736 25.9415 52.1736C28.0415 52.9736 29.7415 54.1736 31.4415 55.4736C30.9415 58.1736 32.3415 60.7736 34.5415 62.5736C32.6415 63.3736 30.7415 64.1736 28.6415 63.3736C26.0415 62.4736 24.6415 60.0736 24.5415 57.3736C24.4415 55.4736 22.2415 55.0736 21.1415 56.4736C19.7415 58.4736 17.1415 56.0736 16.7415 54.5736C16.2415 52.7736 16.6415 50.7736 17.1415 49.0736C17.4415 48.0736 16.6415 46.9736 15.5415 46.9736ZM25.6415 66.7736C26.5415 66.9736 27.6415 67.0736 28.8415 67.1736C25.8415 68.7736 22.6415 69.6736 19.3415 68.1736C17.0415 67.1736 15.3415 64.9736 13.3415 63.5736C17.2415 63.2736 21.9415 65.9736 25.6415 66.7736ZM37.0415 67.9736C37.8415 73.8736 29.6415 76.9736 24.8415 74.1736C29.1415 72.8736 33.9415 71.0736 37.0415 67.9736ZM36.7415 54.2736C37.6415 53.3736 38.8415 52.6736 40.2415 52.7736C41.3415 52.7736 43.2415 53.2736 43.7415 55.0736C44.0415 56.1736 43.7415 57.5736 43.0415 58.4736C41.5415 60.2736 39.5415 60.7736 37.5415 59.4736C35.5415 58.1736 34.7415 56.0736 36.7415 54.2736ZM46.3415 51.5736C45.3415 50.4736 44.1415 49.7736 42.5415 49.4736C42.5415 49.3736 42.4415 49.3736 42.4415 49.2736C41.7415 48.2736 41.2415 47.1736 40.8415 45.8736C42.8415 45.8736 44.8415 45.8736 46.8415 45.9736C46.4415 47.7736 46.1415 49.7736 46.3415 51.5736ZM55.7415 47.1736C55.5415 47.1736 55.3415 47.2736 55.2415 47.2736C52.9415 47.8736 51.2415 49.6736 50.4415 51.8736C50.3415 52.0736 50.3415 52.2736 50.2415 52.4736C49.5415 52.4736 48.8415 52.4736 48.1415 52.4736C48.2415 52.3736 48.3415 52.2736 48.4415 52.1736C49.4415 50.4736 49.9415 48.1736 50.3415 45.9736C52.2415 45.9736 54.1415 46.0736 56.0415 46.0736C55.7415 46.3736 55.7415 46.7736 55.7415 47.1736ZM37.3415 45.7736C37.6415 46.9736 38.0415 48.1736 38.5415 49.2736C36.3415 49.6736 34.2415 50.9736 32.9415 52.4736C32.4415 52.0736 31.9415 51.6736 31.4415 51.2736C31.4415 51.1736 31.3415 51.1736 31.3415 51.0736C30.0415 49.2736 28.8415 47.5736 27.7415 45.6736C30.8415 45.6736 34.1415 45.6736 37.3415 45.7736ZM13.1415 37.8736C13.9415 37.4736 14.3415 36.2736 13.7415 35.4736C12.0415 33.1736 11.5415 29.4736 14.8415 28.1736C17.8415 26.9736 20.0415 29.8736 21.5415 31.9736C22.3415 33.0736 23.9415 33.2736 24.6415 31.9736C25.8415 30.0736 28.5415 30.4736 30.0415 31.7736C31.8415 33.2736 32.2415 35.8736 32.4415 38.0736C32.5415 39.2736 33.3415 39.9736 34.5415 40.1736C35.2415 40.2736 35.9415 40.5736 36.6415 40.8736C36.6415 41.1736 36.6415 41.4736 36.6415 41.7736C33.7415 41.7736 30.8415 41.7736 27.9415 41.7736C28.3415 40.2736 28.8415 38.9736 29.3415 37.4736C30.0415 35.4736 27.0415 34.3736 26.0415 36.0736C25.2415 37.3736 24.6415 38.8736 24.3415 40.3736C23.5415 38.8736 22.5415 37.3736 20.9415 36.7736C20.5415 36.6736 20.1415 36.9736 20.0415 37.2736C19.6415 38.7736 20.1415 40.2736 20.9415 41.6736C18.1415 41.6736 15.2415 41.6736 12.4415 41.5736C11.7415 41.5736 10.9415 41.5736 10.2415 41.5736C10.5415 40.0736 11.4415 38.6736 13.1415 37.8736ZM57.8415 82.1736C48.9415 85.1736 38.2415 85.1736 29.1415 82.7736C19.2415 80.0736 11.3415 73.8736 6.74154 64.6736C3.74154 58.6736 3.24154 52.0736 2.74154 45.4736C4.44154 45.4736 6.04154 45.4736 7.74154 45.4736C8.74154 47.7736 10.7415 49.5736 13.5415 50.1736C12.9415 53.4736 13.1415 57.1736 15.9415 59.2736C17.6415 60.5736 19.7415 60.9736 21.5415 60.3736C21.7415 61.0736 22.0415 61.7736 22.4415 62.4736C21.3415 62.0736 20.3415 61.6736 19.3415 61.2736C15.2415 59.9736 10.4415 59.8736 7.24154 63.2736C6.14154 64.4736 7.54154 66.3736 8.94154 65.5736C11.9415 63.7736 15.5415 69.4736 18.0415 70.6736C18.9415 71.0736 19.9415 71.3736 21.0415 71.5736H20.9415C19.9415 71.8736 19.2415 73.2736 19.8415 74.1736C22.9415 78.4736 28.3415 80.0736 33.3415 78.0736C35.5415 77.1736 37.4415 75.8736 38.7415 74.0736C39.0415 77.1736 41.0415 79.9736 44.4415 80.7736C48.8415 81.7736 52.9415 78.9736 53.9415 74.6736C54.3415 72.6736 54.1415 70.4736 53.0415 68.6736C52.9415 68.4736 52.8415 68.3736 52.7415 68.1736C53.1415 67.9736 53.6415 67.7736 53.9415 67.5736C55.1415 70.2736 58.1415 72.3736 61.6415 72.2736C67.7415 72.0736 71.2415 66.4736 70.1415 61.0736C72.7415 60.3736 75.3415 59.2736 76.9415 56.9736C78.6415 54.6736 79.0415 51.4736 77.3415 49.0736C75.7415 46.7736 72.8415 45.9736 70.1415 46.2736C68.5415 46.4736 66.5415 46.8736 64.9415 47.7736C64.4415 47.2736 63.8415 46.7736 63.1415 46.3736C63.3415 46.2736 63.5415 46.0736 63.7415 45.8736C67.5415 45.9736 71.3415 46.0736 75.1415 46.1736C77.5415 46.2736 80.0415 46.3736 82.4415 46.4736C81.4415 53.3736 79.9415 60.3736 76.5415 66.5736C72.5415 74.4736 65.9415 79.4736 57.8415 82.1736ZM67.0415 51.2736C67.7415 51.0736 68.4415 50.8736 68.8415 50.7736C70.5415 50.3736 72.7415 49.9736 73.9415 51.5736C76.6415 55.3736 69.6415 57.2736 67.0415 57.7736C66.9415 57.7736 66.9415 57.8736 66.8415 57.8736C67.1415 57.1736 67.4415 56.3736 67.5415 55.4736C67.7415 54.1736 67.5415 52.6736 67.0415 51.2736Z" fill="black"/>
<path d="M59.1415 51.6736C58.7415 51.7736 57.8415 52.0736 57.3415 52.8736C56.5415 54.1736 57.8415 55.9736 59.3415 55.5736C60.3415 55.2736 61.1415 54.2736 61.0415 53.2736C60.8415 52.2736 60.1415 51.5736 59.1415 51.6736Z" fill="black"/>
<path d="M37.5416 24.7736C42.6416 25.8736 47.7416 22.0736 48.4416 16.9736C49.1416 11.9736 44.9416 5.97362 39.3416 7.57362C39.0416 7.67362 38.7416 7.87362 38.5416 8.07362C37.8416 7.97362 37.1416 8.07362 36.3416 8.37362C34.0416 9.17362 32.1416 11.0736 31.2416 13.3736C29.4416 18.3736 32.4416 23.6736 37.5416 24.7736ZM35.5416 13.9736C36.0416 13.0736 37.3416 12.0736 38.7416 11.2736C39.0416 11.5736 39.4416 11.6736 40.0416 11.6736C47.9416 11.5736 44.0416 23.0736 37.6416 20.2736C35.1416 19.2736 34.1416 16.2736 35.5416 13.9736Z" fill="black"/>
<path d="M40.1415 17.0736C41.1415 16.7736 41.9415 15.7736 41.8415 14.7736C41.7415 13.7736 41.0415 13.0736 40.0415 13.1736C39.6415 13.2736 39.2415 13.3736 39.0415 13.7736C38.7415 13.8736 38.4415 14.0736 38.2415 14.3736C37.3415 15.6736 38.6415 17.4736 40.1415 17.0736Z" fill="black"/>
<path d="M58.8415 18.9735C58.8415 19.0735 58.9415 19.0735 58.9415 19.0735C59.5415 19.7735 60.6415 20.0735 61.5415 19.2735C64.4415 16.8735 66.2415 13.5735 68.0415 10.2735C68.5415 9.37353 67.9415 7.77353 66.6415 7.87353C63.6415 8.27353 60.6415 7.57353 58.2415 5.57353C57.1415 4.67353 55.3415 5.77353 56.1415 7.17353C58.1415 10.3735 57.7415 14.0735 58.4415 17.5735C58.4415 18.1735 58.6415 18.6735 58.8415 18.9735ZM63.9415 11.1735C62.9415 12.7735 61.8415 14.2735 60.4415 15.6735C60.4415 13.7735 60.0415 11.7735 59.5415 9.77353C60.9415 10.4735 62.4415 10.9735 63.9415 11.1735Z" fill="black"/>
<path d="M23.2415 0.273577C19.9415 2.77358 18.0415 6.37358 18.5415 10.5736C18.9415 13.5736 20.2415 16.9736 22.9415 18.4736C23.4415 19.1736 24.4415 19.4736 25.2415 19.1736C25.5415 19.0736 25.8415 18.8736 25.9415 18.5736L26.0415 18.4736C27.5415 16.3736 28.0415 13.8736 27.7415 11.3736C27.4415 8.27358 25.0415 5.17358 25.6415 2.17358C25.8415 0.873577 24.4415 -0.626423 23.2415 0.273577ZM23.6415 15.1736C21.8415 12.2736 21.0415 8.67358 22.5415 5.67358C23.3415 8.87358 24.8415 11.9736 23.6415 15.1736Z" fill="black"/>
</svg>
