<svg width="67" height="71" viewBox="0 0 67 71" fill="none" xmlns="http://www.w3.org/2000/svg">
<path d="M44.1 70.2L66.5 62.4L66.7 28.9L44.1 70.2Z" fill="black"/>
<path d="M42.4001 22L19.8 63.3L22.5 64.1L45.1 22.8L42.4001 22Z" fill="black"/>
<path d="M50.3 24.3L27.7 65.6L30.5 66.3L53.1 25L50.3 24.3Z" fill="black"/>
<path d="M54.3 25.4L31.7 66.7L34.4 67.5L57 26.2L54.3 25.4Z" fill="black"/>
<path d="M62.2 27.6L39.6 68.9L42.4 69.7L65 28.4L62.2 27.6Z" fill="black"/>
<path d="M38.2 68.5L61.1 27.5C61.1 27.5 57.7 25.3 55 31.1C53.8 33.6 54 35.4 52.9 37.5C51.3 40.3 49.8 40 48.6 42.6C47.5 44.9 48.4 46.1 46.6 49.1C44.9 52 43.5 51.7 42.1 54.2C40.7 56.8 41.6 58 40.6 60.2C39.3 62.9 37.6 62.7 36.6 64.6C35.1 67.3 38.2 68.5 38.2 68.5Z" fill="black"/>
<path d="M30.6 54.6L32.1 53.7L32.4 54.5L37.8 44.6C37.7 44.6 37.5 44.7 37.4 44.6C37 44.5 36.7 44 36.9 43.5C37 43 37.5 42.7 38 42.9C38.3 43 38.5 43.2 38.5 43.5L41.4 38.3L40.5 36.3L41.9 35.3L42.4 36.4L47.1 27.8C47 27.8 46.9 27.8 46.8 27.8C46.4 27.7 46.1 27.2 46.3 26.7C46.4 26.2 46.9 25.9 47.4 26.1C47.6 26.2 47.8 26.4 47.9 26.6L48.8 25L46.1 24.2L42.8 30.2L44.4 30L44.1 31.6L42.3 31.8L42.4 30.4L40.7 33.5C40.7 33.7 40.8 33.8 40.7 34C40.6 34.3 40.4 34.5 40.1 34.6L37.6 39.2C38 39.3 38.3 39.8 38.1 40.3C38 40.8 37.5 41.1 37 40.9C36.9 40.9 36.8 40.8 36.7 40.7L34.2 45.2L35.2 45.1L35.1 46.8L33.3 47V46.8L28.5 55.6C28.7 55.5 28.9 55.5 29.1 55.5C29.5 55.6 29.8 56.1 29.6 56.6C29.5 57.1 29 57.4 28.5 57.2C28.2 57.1 27.9 56.8 27.9 56.4L26.3 59.6H27.3L27 61.4H25.3L24.2 63.4L26.9 64.2L31.2 56.4L30.6 54.6ZM32.5 49.6C32.6 49.1 33.1 48.8 33.6 49C34 49.1 34.3 49.6 34.1 50.1C34 50.6 33.5 50.9 33 50.7C32.5 50.6 32.3 50.1 32.5 49.6Z" fill="black"/>
<path d="M0 6.89999L0.2 40.4L22.6 48.2L0 6.89999Z" fill="black"/>
<path d="M24.3 0L21.5 0.8L36.8 28.8L38.4 25.9L24.3 0Z" fill="black"/>
<path d="M13.6 3L32.3 37.1L33.8 34.3L16.3 2.3L13.6 3Z" fill="black"/>
<path d="M9.60001 4.19999L30 41.3L31.5 38.5L12.3 3.39999L9.60001 4.19999Z" fill="black"/>
<path d="M27 47L26.9 46.8V47H27Z" fill="black"/>
<path d="M1.70001 6.4L24.3 47.7L26.9 47V46.8L4.40001 5.7L1.70001 6.4Z" fill="black"/>
<path d="M26.1 38.2C25.1 36.1 25.9 34.8 24.6 32.2C23.2 29.6 21.8 30 20.1 27.1C18.4 24.1 19.3 22.9 18.1 20.6C16.9 18.1 15.4 18.3 13.8 15.5C12.6 13.5 12.9 11.7 11.7 9.1C9.00001 3.4 5.60001 5.5 5.60001 5.5L27.8 45.2L29.7 41.7C28.7 40.7 27.2 40.5 26.1 38.2Z" fill="black"/>
<path d="M31.6 24.9L31.5 23.2L32.5 23.3L30 18.8C29.9 18.9 29.8 19 29.7 19C29.3 19.1 28.8 18.9 28.6 18.4C28.5 17.9 28.7 17.4 29.1 17.3L26.5 12.6C26.2 12.5 26 12.3 25.9 12C25.8 11.8 25.9 11.6 25.9 11.5L24.2 8.40001L24.3 9.80001L22.5 9.60001L22.4 7.90001L24 8.10001L20.7 2.10001L18 2.90001L18.9 4.50001C19 4.30001 19.2 4.10001 19.4 4.00001C19.8 3.90001 20.3 4.10001 20.5 4.60001C20.6 5.10001 20.4 5.60001 20 5.70001C19.9 5.70001 19.8 5.70001 19.7 5.70001L24.4 14.3L24.9 13.2L26.3 14.2L25.4 16.2L28.3 21.4C28.4 21.1 28.6 20.9 28.8 20.8C29.2 20.7 29.7 20.9 29.9 21.4C30 21.9 29.8 22.4 29.4 22.5C29.2 22.5 29.1 22.5 29 22.5L34.7 32.8L36.3 30.1L33.5 25L31.6 24.9ZM34.2 27.7C34.3 28.2 34.1 28.7 33.7 28.8C33.3 28.9 32.8 28.7 32.6 28.2C32.5 27.7 32.7 27.2 33.1 27.1C33.6 26.9 34 27.2 34.2 27.7Z" fill="black"/>
</svg>
