<svg width="89" height="85" viewBox="0 0 89 85" fill="none" xmlns="http://www.w3.org/2000/svg">
<path d="M88.0374 25.423C86.9374 22.023 83.4374 20.223 80.0374 20.123C78.7374 20.123 77.6374 20.323 76.4374 20.623C76.2374 19.923 75.9374 19.323 75.7374 18.523C75.5374 17.123 76.3374 15.5231 75.3374 14.323C74.7374 13.523 73.6374 13.223 72.7374 13.523C72.1374 13.723 71.8374 14.1231 71.3374 14.4231C70.3374 15.0231 69.5374 15.0231 68.4374 15.3231C67.2374 15.7231 66.6374 16.123 66.0374 17.3231C65.8374 17.7231 65.7374 18.323 65.5374 18.723C64.8374 20.023 64.3374 19.723 63.0374 20.223C60.9374 20.923 60.2374 22.323 60.5374 24.223C57.8374 22.423 54.8374 21.523 51.2374 23.123C47.0374 25.023 44.1374 28.7231 44.0374 33.1231C42.0374 32.7231 39.8374 32.823 38.2374 33.323C33.3374 34.923 31.7374 39.8231 32.5374 44.423C29.0374 41.123 22.2374 41.323 18.4374 43.823C16.9374 44.823 15.4374 46.423 14.2374 48.223C12.8374 47.723 11.4374 47.823 10.1374 48.923C9.53738 49.423 9.03738 50.123 8.73738 50.923C8.63738 51.223 8.23738 52.623 8.43738 53.023C7.83738 53.023 6.93738 52.923 6.73738 52.923C6.33738 53.023 5.93738 53.123 5.53738 53.323C4.93738 53.623 4.33738 54.0231 3.93738 54.6231C3.13738 55.9231 3.63738 57.0231 4.13738 58.1231C3.23738 58.1231 2.33738 58.323 1.43738 58.923C0.0373842 60.023 -0.362616 61.723 0.337384 63.323C0.837384 64.423 2.33738 65.8231 4.03738 66.6231C3.23738 67.7231 2.63738 68.923 2.13738 70.323C0.637384 74.323 1.63738 79.8231 6.23738 81.2231C8.23738 81.8231 10.3374 81.8231 12.4374 81.5231C14.7374 83.2231 17.8374 84.1231 20.6374 84.3231C27.6374 84.7231 35.0374 80.9231 41.0374 77.7231C48.2374 73.9231 55.2374 69.723 62.3374 65.723C69.5374 61.523 77.6374 56.523 82.8374 49.923C86.2374 45.523 88.5374 39.223 87.2374 33.723C88.8374 31.323 88.9374 28.023 88.0374 25.423ZM62.7374 22.323C63.5374 21.723 63.9374 22.023 64.8374 21.923C65.5374 21.823 66.1374 21.623 66.6374 21.223C67.1374 20.723 67.3374 20.123 67.6374 19.523C68.5374 17.923 69.3374 17.923 70.9374 17.523C71.5374 17.323 72.0374 17.023 72.4374 16.723C72.4374 16.823 72.4374 16.8231 72.4374 16.9231C72.3374 17.4231 72.3374 17.9231 72.2374 18.3231C72.2374 19.5231 72.2374 20.923 72.6374 22.223C70.8374 23.223 69.0374 24.523 67.3374 25.623C66.3374 26.223 65.4374 26.823 64.5374 27.523C63.5374 26.623 62.6374 25.723 61.5374 24.923C61.7374 23.923 61.8374 22.923 62.7374 22.323ZM52.3374 25.323C56.3374 23.923 59.1374 26.623 61.1374 29.823C60.9374 30.023 60.6374 30.123 60.4374 30.323C59.2374 29.323 57.9374 28.423 56.4374 28.023C55.2374 27.723 54.0374 27.723 52.8374 27.723C51.9374 27.623 51.3374 28.723 51.8374 29.523C52.8374 31.223 53.8374 32.823 55.0374 34.223C54.6374 34.523 53.8374 35.1231 53.7374 35.1231C53.2374 34.5231 50.8374 31.223 49.7374 30.723C48.8374 30.423 48.1374 30.923 47.8374 31.723C47.5374 32.423 47.3374 33.2231 47.1374 34.1231C46.5374 33.8231 45.9374 33.523 45.2374 33.323C45.7374 29.523 48.6374 26.623 52.3374 25.323ZM57.7374 32.323C57.2374 32.723 56.7374 33.123 56.1374 33.423C55.6374 32.423 55.2374 31.523 54.7374 30.523C54.8374 30.523 55.0374 30.6231 55.1374 30.6231C56.2374 30.9231 57.0374 31.523 57.7374 32.323ZM51.5374 36.723C51.1374 37.023 50.7374 37.323 50.3374 37.523C50.0374 36.623 49.4374 35.8231 48.6374 35.1231C48.8374 34.6231 48.9374 34.223 49.1374 33.723C49.1374 33.723 49.2374 33.4231 49.3374 33.1231C49.4374 33.2231 49.5374 33.423 49.6374 33.523C50.1374 34.323 50.6374 35.123 51.1374 35.923C51.3374 36.223 51.4374 36.523 51.5374 36.723ZM38.5374 36.223C40.4374 35.523 43.2374 35.723 44.9374 37.023C45.9374 37.823 46.3374 38.823 46.9374 39.923C42.9374 42.523 38.7374 44.8231 34.5374 47.1231C34.5374 47.1231 34.4374 47.023 34.4374 46.923C34.0374 43.123 34.4374 37.723 38.5374 36.223ZM20.1374 45.6231C22.0374 44.4231 24.1374 44.023 26.3374 44.423C29.1374 45.023 30.2374 46.5231 31.7374 48.6231C31.6374 48.6231 31.5374 48.723 31.5374 48.723C30.6374 47.723 29.1374 47.1231 28.0374 46.6231C27.0374 46.2231 25.3374 45.223 24.3374 46.223C23.6374 46.923 24.3374 48.223 24.5374 48.923C24.8374 49.923 25.2374 50.923 25.7374 51.823C25.5374 51.923 25.4374 52.0231 25.2374 52.1231C25.0374 52.2231 24.9374 52.323 24.7374 52.423C24.3374 51.523 23.8374 50.723 23.4374 49.823C23.0374 48.923 22.6374 47.623 21.3374 47.823C19.7374 48.023 18.4374 50.423 17.9374 51.723C17.3374 53.123 16.6374 54.923 17.0374 56.423C16.4374 56.723 15.9374 57.023 15.4374 57.323C13.3374 52.823 16.0374 48.1231 20.1374 45.6231ZM28.8374 50.223C28.2374 50.523 27.7374 50.8231 27.1374 51.1231C27.0374 50.5231 26.8374 49.923 26.6374 49.323C26.5374 48.823 26.3374 48.423 26.2374 47.923C26.8374 48.223 27.3374 48.7231 27.7374 49.1231C28.0374 49.4231 28.4374 49.823 28.8374 50.223ZM22.0374 53.723C21.4374 54.023 20.7374 54.423 20.1374 54.723C20.2374 54.323 20.3374 53.823 20.4374 53.423C20.6374 52.723 20.9374 52.123 21.3374 51.523C21.6374 52.223 21.7374 53.023 22.0374 53.723ZM5.73738 61.723C6.73738 62.223 8.13738 61.623 8.13738 60.323C8.13738 59.423 7.53738 58.5231 7.43738 57.6231C7.23738 55.2231 8.73738 56.423 10.1374 55.923C11.4374 55.423 11.8374 52.423 12.8374 51.223C11.9374 53.623 11.9374 56.223 13.5374 58.223C10.7374 59.923 8.13738 61.823 6.03738 64.223C5.73738 64.123 5.43738 63.923 5.13738 63.723C3.93738 63.423 4.13738 62.723 5.73738 61.723ZM84.2374 41.323C83.4374 44.123 81.3374 46.423 79.1374 48.323C78.1374 46.023 76.3374 44.123 74.2374 42.923C73.1374 42.323 71.9374 43.823 72.8374 44.723C73.8374 45.723 74.7374 46.823 75.4374 48.023C75.9374 48.823 76.2374 49.7231 76.5374 50.6231C75.1374 51.8231 73.6374 52.923 72.1374 54.023C71.8374 53.223 71.3374 52.4231 70.8374 51.6231C69.8374 50.1231 68.5374 48.2231 66.7374 48.1231C66.2374 48.1231 65.7374 48.6231 65.7374 49.1231C65.9374 50.7231 67.2374 51.723 68.0374 53.023C68.6374 53.923 69.1374 55.023 69.4374 56.023C67.0374 57.723 64.6374 59.323 62.1374 60.823C56.5374 64.123 50.8374 67.123 45.2374 70.423C44.9374 70.623 44.6374 70.723 44.4374 70.923C43.6374 69.923 42.5374 69.223 41.7374 68.323C40.7374 67.223 39.7374 66.023 38.9374 64.723C38.0374 63.323 35.9374 64.5231 36.7374 66.0231C37.5374 67.5231 38.4374 68.923 39.5374 70.223C40.1374 71.023 40.9374 71.8231 41.7374 72.5231C39.9374 73.5231 38.0374 74.523 36.1374 75.423C34.9374 74.523 33.9374 73.423 33.1374 72.223C32.2374 70.923 31.6374 69.523 30.7374 68.323C29.9374 67.423 28.3374 68.223 28.3374 69.323C28.4374 71.223 29.6374 73.0231 30.7374 74.5231C31.3374 75.4231 32.0374 76.2231 32.8374 77.0231C31.1374 77.7231 29.4374 78.423 27.6374 78.923C24.7374 79.823 21.9374 80.4231 18.9374 79.8231C16.1374 79.3231 12.8374 77.323 13.6374 73.923C14.4374 70.723 17.9374 68.8231 20.4374 67.1231C23.1374 65.4231 25.8374 63.723 28.6374 62.223C33.1374 59.723 37.9374 57.723 42.4374 55.223C45.7374 53.323 49.0374 51.323 52.3374 49.323C56.1374 47.023 59.9374 44.6231 63.6374 42.1231C66.4374 40.2231 69.1374 38.323 71.8374 36.223C74.6374 34.023 77.7374 31.223 81.4374 33.023C81.5374 33.323 81.6374 33.723 81.8374 34.023C83.5374 36.123 85.0374 38.523 84.2374 41.323ZM84.5374 29.923C84.1374 29.923 83.6374 30.0231 83.2374 30.1231C77.9374 25.9231 72.6374 30.423 67.9374 33.923C63.0374 37.523 57.8374 40.823 52.5374 44.023C48.4374 46.523 44.2374 48.923 40.1374 51.323C34.3374 54.623 28.1374 57.123 22.4374 60.523C17.2374 63.623 9.63738 67.3231 8.93738 74.1231C8.73738 75.8231 9.13738 77.3231 9.73738 78.6231C9.13738 78.5231 8.63739 78.4231 8.03738 78.3231C0.837385 76.6231 7.63738 67.723 10.4374 65.223C14.3374 61.723 19.1374 59.5231 23.7374 57.1231C28.6374 54.5231 33.5374 51.923 38.4374 49.323C42.9374 46.823 47.4374 44.223 51.7374 41.323C56.0374 38.423 59.9374 35.023 64.2374 32.223C68.2374 29.623 72.7374 25.623 77.3374 24.323C79.7374 23.623 83.2374 23.623 84.4374 26.323C84.8374 27.123 84.9374 28.623 84.5374 29.923Z" fill="black"/>
<path d="M39.2374 42.223C39.8374 42.423 40.4374 41.823 40.4374 41.323C40.5374 40.723 39.0374 39.223 38.5374 39.123C38.2374 39.123 38.0374 39.323 37.9374 39.623C37.6374 40.123 38.6374 42.023 39.2374 42.223Z" fill="black"/>
<path d="M42.9374 41.523C43.2374 41.223 44.8374 40.223 45.0374 40.023C45.5374 39.423 45.2374 38.323 44.3374 38.423C43.9374 38.423 41.7374 39.923 41.4374 40.423C41.1374 40.823 41.3374 41.423 41.6374 41.623C42.0374 41.923 42.5374 41.923 42.9374 41.523Z" fill="black"/>
<path d="M36.6374 45.423C37.4374 45.023 38.3374 44.823 38.7374 43.923C38.9374 43.523 38.9374 43.223 38.7374 42.823C38.5374 42.523 38.2374 42.323 37.8374 42.323C36.7374 42.323 36.0374 43.023 35.3374 43.723C34.9374 44.123 34.9374 44.723 35.2374 45.123C35.5374 45.523 36.0374 45.623 36.6374 45.423Z" fill="black"/>
<path d="M16.2374 14.123C15.6374 14.523 15.3374 15.023 15.3374 15.523C11.4374 17.923 10.1374 26.123 12.2374 29.623C15.7374 35.323 24.0374 36.623 29.2374 32.723C34.0374 29.123 35.2374 22.323 31.4374 17.523C28.4374 13.623 20.6374 11.523 16.2374 14.123ZM27.6374 30.323C23.7374 33.523 16.8374 32.723 14.4374 27.923C12.6374 24.423 14.6374 20.623 16.3374 17.323C16.8374 17.623 17.4374 17.723 18.1374 17.323C20.6374 16.123 25.4374 16.923 27.7374 18.423C31.9374 21.423 31.3374 27.323 27.6374 30.323Z" fill="black"/>
<path d="M25.7374 20.423C25.3374 20.523 24.9374 20.823 24.5374 21.123C24.2374 21.323 23.9374 21.623 23.5374 21.823C23.0374 22.223 22.7374 22.923 23.1374 23.523C23.4374 24.023 24.2374 24.323 24.8374 23.923C25.1374 23.723 25.5374 23.423 25.8374 23.223C26.2374 22.923 26.7374 22.623 27.0374 22.223C27.2374 21.823 27.2374 21.323 26.9374 20.923C26.7374 20.423 26.2374 20.323 25.7374 20.423Z" fill="black"/>
<path d="M19.6374 24.423C19.2374 24.623 18.8374 24.823 18.5374 25.123C18.1374 25.423 17.7374 25.723 17.4374 26.023C16.5374 26.823 17.4374 28.323 18.5374 27.923C19.0374 27.723 19.4374 27.623 19.9374 27.423C20.3374 27.223 20.7374 27.023 21.0374 26.723C21.6374 26.323 21.9374 25.523 21.5374 24.823C21.0374 24.323 20.2374 24.023 19.6374 24.423Z" fill="black"/>
<path d="M24.4374 25.223C23.8374 24.423 22.4374 25.323 22.7374 26.223C22.9374 26.723 23.0374 27.123 23.2374 27.623C23.4374 28.323 23.6374 28.823 24.2374 29.223C25.0374 29.723 26.2374 29.023 26.1374 28.123C26.1374 27.423 25.7374 26.923 25.2374 26.423C25.0374 25.923 24.7374 25.523 24.4374 25.223Z" fill="black"/>
<path d="M21.1374 20.123C20.8374 19.623 20.6374 19.023 20.0374 18.823C18.9374 18.323 17.9374 19.123 18.1374 20.223C18.2374 20.823 18.7374 21.223 19.1374 21.623C19.4374 21.923 19.8374 22.223 20.1374 22.523C20.9374 23.323 22.2374 22.323 21.7374 21.323C21.5374 21.023 21.3374 20.523 21.1374 20.123Z" fill="black"/>
<path d="M34.9374 11.1231C37.0374 11.5231 39.2374 12.0231 41.3374 12.4231C42.3374 12.6231 43.4374 11.7231 43.1374 10.6231C42.6374 8.82305 41.9374 7.02306 41.0374 5.32306C40.2374 3.72306 39.1374 1.82306 37.9374 0.423055C37.5374 -0.0769447 36.2374 -0.476945 35.2374 1.32306C34.4374 2.72306 33.8374 4.12305 33.2374 5.62305C32.7374 6.72306 31.5374 8.52306 32.0374 9.82306C32.5374 10.9231 33.9374 10.9231 34.9374 11.1231ZM36.6374 4.12306C37.1374 4.82306 39.1374 8.22305 39.5374 9.22305C38.9374 9.12305 35.2374 8.42306 35.0374 8.32306C35.3374 7.32306 36.5374 4.62306 36.6374 4.12306Z" fill="black"/>
</svg>
