<svg width="71" height="57" viewBox="0 0 71 57" fill="none" xmlns="http://www.w3.org/2000/svg">
<path d="M71 25.8C71 20.7 63.7 16.3 52.8 14C54.3 19.3 55.5 24 55.5 24C55.5 24.1 55.5 24.3 55.5 24.4C54.9 26.1 52.4 27.5 51.9 27.7C42.8 32.2 31.8 32.5 20.9 28.4C18.5 27.4 16.9 26.2 16.1 24.8C16 24.8 16 24.6 16 24.4L17 20.4C17.5 18.4 18.1 16.1 18.7 13.9C7.6 16.2 0 20.6 0 25.8C0 33.3 15.9 39.3 35.5 39.3C55.1 39.3 71 33.3 71 25.8Z" fill="black"/>
<path d="M68.1 47.1C67.2 47.1 38.7 47.1 29.5 47C27.9 47 26.4 47.8 26.1 48.1C24.4 46.3 20.2 45.2 15.3 45.4C8.9 45.7 3.80001 48.2 3.90001 51C4.00001 53.8 10.7 56.7 16 56.6C21.3 56.5 25.4 53.9 26.6 51.4C27.3 51.1 28.5 50.6 29.7 50.6C39.1 50.6 67.5 50.6 68.2 50.7C69.9 50.4 69.9 47.1 68.1 47.1Z" fill="black"/>
<path d="M17.5 24.4C18.2 25.4 19.6 26.4 21.5 27.2C32 31.1 42.5 30.9 51.3 26.5C52.4 25.9 53.7 25 54.1 24.1C53.8 23 52.6 18.5 51.3 13.7C51 12.8 50.8 11.9 50.5 11C49.6 11.9 48.3 12.5 46.8 13C43.2 14.2 38.4 14.6 35.3 14.7C31 14.8 27.2 14.1 24.5 13C23 12.3 21.8 11.5 21 10.7C20.7 11.7 20.5 12.6 20.2 13.6C19.6 16.1 18.9 18.5 18.4 20.8C18.4 20.8 17.6 23.8 17.5 24.4Z" fill="black"/>
<path d="M21.7 6.5C21.8 6.6 21.9 6.8 22 6.9C22.1 7 22.2 7.1 22.3 7.2C24.5 9.3 30.2 10.4 35.6 10.4C37.7 10.4 39.7 10.2 41.6 10C42 9.9 42.3 9.6 42.2 9.2C42.2 9.1 42.2 9.1 42.1 9C42 8.7 41.7 8.6 41.4 8.6C39.6 8.9 37.6 9 35.6 9C27.9 9 23.1 7 22.8 5.4C22.8 5.3 22.8 5.3 22.8 5.2C22.8 3.7 27.7 1.5 35.7 1.5C43.7 1.5 48.6 3.7 48.6 5.2C48.6 5.3 48.6 5.4 48.7 5.5C48.7 5.5 48.7 5.5 48.7 5.6C48.8 5.8 49 5.9 49.1 5.9C49.2 5.9 49.2 5.9 49.3 5.9C49.4 5.9 49.5 5.9 49.6 5.8C49.7 5.8 49.8 5.7 49.8 5.6C49.9 5.5 50 5.3 50 5.1C50 5 50 4.9 50 4.8C49.5 1.7 42.5 0 35.8 0C29 0 21.8 1.7 21.5 4.9C21.5 5 21.5 5 21.5 5.1C21.5 5.4 21.6 5.7 21.7 6C21.6 6.3 21.6 6.4 21.7 6.5Z" fill="black"/>
</svg>
