<svg width="89" height="69" viewBox="0 0 89 69" fill="none" xmlns="http://www.w3.org/2000/svg">
<path d="M6.64075 48.6269C7.44075 48.6269 8.14074 48.4269 8.84074 48.1269C9.94074 50.8269 11.1407 53.6269 12.2407 56.3269C13.5407 59.4269 15.7407 62.4269 18.2407 64.6269C21.0407 67.1269 24.2407 67.8269 27.8407 68.1269C32.5407 68.5269 37.3407 68.5269 42.1407 68.3269C46.7407 68.2269 51.2407 68.0269 55.8407 68.2269C59.8407 68.4269 63.7407 68.6269 67.5407 66.9269C73.8407 64.2269 77.3407 57.9269 80.2407 51.9269C81.6407 49.1269 77.4407 46.6269 76.0407 49.5269C73.4407 54.6269 70.5407 60.6269 64.8407 62.7269C61.2407 64.0269 57.2407 63.2269 53.5407 63.1269C49.5407 63.0269 45.6407 63.1269 41.6407 63.3269C34.7407 63.5269 25.0407 65.4269 19.8407 59.8269C17.6407 57.4269 16.1407 54.6269 14.6407 51.7269C13.7407 50.1269 12.9407 48.2269 11.7407 46.7269C12.5407 46.2269 13.3407 45.7269 14.0407 45.2269C15.5407 44.2269 17.0407 43.1269 18.7407 42.6269C21.1407 41.9269 22.3407 43.0269 23.8407 44.7269C25.5407 46.5269 27.1407 48.4269 29.7407 48.9269C32.7407 49.6269 35.5407 48.2269 37.9407 46.6269C41.0407 44.6269 43.8407 42.8269 47.7407 43.6269C51.1407 44.3269 53.5407 47.0269 56.9407 47.5269C59.5407 47.9269 61.8407 46.9269 64.0407 45.6269C66.8407 44.0269 69.1407 41.9269 72.4407 43.5269C76.8407 45.7269 82.8407 50.2269 87.0407 44.8269C91.0407 39.5269 86.4407 32.7269 82.2407 29.3269C76.7407 24.8269 69.6407 22.8269 63.0407 20.6269C59.8407 19.5269 58.4407 24.6269 61.6407 25.7269C66.5407 27.3269 71.7407 28.7269 76.2407 31.3269C78.3407 32.5269 80.2407 34.0269 81.7407 35.9269C82.9407 37.4269 84.7407 40.6269 82.7407 42.1269C80.7407 43.6269 77.5407 40.8269 75.8407 39.8269C73.7407 38.6269 71.4407 37.7269 69.0407 38.0269C65.1407 38.4269 61.3407 43.2269 57.4407 42.4269C54.8407 41.8269 52.7407 39.6269 50.1407 38.8269C47.7407 38.1269 45.2407 37.9269 42.8407 38.4269C40.4407 38.8269 38.4407 39.9269 36.4407 41.2269C34.4407 42.5269 32.1407 44.6269 29.8407 42.9269C28.2407 41.8269 27.2407 39.9269 25.6407 38.7269C23.6407 37.2269 21.2407 36.6269 18.6407 37.0269C16.2407 37.4269 14.0407 38.6269 12.0407 39.9269C10.6407 40.6269 6.74074 44.1269 5.84074 41.9269C4.84074 39.5269 7.64075 36.2269 9.14075 34.7269C11.3407 32.7269 13.9407 31.2269 16.5407 29.8269C21.9407 27.0269 27.7407 24.9269 33.4407 22.8269C35.3407 26.3269 39.1407 29.0269 42.8407 29.8269C49.6407 31.3269 56.5407 26.7269 57.7407 19.7269C58.7407 13.9269 55.0407 8.7269 49.8407 7.0269C50.4407 6.0269 51.1407 5.0269 51.9407 4.1269C52.8407 3.2269 53.9407 2.6269 54.7407 1.6269C55.1407 1.1269 55.0407 0.426898 54.3407 0.226898C51.3407 -0.773102 47.3407 1.7269 45.4407 3.9269C44.5407 4.9269 43.8407 6.1269 43.2407 7.3269C39.0407 7.4269 34.6407 10.3269 32.8407 14.1269C31.9407 16.0269 31.7407 17.9269 32.1407 19.7269C25.7407 19.9269 19.8407 21.7269 14.0407 24.6269C8.74074 27.3269 3.04074 30.8269 0.740745 36.6269C-1.05926 41.2269 0.240745 48.9269 6.64075 48.6269ZM38.3407 15.0269C39.2407 13.6269 40.5407 12.7269 42.0407 12.0269C41.8407 12.9269 41.8407 13.8269 41.9407 14.7269C42.1407 18.7269 48.4407 18.6269 48.0407 14.7269C47.9407 13.8269 47.9407 13.0269 48.0407 12.2269C51.3407 12.5269 53.0407 17.1269 52.0407 20.0269C50.7407 23.6269 46.9407 25.5269 43.3407 24.4269C39.5407 23.2269 35.6407 18.9269 38.3407 15.0269Z" fill="black"/>
<path d="M35.2408 30.2269C33.6408 29.4269 32.4408 27.927 30.7408 27.327C30.1408 27.127 29.7408 27.7269 29.8408 28.2269C30.3408 30.3269 32.6408 31.827 34.4408 32.827C36.5408 34.027 38.8408 34.8269 41.2408 34.9269C43.2408 35.0269 43.1408 32.1269 41.2408 31.9269C39.1408 31.7269 37.1408 31.2269 35.2408 30.2269Z" fill="black"/>
<path d="M55.1408 30.9269C53.6408 31.8269 52.0408 32.3269 50.4408 32.7269C49.3408 33.0269 49.7408 34.4269 50.6408 34.5269C54.5408 34.9269 59.4408 33.0269 61.6408 29.6269C62.7408 27.9269 60.2408 26.1269 58.8408 27.4269C57.5408 28.7269 56.6408 30.0269 55.1408 30.9269Z" fill="black"/>
</svg>
