<svg width="90" height="80" viewBox="0 0 90 80" fill="none" xmlns="http://www.w3.org/2000/svg">
<path d="M86.9051 34.3005C61.8051 34.3005 36.7051 34.0005 11.6051 33.9005C8.70506 33.9005 5.80506 34.0005 2.90506 34.1005C2.80506 34.1005 2.70506 34.1005 2.70506 34.1005C1.30506 34.0005 -0.094943 34.8005 0.00505699 36.7005C0.705057 45.3005 3.70506 53.2005 9.40506 59.7005C12.0051 62.7005 15.0051 65.3005 18.3051 67.6005C19.9051 68.7005 21.7051 69.7005 23.2051 70.9005C25.3051 72.6005 24.5051 75.0005 25.1051 77.5005C25.4051 78.6005 26.5051 79.4005 27.6051 79.4005C32.2051 79.4005 36.7051 79.4005 41.3051 79.3005C45.0051 79.3005 48.8051 79.3005 52.5051 79.3005C55.1051 79.3005 59.8051 80.2005 62.0051 78.4005C63.3051 77.4005 63.5051 76.0005 63.5051 74.5005C63.5051 73.5005 63.0051 72.4005 63.4051 71.3005C63.8051 70.0005 65.1051 69.4005 66.2051 68.8005C70.0051 66.9005 73.4051 65.0005 76.6051 62.2005C80.0051 59.2005 83.3051 55.7005 85.3051 51.6005C87.4051 47.2005 88.4051 42.4005 89.8051 37.8005C90.3051 36.1005 88.8051 34.2005 86.9051 34.3005ZM80.0051 49.3005C78.1051 53.2005 75.4051 57.2005 72.4051 60.3005C69.5051 63.3005 65.8051 64.7005 62.5051 67.1005C62.0051 67.5005 61.5051 67.9005 61.0051 68.4005C59.8051 68.2005 54.2051 68.6005 53.1051 69.3005C52.4051 69.7005 52.5051 70.6005 53.1051 71.0005C54.2051 71.7005 58.8051 72.0005 59.6051 72.0005C59.6051 73.0005 59.6051 74.1005 59.0051 74.7005C57.7051 76.1005 33.0051 74.4005 29.7051 74.4005C29.7051 73.4005 29.7051 72.3005 29.5051 71.3005C30.3051 71.4005 35.5051 72.3005 36.7051 71.5005C37.7051 70.8005 38.1051 69.4005 37.1051 68.5005C36.0051 67.5005 29.0051 67.6005 27.3051 67.7005C26.9051 67.4005 26.5051 67.1005 26.1051 66.8005C22.8051 64.5005 19.3051 62.3005 16.3051 59.5005C10.2051 53.8005 6.50506 46.6005 5.40506 38.4005C12.5051 38.9005 19.6051 38.9005 26.7051 39.1005C41.0051 39.4005 55.4051 39.9005 69.7051 40.0005C74.1051 40.0005 78.4051 40.1005 82.8051 40.1005C82.3051 43.2005 81.4051 46.4005 80.0051 49.3005Z" fill="black"/>
<path d="M63.405 56.0005C61.405 57.4005 63.105 60.2005 65.305 59.2005C70.205 57.0005 73.505 51.1005 75.305 46.3005C75.905 44.6005 73.405 43.7005 72.405 45.1005C69.605 49.3005 67.605 53.1005 63.405 56.0005Z" fill="black"/>
<path d="M57.2051 58.2005C56.4051 58.3005 55.7051 58.7005 55.5051 59.4005C55.2051 60.4005 55.6051 61.4005 56.4051 62.1005C57.2051 62.7005 58.4051 62.8005 59.3051 62.2005C60.4051 61.4005 60.9051 59.8005 59.9051 58.8005C59.2051 58.0005 58.2051 57.9005 57.2051 58.2005Z" fill="black"/>
<path d="M27.305 24.8004C24.905 25.9004 26.605 30.1004 29.105 29.1004C33.605 27.2004 36.405 22.5004 35.205 17.6004C34.605 15.2004 33.105 13.5004 31.405 11.9004C28.205 8.7004 29.205 5.1004 32.705 2.6004C33.205 2.2004 33.305 1.6004 32.905 1.1004C31.505 -0.599598 29.205 0.100402 27.805 1.5004C25.705 3.4004 24.705 6.8004 25.105 9.5004C25.505 12.1004 27.205 13.8004 28.905 15.5004C32.305 18.8004 31.405 22.9004 27.305 24.8004Z" fill="black"/>
<path d="M43.705 29.8005C47.605 27.2005 50.105 22.0005 48.905 17.4005C48.305 15.2005 46.805 13.6005 45.405 11.9005C44.405 10.6005 43.705 9.40051 44.205 7.70051C44.605 6.30051 45.305 4.30051 46.705 3.60051C47.205 3.40051 47.205 2.70051 47.005 2.30051C46.205 0.500512 44.105 0.800513 42.805 2.00051C40.805 3.80051 39.505 7.40051 39.805 10.0005C40.105 12.6005 41.905 14.3005 43.405 16.3005C46.405 20.3005 43.805 23.4005 41.205 26.6005C39.705 28.2005 41.605 31.2005 43.705 29.8005Z" fill="black"/>
<path d="M57.405 24.8005C55.305 26.0005 56.705 29.6005 59.105 28.8005C63.605 27.3005 66.405 22.1005 65.405 17.5005C64.805 14.8005 62.905 12.7005 61.005 10.8005C59.505 9.30046 57.905 7.60046 58.705 5.30046C59.205 3.90046 60.505 2.80046 61.405 1.60046C61.705 1.10046 61.405 0.200456 60.805 0.100456C55.705 -0.899544 53.305 5.80046 54.805 9.80046C55.805 12.7005 58.705 14.2005 60.305 16.7005C62.205 19.9005 60.405 23.0005 57.405 24.8005Z" fill="black"/>
</svg>
