<svg width="60" height="68" viewBox="0 0 60 68" fill="none" xmlns="http://www.w3.org/2000/svg">
<path d="M3.9 43.6158C5 45.7158 7.9 49.1158 9.9 51.1158C14.2 55.3158 29.6 55.7158 29.6 55.7158C29.6 55.7158 44.1 55.3158 48.6 50.9158C52.6 47.0158 53.1 45.6158 55.3 43.2158C55.5 43.0158 55.7 42.7158 56 42.5158C49.7 44.9158 39.4 46.0158 29.5 46.0158C19.6 46.0158 9.3 44.9158 3 42.5158C3.5 43.0158 3.8 43.3158 3.9 43.6158Z" fill="black"/>
<path d="M29.6 31.0158C10.5 31.0158 0 35.0158 0 37.1158C0 37.6158 0.7 38.3158 2 39.0158C3.4 39.7158 5.4 40.4158 8.1 41.1158C8.9 40.7158 11.1 39.8158 14.7 38.9158C18 38.1158 22.6 37.4158 28.5 37.2158C34.3 37.0158 41.1 37.7158 46 38.7158C48.8 39.3158 51 40.0158 52.1 40.8158C54.6 40.1158 56.5 39.4158 57.7 38.7158C58.6 38.1158 59.1 37.6158 59.1 37.1158C59.2 35.0158 48.7 31.0158 29.6 31.0158Z" fill="black"/>
<path d="M28.7 9.61584C27.5 10.8158 25.9 12.2158 25.9 14.6158C25.9 18.8158 29.3 20.8158 31.2 21.2158C32 21.4158 32.7 20.9158 32.9 20.2158C33.1 19.4158 32.6 18.7158 31.9 18.5158C31.5 18.4158 28.7 17.6158 28.8 14.6158C28.8 13.5158 29.5 12.7158 30.7 11.6158C32 10.4158 33.5 8.91584 33.5 6.51584C33.5 1.91584 29.6 0.215838 29.4 0.115838C28.7 -0.184162 27.9 0.115838 27.6 0.815838C27.3 1.51584 27.6 2.31584 28.3 2.71584C28.4 2.71584 30.7 3.81584 30.7 6.51584C30.7 7.71584 29.9 8.41584 28.7 9.61584Z" fill="black"/>
<path d="M40.1 9.61584C38.9 10.8158 37.3 12.2158 37.3 14.6158C37.3 18.8158 40.7 20.8158 42.5 21.2158C43.3 21.4158 44 20.9158 44.2 20.2158C44.4 19.4158 43.9 18.7158 43.2 18.5158C42.9 18.4158 40.1 17.6158 40.1 14.7158C40.1 13.6158 40.8 12.8158 42 11.7158C43.3 10.5158 44.8 9.01584 44.8 6.61584C44.8 2.11584 40.9 0.315844 40.7 0.215844C40 -0.0841556 39.2 0.215845 38.8 0.915845C38.5 1.61584 38.8 2.41584 39.5 2.81584C39.6 2.81584 41.9 3.91584 41.9 6.61584C42.1 7.71584 41.3 8.41584 40.1 9.61584Z" fill="black"/>
<path d="M17.3 9.61584C16.1 10.8158 14.5 12.2158 14.5 14.6158C14.5 18.8158 17.9 20.8158 19.7 21.2158C20.5 21.4158 21.2 20.9158 21.4 20.2158C21.6 19.5158 21.1 18.7158 20.4 18.5158C20.1 18.4158 17.3 17.6158 17.3 14.7158C17.3 13.6158 18 12.8158 19.2 11.7158C20.5 10.5158 22 9.01584 22 6.61584C22 2.11584 18.1 0.315844 17.9 0.215844C17.2 -0.0841556 16.4 0.215845 16 0.915845C15.7 1.61584 16 2.41584 16.7 2.81584C16.8 2.81584 19.1 3.91584 19.1 6.61584C19.2 7.71584 18.5 8.41584 17.3 9.61584Z" fill="black"/>
<path d="M29.9548 38.9377L28.396 39.8377L29.296 41.3965L30.8548 40.4965L29.9548 38.9377Z" fill="black"/>
<path d="M31 43.7158L32.7 43.3158V43.2158L32.3 41.6158L30.6 42.0158L30.9 43.2158L31 43.7158Z" fill="black"/>
<path d="M26.0288 40.3468L25.1289 41.9058L26.6879 42.8056L27.5877 41.2466L26.0288 40.3468Z" fill="black"/>
<path d="M57.3 62.0158C56.4 62.0158 30.5 61.9158 22.1 61.9158C20.7 61.9158 19.3 62.4158 19 62.6158C17.6 61.5158 14.2 60.8158 10.2 60.9158C4.99999 61.1158 0.899994 62.6158 0.899994 64.3158C0.999994 66.0158 6.99999 67.7158 10.8 67.7158C15.1 67.7158 18.4 66.1158 19.4 64.5158C20 64.3158 21.1 64.0158 22.2 64.0158C30.7 64.0158 56.6 64.0158 57.3 64.1158C58.9 64.1158 58.9 62.0158 57.3 62.0158Z" fill="black"/>
</svg>
