<svg width="61" height="88" viewBox="0 0 61 88" fill="none" xmlns="http://www.w3.org/2000/svg">
<path d="M0.0121044 34.8546C-0.187896 38.8546 2.1121 42.7546 5.3121 44.8546C6.8121 45.8546 8.6121 46.4546 10.3121 46.6546C10.9121 48.1546 11.6121 49.5546 12.2121 50.9546C14.0121 54.9546 15.6121 58.8546 17.4121 62.8546C21.1121 70.7546 24.6121 78.7546 28.5121 86.5546C29.3121 88.1546 31.7121 88.0546 32.6121 86.5546C39.3121 74.6546 43.2121 61.6546 48.7121 49.2546C50.1121 46.1546 45.4121 43.4546 44.1121 46.5546C39.2121 57.5546 35.8121 69.3546 30.5121 80.1546C28.9121 76.9546 27.3121 73.6546 25.8121 70.3546C27.5121 70.2546 29.3121 69.8546 30.8121 69.2546C32.5121 68.5546 31.8121 65.8546 30.0121 66.4546C28.1121 67.1546 26.3121 67.2546 24.4121 67.3546C23.6121 65.6546 22.8121 64.0546 22.0121 62.3546C25.0121 62.6546 28.3121 61.6546 30.7121 60.5546C32.9121 59.4546 31.0121 56.1546 28.8121 57.2546C27.1121 58.1546 25.3121 58.5546 23.4121 58.7546C22.3121 58.8546 21.3121 58.7546 20.2121 58.6546C19.3121 56.8546 18.4121 55.0546 17.4121 53.2546C21.0121 54.0546 25.4121 53.0546 28.4121 52.0546C30.9121 51.1546 29.8121 47.0546 27.3121 48.0546C25.0121 48.9546 22.6121 49.5546 20.2121 49.6546C18.7121 49.7546 17.1121 49.6546 15.6121 49.8546C15.4121 49.5546 15.2121 49.1546 15.1121 48.8546C14.7121 48.1546 14.3121 47.3546 13.9121 46.6546C15.5121 46.5546 17.0121 46.1546 18.5121 45.7546C23.7121 44.1546 28.6121 39.1546 34.3121 40.2546C39.7121 41.2546 44.3121 43.7546 50.0121 42.7546C54.1121 42.0546 57.9121 39.4546 59.6121 35.5546C62.7121 28.1546 56.2121 22.3546 49.4121 21.7546C50.7121 16.7546 48.6121 10.9546 45.3121 7.15462C40.6121 1.65462 33.0121 -0.645375 26.0121 0.154625C18.9121 0.954625 11.2121 4.55463 6.5121 9.95463C2.0121 15.2546 2.5121 21.4546 5.6121 27.0546C2.6121 28.7546 0.212104 31.1546 0.0121044 34.8546ZM10.6121 30.3546C11.8121 29.8546 12.3121 27.8546 11.5121 26.7546C7.9121 21.7546 6.7121 16.4546 11.6121 11.8546C15.7121 8.05462 21.4121 5.25462 27.0121 4.75462C32.2121 4.25462 37.7121 5.75462 41.3121 9.65462C44.8121 13.3546 45.3121 17.6546 44.8121 22.3546C43.5121 23.7546 44.8121 26.8546 47.3121 26.3546C50.0121 25.8546 53.2121 26.7546 54.8121 29.1546C56.8121 32.2546 54.6121 35.7546 51.7121 37.2546C44.6121 40.9546 37.9121 34.0546 30.7121 34.8546C24.0121 35.6546 19.1121 41.7546 12.1121 41.4546C9.1121 41.3546 6.1121 39.6546 5.3121 36.5546C4.5121 33.1546 7.9121 31.5546 10.6121 30.3546Z" fill="black"/>
<path d="M16.7121 18.8546C17.1121 18.9546 17.5121 18.9546 17.9121 18.8546C18.5121 18.7546 19.0121 18.4546 19.3121 17.9546C19.4121 17.7546 19.8121 16.8546 19.8121 16.6546C20.0121 15.9546 19.7121 15.0546 19.0121 14.7546C18.3121 14.3546 17.5121 14.3546 16.8121 14.7546C16.4121 14.9546 16.0121 15.3546 15.7121 15.8546C15.4121 16.4546 15.3121 17.0546 15.5121 17.6546C15.6121 18.1546 16.1121 18.6546 16.7121 18.8546Z" fill="black"/>
<path d="M27.4121 20.8546C28.5121 21.0546 29.6121 20.7546 30.4121 19.9546C31.3121 18.8546 31.6121 17.1546 30.2121 16.2546C29.3121 15.7546 28.2121 15.7546 27.3121 16.2546C26.7121 16.5546 26.2121 17.0546 26.1121 17.7546C26.1121 17.9546 26.1121 18.5546 26.1121 18.6546C26.0121 19.5546 26.4121 20.7546 27.4121 20.8546Z" fill="black"/>
<path d="M33.6121 13.3547C33.9121 13.9547 34.5121 14.4547 35.2121 14.3547C35.6121 14.3547 35.9121 14.2546 36.3121 14.0546C36.6121 13.8546 36.9121 13.5547 37.1121 13.2547C37.5121 12.6547 37.6121 11.9546 37.4121 11.3546C37.2121 10.5546 36.7121 9.95465 35.9121 9.75465C35.5121 9.65465 35.0121 9.65465 34.6121 9.85465C34.2121 9.95465 33.8121 10.1547 33.5121 10.4547C33.1121 10.7547 32.9121 11.1547 32.8121 11.6547C32.7121 12.1547 32.9121 12.6546 33.2121 13.0546C33.4121 13.1546 33.5121 13.2547 33.6121 13.3547Z" fill="black"/>
<path d="M22.9121 12.1546C23.7121 12.7546 24.8121 12.4546 25.4121 11.8546C25.9121 11.2546 26.1121 10.4546 25.9121 9.75459C25.4121 8.15459 23.0121 7.65459 22.1121 9.15459C21.8121 9.65459 21.7121 10.3546 21.9121 10.9546C22.0121 11.5546 22.4121 11.9546 22.9121 12.1546Z" fill="black"/>
<path d="M35.5121 20.0546C35.5121 20.1546 35.5121 20.8546 35.5121 21.1546C35.7121 22.4546 37.8121 22.8546 38.8121 22.5546C39.3121 22.3546 39.7121 22.0546 39.9121 21.6546C40.1121 21.2546 40.3121 20.8546 40.3121 20.3546C40.3121 19.4546 39.8121 18.5546 39.0121 18.1546C38.1121 17.6546 36.9121 17.8546 36.2121 18.5546C35.8121 18.8546 35.5121 19.4546 35.5121 20.0546Z" fill="black"/>
<path d="M39.0121 28.3547C38.6121 28.2547 38.1121 28.2547 37.7121 28.3547C37.0121 28.4547 36.3121 28.8547 35.9121 29.4547C35.1121 30.8547 35.7121 32.7547 37.3121 33.2547C39.0121 33.7547 40.6121 32.2547 40.6121 30.6547C40.6121 29.5547 40.1121 28.5547 39.0121 28.3547Z" fill="black"/>
<path d="M48.5121 35.2546C49.1121 35.1546 49.7121 34.9546 50.1121 34.4546C50.5121 33.9546 50.8121 33.3546 50.6121 32.7546C50.5121 32.4546 50.5121 32.0546 50.4121 31.6546C50.3121 31.0546 49.8121 30.7546 49.3121 30.5546C48.4121 30.2546 47.5121 30.6546 47.0121 31.3546C46.8121 31.4546 46.6121 31.5546 46.5121 31.7546C45.9121 32.3546 45.7121 33.3546 46.2121 34.1546C46.7121 34.7546 47.5121 35.3546 48.5121 35.2546Z" fill="black"/>
<path d="M17.8121 22.4546C16.9121 22.6546 16.2121 23.4546 15.9121 24.3546C15.4121 25.7546 17.6121 28.9546 19.9121 27.6546C21.5121 26.7546 21.7121 24.4546 20.4121 23.1546C19.6121 22.4546 18.7121 22.1546 17.8121 22.4546Z" fill="black"/>
<path d="M11.5121 38.2546C12.0121 38.1546 13.0121 37.5546 13.2121 35.7546C13.3121 34.9546 12.9121 34.3546 12.3121 33.8546C11.7121 33.3546 10.7121 33.4546 10.0121 33.8546C9.5121 34.1546 9.1121 34.7546 8.9121 35.3546C8.7121 35.9546 8.8121 36.6546 9.1121 37.1546C9.6121 38.0546 10.5121 38.4546 11.5121 38.2546Z" fill="black"/>
<path d="M26.3121 32.1546C27.4121 32.7546 28.8121 32.3546 29.5121 31.4546C29.8121 31.3546 30.1121 31.1546 30.3121 30.8546C30.8121 30.2546 30.8121 29.5546 30.4121 28.8546C29.7121 27.4546 27.8121 27.2546 26.6121 28.0546C25.2121 28.8546 24.5121 31.1546 26.3121 32.1546Z" fill="black"/>
<path d="M18.5121 31.3546C17.4121 31.8546 16.9121 33.1546 17.5121 34.1546C18.1121 35.2546 19.4121 35.6546 20.6121 35.3546C21.1121 35.2546 21.5121 34.9546 21.9121 34.6546C22.4121 34.1546 22.6121 33.5546 22.6121 32.9546C22.6121 32.5546 22.4121 32.1546 22.2121 31.8546C22.0121 31.5546 21.6121 31.3546 21.2121 31.1546C20.9121 31.0546 19.3121 30.9546 18.5121 31.3546Z" fill="black"/>
</svg>
