<svg width="28" height="71" viewBox="0 0 28 71" fill="none" xmlns="http://www.w3.org/2000/svg">
<path d="M5.80381 43.4C6.50381 42.7 7.50381 41.7 8.00381 41.2C7.30381 40.5 5.30381 38.5 5.30381 38.5L6.30381 37.5L10.0038 41.2L6.30381 45C6.80381 47 7.40381 49.2 8.00381 51.3C8.70381 50.6 9.70381 49.6 10.2038 49.2C9.50381 48.5 7.50381 46.5 7.50381 46.5L8.50381 45.5L12.2038 49.2L8.50381 52.9C9.10381 55.1 9.70381 57.3 10.2038 59.3C10.7038 58.8 12.2038 57.3 12.8038 56.7C12.0038 56 10.0038 54 10.0038 54L11.0038 53L14.7038 56.7L10.9038 60.5L10.3038 59.9C11.8038 65.5 12.9038 69.7 13.0038 69.8C13.3038 71 14.3038 71.1 14.7038 69.8C14.8038 69.5 24.7038 32.7 24.7038 32.7H3.10381C3.00381 32.7 4.20381 37.4 5.80381 43.4ZM14.3038 54.9L13.3038 53.9C13.3038 53.9 15.4038 51.8 16.1038 51.1C15.4038 50.4 13.4038 48.4 13.4038 48.4L14.4038 47.4L18.1038 51.1L14.3038 54.9ZM11.2038 40.8L12.2038 39.8L15.9038 43.5L12.1038 47.3L11.1038 46.3C11.1038 46.3 13.2038 44.2 13.9038 43.5C13.2038 42.8 11.2038 40.8 11.2038 40.8Z" fill="black"/>
<path d="M25.0038 21.3C25.0038 21.3 27.0038 18.9 25.7038 16C23.9038 11.9 19.5038 13 19.5038 13C19.5038 13 23.2038 11.5 21.2038 6.9C19.1038 2 12.6038 0 12.6038 0C14.1038 3.4 14.2038 5.6 12.9038 6.8C12.0038 7.7 11.0038 8 10.3038 8C8.10381 8.1 5.60381 8.8 4.20381 10.8C2.60381 13.3 4.10381 15.8 4.10381 15.8C4.10381 15.8 0.403813 16.4 0.00381328 20.2C-0.0961867 22.9 1.80381 23.9 1.80381 23.9C1.80381 23.9 -0.296187 25.7 0.403813 28.2C1.00381 30.3 2.50381 30.7 3.30381 30.7C6.50381 30.7 24.5038 30.7 24.5038 30.7C24.5038 30.7 27.1038 30 27.5038 27C28.2038 22.6 25.0038 21.3 25.0038 21.3Z" fill="black"/>
</svg>
