<svg width="89" height="85" viewBox="0 0 89 85" fill="none" xmlns="http://www.w3.org/2000/svg">
<path d="M20.5139 27.8172C19.6139 35.6172 28.2139 40.5172 34.8139 37.5172C41.7139 34.4172 43.5139 23.9172 36.4139 20.2172C35.4139 19.7172 31.6139 17.6172 27.4139 18.7172C23.2139 19.7172 21.0139 23.5172 20.5139 27.8172ZM33.3139 26.3172C33.0139 25.3172 31.5139 22.8172 31.4139 22.6172C31.9139 22.6172 32.6139 22.7172 32.9139 22.7172C36.1139 23.3172 37.8139 26.9172 37.0139 29.8172C36.3139 32.6172 33.8139 34.2172 31.2139 34.5172C33.2139 32.3172 34.2139 29.5172 33.3139 26.3172ZM29.6139 29.6172C28.6139 32.8172 26.4139 33.1172 26.2139 33.2172C25.3139 32.5172 24.6139 31.5172 24.2139 30.3172C23.3139 27.4172 24.7139 24.4172 27.0139 22.6172C27.1139 23.2172 27.5139 23.8172 27.9139 24.5172C29.0139 26.2172 30.3139 27.5172 29.6139 29.6172Z" fill="black"/>
<path d="M87.1139 69.6172C81.0139 66.2172 74.4139 63.5172 68.0139 60.6172C65.1139 54.9172 62.2139 49.1172 59.4139 43.4172C53.4139 31.4172 47.4139 19.3172 41.2139 7.41721C40.0139 5.11721 38.8139 2.01721 36.8139 0.317207C35.8139 -0.582793 34.3139 0.617207 34.8139 1.61721C35.1139 3.61721 36.1139 5.71721 36.9139 7.51721C37.5139 8.91721 38.2139 10.4172 38.9139 11.8172C36.6139 10.5172 34.0139 9.71721 31.4139 9.51721C28.4139 9.21721 28.4139 14.0172 31.4139 14.2172C38.8139 14.6172 45.1139 21.5172 44.4139 29.0172C43.7139 36.6172 36.7139 42.8172 29.1139 42.2172C21.2139 41.6172 15.1139 34.1172 16.6139 26.2172C17.2139 23.0172 19.0139 19.7172 21.5139 17.5172C23.3139 15.9172 27.1139 14.7172 28.0139 12.5172C28.1139 12.3172 28.0139 12.0172 27.8139 11.8172C26.0139 9.51721 21.4139 11.7172 19.6139 13.0172C16.7139 15.2172 14.4139 18.1172 13.1139 21.5172C11.1139 26.4172 11.3139 31.8172 13.4139 36.4172C11.5139 35.6172 9.61389 34.9172 7.61389 34.1172C5.81389 33.4172 1.11389 30.9172 0.213889 32.7172C-0.686111 34.4172 1.51389 35.3172 2.01389 35.6172C3.31389 36.3172 4.71389 37.0172 6.11389 37.7172C11.0139 40.0172 63.9139 64.2172 64.4139 64.5172C67.5139 70.7172 70.3139 77.3172 74.0139 83.2172C75.7139 86.0172 79.5139 83.6172 78.3139 80.7172C76.4139 76.4172 74.2139 72.2172 71.9139 68.1172C76.3139 70.2172 80.7139 72.4172 85.3139 74.2172C87.9139 75.2172 89.5139 71.0172 87.1139 69.6172ZM35.8139 46.1172C37.1139 45.7172 38.3139 45.1172 39.5139 44.4172C44.0139 41.7172 47.2139 37.1172 48.3139 32.0172C52.4139 40.5172 56.5139 48.9172 60.7139 57.4172C55.2139 54.8172 38.5139 47.3172 35.8139 46.1172Z" fill="black"/>
</svg>
