<svg width="90" height="75" viewBox="0 0 90 75" fill="none" xmlns="http://www.w3.org/2000/svg">
<path d="M5.10328 56.9841C6.00328 57.0841 6.80328 57.0841 7.60328 56.9841C9.20328 59.6841 11.3033 62.1841 12.8033 64.9841C13.6033 66.4841 14.1033 68.5841 15.2033 69.7841C16.3033 71.0841 18.4033 71.1841 19.9033 71.5841C28.1033 73.4841 36.6033 74.4841 44.9033 74.4841C53.1033 74.4841 61.7033 73.8841 69.7033 71.8841C72.7033 71.0841 75.0033 69.6841 76.4033 66.7841C78.2033 63.0841 79.5033 59.1841 81.1033 55.3841C81.1033 55.3841 81.1033 55.3841 81.2033 55.3841C84.4033 55.6841 88.1033 54.6841 89.0033 51.2841C89.8033 48.0841 87.5033 45.2841 84.7033 44.1841C83.2033 43.5841 82.0033 44.0841 80.6033 43.8841C78.3033 43.4841 77.3033 40.2841 76.2033 38.4841C72.0033 31.9841 65.5033 27.9841 58.3033 25.8841C49.0033 23.0841 38.9033 23.2841 29.6033 25.8841C20.9033 28.2841 12.4033 32.6841 7.80328 40.7841C7.00328 42.1841 7.60328 43.4841 8.60328 44.1841C4.20328 44.2841 0.00327645 46.0841 0.00327645 50.8841C-0.0967236 54.0841 2.10328 56.4841 5.10328 56.9841ZM74.1033 60.8841C72.9033 63.2841 72.0033 65.6841 69.3033 66.5841C64.1033 68.2841 58.0033 68.6841 52.6033 68.9841C41.3033 69.6841 30.1033 68.4841 19.0033 65.9841C17.4033 62.5841 15.1033 58.7841 12.1033 56.1841C12.8033 56.0841 13.6033 56.0841 14.3033 56.3841C15.5033 56.7841 16.4033 57.7841 17.4033 58.4841C20.0033 60.2841 23.7033 61.2841 26.2033 58.5841C27.5033 57.1841 27.9033 54.7841 30.2033 56.3841C31.8033 57.4841 32.7033 59.1841 34.6033 59.9841C37.8033 61.2841 40.6033 59.5841 43.4033 58.1841C45.3033 57.2841 46.7033 56.8841 48.6033 57.8841C50.1033 58.6841 51.4033 59.7841 53.0033 60.3841C56.3033 61.6841 58.9033 60.4841 61.4033 58.2841C63.5033 56.3841 64.5033 56.1841 67.1033 57.2841C68.7033 57.8841 70.2033 58.5841 71.9033 58.4841C73.5033 58.3841 74.8033 57.6841 76.1033 56.7841C75.4033 58.1841 74.8033 59.4841 74.1033 60.8841ZM16.1033 48.4841C17.5033 48.5841 18.1033 46.3841 16.8033 45.7841C15.4033 45.0841 13.5033 44.5841 11.4033 44.3841C11.7033 44.1841 12.0033 43.8841 12.2033 43.4841C19.0033 31.4841 36.2033 28.2841 48.8033 29.1841C55.4033 29.6841 62.1033 31.5841 67.7033 35.1841C70.1033 36.7841 72.7033 38.5841 74.4033 40.9841C75.9033 43.0841 76.4033 45.8841 79.2033 46.3841C80.9033 46.6841 83.2033 46.5841 84.1033 48.3841C85.3033 50.5841 82.8033 50.7841 81.2033 50.5841C78.2033 50.2841 76.4033 50.8841 73.9033 52.6841C70.8033 54.8841 68.8033 52.5841 65.6033 51.9841C63.0033 51.4841 61.0033 52.5841 59.1033 54.1841C58.0033 55.1841 57.0033 56.5841 55.3033 56.2841C54.0033 55.9841 52.8033 54.8841 51.7033 54.2841C49.5033 52.9841 47.3033 52.1841 44.8033 52.7841C42.4033 53.3841 39.8033 55.9841 37.4033 55.8841C34.7033 55.7841 33.1033 51.9841 30.4033 51.1841C29.0033 50.7841 27.5033 50.7841 26.3033 51.5841C25.0033 52.3841 24.7033 53.5841 23.7033 54.6841C22.2033 56.4841 20.8033 55.1841 19.2033 54.0841C17.8033 53.0841 16.4033 52.1841 14.7033 51.8841C12.3033 51.2841 4.20328 54.1841 4.20328 50.9841C4.20328 46.9841 13.7033 48.3841 16.1033 48.4841Z" fill="black"/>
<path d="M38.8033 10.1841C39.8033 12.1841 39.8033 12.7841 38.3033 14.3841C36.4033 16.4841 38.8033 19.7841 41.4033 18.3841C43.9033 16.9841 44.8033 13.7841 44.1033 11.0841C43.7033 9.6841 42.8033 8.4841 42.1033 7.1841C41.6033 6.2841 40.5033 4.8841 40.9033 3.7841C41.1033 3.1841 42.1033 2.7841 42.6033 2.3841C42.9033 2.1841 43.1033 1.7841 43.0033 1.4841C42.0033 -1.3159 38.4033 0.384099 37.3033 2.1841C36.4033 3.6841 36.7033 5.5841 37.3033 7.0841C37.6033 8.1841 38.2033 9.1841 38.8033 10.1841Z" fill="black"/>
<path d="M50.7033 20.0841C49.0033 22.6841 52.6033 24.8841 54.7033 23.1841C56.8033 21.3841 56.9033 18.3841 56.0033 15.8841C54.9033 12.7841 52.0033 10.6841 54.6033 7.58413C55.0033 7.18413 55.0033 6.68413 54.6033 6.18413C52.4033 3.58413 49.1033 6.58413 48.6033 8.98413C48.2033 10.7841 48.8033 12.5841 49.5033 14.2841C50.5033 16.2841 52.1033 17.9841 50.7033 20.0841Z" fill="black"/>
<path d="M25.8033 47.6841C26.9033 47.4841 27.8033 46.7841 29.0033 46.7841C30.3033 46.7841 31.3033 47.3841 32.0033 48.4841C33.4033 50.7841 36.6033 48.3841 34.9033 46.1841C33.5033 44.3841 31.3033 43.3841 29.1033 43.6841C27.4033 43.8841 25.1033 45.0841 24.9033 46.9841C24.9033 47.4841 25.4033 47.6841 25.8033 47.6841Z" fill="black"/>
<path d="M43.5033 49.5841C44.8033 49.6841 46.0033 49.0841 47.2033 49.0841C48.6033 49.0841 49.7033 49.5841 50.8033 50.4841C53.0033 52.1841 55.5033 48.1841 53.0033 46.6841C50.2033 45.0841 43.8033 44.2841 42.5033 48.2841C42.3033 48.9841 42.8033 49.5841 43.5033 49.5841Z" fill="black"/>
<path d="M62.4033 49.4842C64.0033 49.3842 65.5033 48.6842 67.1033 48.5842C68.9033 48.4842 70.6033 48.7842 72.2033 49.5842C74.7033 50.7842 76.9033 47.1842 74.4033 45.7842C70.6033 43.6842 63.3033 43.3842 61.4033 48.1842C61.2033 48.7842 61.8033 49.5842 62.4033 49.4842Z" fill="black"/>
<path d="M41.0033 40.6841C41.9033 39.6841 41.9033 38.5841 42.1033 37.3841C42.3033 36.3841 42.7033 35.3841 43.0033 34.3841C43.2033 33.4841 42.2033 32.3841 41.2033 33.0841C40.2033 33.8841 39.5033 34.7841 38.8033 35.7841C38.5033 36.2841 38.2033 36.7841 37.9033 37.2841C37.4033 38.1841 37.3033 38.7841 37.5033 39.7841C37.8033 41.2841 40.1033 41.7841 41.0033 40.6841Z" fill="black"/>
<path d="M49.0033 40.1842C49.6033 41.6842 51.2033 42.5842 52.7033 41.6842C54.2033 40.7842 54.3033 38.8842 53.2033 37.6842C51.8033 36.0842 49.9033 33.9842 47.7033 33.5842C47.0033 33.4842 46.4033 33.9842 46.6033 34.6842C47.0033 36.6842 48.3033 38.3842 49.0033 40.1842Z" fill="black"/>
</svg>
