<svg width="78" height="76" viewBox="0 0 78 76" fill="none" xmlns="http://www.w3.org/2000/svg">
<path d="M31.2 42C31.3 42.1 31.4 42.2 31.5 42.2C32 42.7 32.7 43.2 33.5 43.8C31.6 43.6 29.7 43.6 27.7 43.7C26.1 43.8 24.6 43.9 23.2 44.1L25.4 42.7C25.4 42.7 25.7 42.3 26.2 41.9C11.6 42.5 0.2 49.5 0 58.2C0 58.5 0 58.8 0 59.1C0.7 58.5 1.4 58 1.4 58L6.3 54.9V55C6.3 55.1 6.3 55.3 6.3 55.4C6.2 56 6.1 56.6 6.2 57.3C6.3 58.6 6.8 61.9 9.4 65.2C9.8 65.7 10.3 66.2 10.8 66.7C8.2 65.3 6 64.1 4.9 63.4C3.5 62.5 1.7 62.2 0.5 61.8C2.9 69.2 13.4 75 26.4 75.9C24.9 74.6 21.8 72.8 18.4 70.9C20.9 71.6 23.9 71.9 27.5 72C30.1 72.1 33.3 72 34.2 71.4C34.6 71.1 34.8 70.7 35 70.3C35.2 69.8 35.5 69.3 36 69C36.6 68.6 36.9 67.7 36.9 66.7C36.9 66.5 36.9 66.3 36.9 66.1C36.7 65 36.1 64.2 35.2 63.9C34.8 63 34.4 62.2 34.1 61.6C37.9 62.4 46.2 64 48.3 62.4C50.2 61 50.6 59.2 50.6 57.6C50.6 57.6 50.7 57.1 50.5 56.5C50.5 56.1 50.4 55.8 50.4 55.5V55.1C53 56.7 55 57.8 55.4 58C56.5 58.4 57.6 58.9 58.4 59.3C58.3 50.4 46.4 42.9 31.2 42ZM48.9 54.5C47.7 54 46.2 54.5 45.1 55C43.9 55 41.3 54.7 41.3 54.7C41.3 54.7 38.3 54.2 34.2 53.1C30.9 51.9 28.2 52.2 28.1 52.2L28.7 53.4C28.7 53.4 30.7 53.3 33.7 54.4C37.9 55.6 41 56 41.1 56.1C41.2 56.1 44 56.4 45.3 56.4H45.5L45.6 56.3C47.7 55.4 48.5 55.7 48.9 56C49.1 56.2 49.2 56.4 49.3 56.6C49.4 58.1 49.3 59.8 47.5 61.1C46.1 62.2 38.1 60.9 33 59.7L31.2 59.3L32 60.7C32 60.7 33 62.4 33.9 64.5L34 64.8L34.3 64.9C34.9 65.1 35.1 65.5 35.3 65.9C32.9 66.3 20.7 68 13.4 63.5C7.9 60.1 7.5 57.3 7.6 55.5C7.7 54.8 7.9 54.2 8.2 53.6C8.5 52.9 9 52.3 9.5 51.7C11.6 49.3 15.3 47.4 19.8 46.3C22.2 45.7 24.9 45.3 27.7 45.2C30.6 45.1 33.4 45.2 35.9 45.7C42.9 46.9 48.1 50.1 48.8 54.1C48.9 54.2 48.9 54.3 48.9 54.5ZM33.7 69.6C33.6 69.9 33.4 70.2 33.3 70.3C32.9 70.5 30.7 70.7 27.6 70.6C18.9 70.4 14 68.5 10.6 64.3C9.9 63.4 9.3 62.5 8.9 61.7C9.8 62.7 11.1 63.7 12.8 64.7C20.4 69.4 32.4 67.9 35.4 67.4C35.3 67.6 35.3 67.7 35.2 67.7C34.4 68.2 34 69 33.7 69.6Z" fill="black"/>
<path d="M32.7 75.9C46.3 75.2 56.2 69 58.1 61.9C57.4 62 56.4 62.1 55.1 62.7C49 65.6 41.1 69.2 32.7 75.9Z" fill="black"/>
<path d="M66.5 0C64.8 0 64 0 62 5.3C61.9 5.6 60 10 58.3 14.1C58.1 14 57.9 13.8 57.7 13.7C54.3 11.2 52.5 10.7 50.4 10.1L47.9 9.4L47.6 9.8L38.3 22.6C38.1 22.7 37.9 22.8 37.7 22.9L37.5 23L37.7 24.1V28.8C35.8 31.3 34.4 33.3 34.2 33.6C32.9 35.3 34.4 36 37.5 35.3C40.8 34.5 62.4 29.1 64.2 28.8C65.5 28.6 66.1 27.9 65.2 27.1C65 26.9 63.9 26 62.4 24.9C62.9 23.9 63.3 22.6 63.3 21.3C63.3 21.3 63.3 21.2 63.3 21.1C63.3 21 63.3 20.8 63.3 20.7V20.6C63.3 20.5 63.3 20.4 63.2 20.2C63.1 19.9 63 19.5 62.8 19.2C62.5 18.6 62.1 18 61.6 17.4C64 13.1 67.2 7.5 68.5 5.5C72.4 0 77.4 1.3 77.2 0H66.5ZM41.2 28.4L40.2 29.2L39.2 27.1L39.1 27L38.8 26.4L39.1 26.2L39.8 25.7L39.9 25.8L41.2 28.4ZM41.1 28L42.3 25.5L43.6 26.4L42.3 28.9L41.1 28ZM58.2 26.8C58.2 26.8 40.7 30.6 39.2 30.9C39.2 30.6 39.2 30.1 39.2 29.6C40.6 29.3 43.5 28.7 46.7 28.1C47.7 27.9 48.7 27.7 49.6 27.5L48.4 24.3L49.8 24L51 27.1L50 27.5C50.9 27.3 51.8 27.1 52.7 26.9L51.6 26.1L53.3 22.9C50.7 23.4 48.1 23.9 45.8 24.1L48.2 26.4L46.9 27.3L44.5 25L45 24.2C44.6 24.2 44.3 24.3 44 24.3C42.8 24.3 41.7 24.5 40.7 24.7C40.1 24.8 39.6 24.9 39.1 25.1C39.1 24.5 39.1 24 39.1 23.9C39.1 23.9 39.2 23.8 39.3 23.7C40 23.4 40.9 23.1 42.2 22.9C42.6 22.8 43.1 22.8 43.6 22.8C45.8 22.8 48.8 22.3 51.7 21.8L55.6 21.2L56.7 21C56.9 21 57.1 20.9 57.3 20.9C57.8 20.8 58.3 20.5 58.8 20.3C59.4 20 60.1 19.7 60.6 19.6C60.7 19.6 60.8 19.6 60.9 19.6C61.3 19.6 61.5 19.8 61.7 20L61.8 20.1C61.9 20.3 62 20.5 62 20.7C62 20.8 62 20.9 62 20.9V21C62 21.1 62 21.1 62 21.2C62 22.2 61.7 23.2 61.3 24C60.5 25.5 59.3 26.6 58.2 26.8ZM46.6 13.6C48.6 14.2 52.9 15.6 55.2 18.1C55.5 18.4 55.9 18.4 56.2 18.1C56.5 17.8 56.5 17.4 56.2 17.1C53.6 14.3 49.3 12.9 47.4 12.4C48 11.6 48.4 11 48.5 10.9C49.1 11.1 50.1 11.4 50.1 11.4C52.1 12 53.8 12.4 57 14.8C57.3 15 57.6 15.2 57.8 15.5C58.8 16.3 59.7 17.3 60.4 18.1C59.7 18.2 58.8 18.6 58 19C57.4 19.3 56.7 19.6 56.4 19.7L56 19.8L55.6 19.9L51.4 20.5C48.6 21 45.6 21.5 43.5 21.5C43.4 21.5 43.3 21.5 43.3 21.5C42.3 21.5 41.5 21.6 40.8 21.8C42.3 19.4 44.8 16 46.6 13.6Z" fill="black"/>
<path d="M38.5 60L37.8 56.9L39.4 56.8C37.4 56.5 35.5 56.1 34.1 55.7L32.9 58.2L31.7 57.6L32.7 55.3C32.6 55.3 32.5 55.2 32.4 55.2C30.7 54.4 28.8 54.3 28.8 54.3C28.8 54.3 29.9 55.5 30.7 58.2C32.1 58.7 35.4 59.5 38.5 60ZM35.3 56L37.3 58.5L36 59.5L33.9 56.6L35.3 56Z" fill="black"/>
<path d="M39.1 60.1C39.7 60.2 40.3 60.3 40.8 60.3L40.2 59.4L43 57.3L43.7 58.5L41.3 60.3C42.9 60.5 44.3 60.6 45.2 60.5L44.4 57.7L45.9 57.3L46.6 60C47.3 59.6 47.7 59.1 47.9 58.4C48.3 57.3 47.5 56.6 46.3 57.1C45.5 57.4 42.6 57.1 39.6 56.6L40 59.7L39.1 60.1Z" fill="black"/>
<path d="M45.8 52.1C44.7 50.2 42.2 48.4 38.4 47.3C35.4 46.4 31.6 45.9 27 46.1C26.6 46.1 26.3 46.4 26.3 46.8C26.3 47.2 26.6 47.5 27 47.5C27.7 47.5 28.3 47.5 28.9 47.5C37.9 47.5 42.9 50.4 44.4 52.7C44.5 52.9 44.6 53.1 44.7 53.3C44.8 53.7 45.3 53.8 45.6 53.7C46 53.6 46.1 53.1 46 52.8C46 52.5 45.9 52.3 45.8 52.1Z" fill="black"/>
<path d="M27 62.8C26.6 62.8 26.1 62.8 25.7 62.7C17.5 62.1 13.2 59.4 11.8 57C11.2 55.9 11.1 54.8 11.6 53.9C11.8 53.6 11.7 53.1 11.3 52.9C11 52.7 10.5 52.8 10.3 53.2C9.49999 54.5 9.59999 56.2 10.5 57.7C12.6 61.4 18.7 63.9 26.9 64.2C27.3 64.2 27.6 63.9 27.6 63.5C27.7 63.1 27.4 62.8 27 62.8Z" fill="black"/>
<path d="M59.4 21.3C59.3 21.3 59.2 21.4 59.2 21.4C58.9 21.5 58.6 21.6 58.3 21.8C57.9 21.9 57.5 22 57.1 22.2C56.9 22.3 56.7 22.3 56.5 22.4L58.1 24.6L57.1 25.3L55 22.7C54.4 22.8 53.9 22.9 53.3 23L54.4 24.2L52.8 26.9C54.9 26.5 56.5 26.1 57.2 25.9C58.7 25.5 59.8 24.2 60.2 23.2C60.3 23 60.4 22.8 60.4 22.6C60.7 21.4 60.2 21.1 59.4 21.3Z" fill="black"/>
</svg>
